<svg width="22" height="22" viewBox="0 0 22 22" fill="none" xmlns="http://www.w3.org/2000/svg">
<g clip-path="url(#clip0_330_2207)">
<path d="M19.8 0H1.8C0.81 0 0 0.81 0 1.8V19.8C0 20.79 0.81 21.6 1.8 21.6H10.719C10.521 21.6 10.359 21.438 10.359 21.24V13.851H8.037C7.839 13.851 7.677 13.689 7.677 13.491V10.566C7.677 10.368 7.839 10.206 8.037 10.206H10.359V8.172C10.359 5.508 12.033 3.789 14.634 3.789H16.947C17.145 3.789 17.307 3.951 17.307 4.149V6.867C17.307 7.065 17.145 7.227 16.947 7.227H15.39C14.319 7.227 14.121 7.641 14.121 8.469V10.179H16.839C16.938 10.179 17.028 10.215 17.1 10.287C17.172 10.359 17.208 10.449 17.208 10.548V13.473C17.208 13.671 17.046 13.833 16.848 13.833H14.13V21.222C14.13 21.42 13.968 21.582 13.77 21.582H19.8C20.79 21.582 21.6 20.772 21.6 19.782V1.8C21.6 0.81 20.79 0 19.8 0Z" fill="white"/>
</g>
<defs>
<clipPath id="clip0_330_2207">
<rect width="21.6" height="21.6" fill="white"/>
</clipPath>
</defs>
</svg>
