<svg width="23" height="22" viewBox="0 0 23 22" fill="none" xmlns="http://www.w3.org/2000/svg">
<g clip-path="url(#clip0_330_2208)">
<path d="M11.3995 8.25293C9.99554 8.25293 8.85254 9.39593 8.85254 10.7999C8.85254 12.2039 9.99554 13.3469 11.3995 13.3469C12.8035 13.3469 13.9465 12.2039 13.9465 10.7999C13.9465 9.39593 12.8125 8.25293 11.3995 8.25293Z" fill="white"/>
<path d="M17.3575 6.29992C17.2315 5.96692 17.0425 5.66992 16.7905 5.41792C16.5475 5.16592 16.2415 4.96792 15.9085 4.85092C15.6385 4.74292 15.2335 4.61692 14.4865 4.58992C13.6855 4.55392 13.4425 4.54492 11.3995 4.54492C9.35653 4.54492 9.12253 4.55392 8.31253 4.58992C7.57453 4.62592 7.16953 4.75192 6.90853 4.85092C6.57553 4.97692 6.27853 5.16592 6.02653 5.41792C5.76553 5.66992 5.57653 5.97592 5.45053 6.29992C5.35153 6.56992 5.22553 6.97492 5.18953 7.72192C5.15353 8.52292 5.14453 8.76592 5.14453 10.8089C5.14453 12.8519 5.15353 13.0859 5.18953 13.8959C5.22553 14.6429 5.35153 15.0479 5.45053 15.3179C5.57653 15.6509 5.76553 15.9479 6.01753 16.1999C6.26053 16.4519 6.56653 16.6499 6.89953 16.7669C7.16953 16.8749 7.57453 17.0009 8.32153 17.0279C9.12253 17.0639 9.36553 17.0729 11.4085 17.0729C13.4515 17.0729 13.6855 17.0639 14.4955 17.0279C15.2425 16.9919 15.6475 16.8659 15.9175 16.7669C16.5835 16.5059 17.1145 15.9839 17.3665 15.3179C17.4745 15.0479 17.6005 14.6429 17.6275 13.8959C17.6635 13.0859 17.6725 12.8519 17.6725 10.8089C17.6725 8.76592 17.6635 8.53192 17.6275 7.72192C17.5915 6.97492 17.4655 6.56992 17.3575 6.29992ZM11.3995 14.7239C9.23053 14.7239 7.47553 12.9689 7.47553 10.7999C7.47553 8.63092 9.23053 6.87592 11.3995 6.87592C13.5685 6.87592 15.3235 8.63092 15.3235 10.7999C15.3235 12.9689 13.5685 14.7239 11.3995 14.7239ZM15.4855 7.64092C14.9815 7.64092 14.5675 7.22692 14.5675 6.72292C14.5675 6.21892 14.9815 5.80492 15.4855 5.80492C15.9895 5.80492 16.4035 6.21892 16.4035 6.72292C16.4035 7.22692 15.9895 7.64092 15.4855 7.64092Z" fill="white"/>
<path d="M20.3996 0H2.39961C1.40961 0 0.599609 0.81 0.599609 1.8V19.8C0.599609 20.79 1.40961 21.6 2.39961 21.6H20.3996C21.3896 21.6 22.1996 20.79 22.1996 19.8V1.8C22.1996 0.81 21.3896 0 20.3996 0ZM18.9956 13.95C18.9596 14.76 18.8246 15.318 18.6446 15.804C18.2486 16.83 17.4386 17.64 16.4126 18.036C15.9266 18.225 15.3686 18.351 14.5586 18.387C13.7396 18.423 13.4876 18.432 11.4086 18.432C9.32961 18.432 9.07761 18.423 8.25861 18.387C7.44861 18.351 6.89061 18.216 6.40461 18.036C5.90061 17.847 5.43261 17.541 5.05461 17.154C4.66761 16.776 4.36161 16.308 4.17261 15.795C3.97461 15.318 3.83961 14.76 3.80361 13.95C3.76761 13.14 3.75861 12.879 3.75861 10.8C3.75861 8.721 3.76761 8.469 3.80361 7.65C3.83961 6.84 3.97461 6.282 4.15461 5.796C4.34361 5.292 4.64961 4.824 5.03661 4.446C5.42361 4.05 5.88261 3.753 6.39561 3.564C6.88161 3.375 7.43961 3.24 8.24961 3.204C9.06861 3.168 9.32961 3.159 11.3996 3.159C13.4696 3.159 13.7306 3.168 14.5496 3.204C15.3596 3.24 15.9176 3.375 16.4036 3.555C16.9076 3.744 17.3756 4.05 17.7536 4.437C18.1406 4.815 18.4466 5.283 18.6356 5.796C18.8246 6.282 18.9506 6.84 18.9866 7.65C19.0226 8.469 19.0226 8.721 19.0226 10.8C19.0226 12.879 19.0316 13.14 18.9956 13.95Z" fill="white"/>
</g>
<defs>
<clipPath id="clip0_330_2208">
<rect width="21.6" height="21.6" fill="white" transform="translate(0.599609)"/>
</clipPath>
</defs>
</svg>
