<svg width="22" height="22" viewBox="0 0 22 22" fill="none" xmlns="http://www.w3.org/2000/svg">
<g clip-path="url(#clip0_330_1374)">
<path d="M20.0002 0H2.0002C1.0102 0 0.200195 0.81 0.200195 1.8V19.8C0.200195 20.79 1.0102 21.6 2.0002 21.6H20.0002C20.9902 21.6 21.8002 20.79 21.8002 19.8V1.8C21.8002 0.81 20.9902 0 20.0002 0ZM6.94119 17.829H4.0342V8.451H6.95019V17.829H6.94119ZM5.48319 7.173C4.55619 7.173 3.80019 6.399 3.80019 5.472C3.80019 4.545 4.55619 3.78 5.48319 3.78C6.41019 3.78 7.16619 4.536 7.16619 5.463C7.17519 6.399 6.41919 7.173 5.48319 7.173ZM17.8492 17.829H14.9422V13.266C14.9422 12.177 14.9242 10.782 13.4302 10.782C11.9182 10.782 11.6842 11.961 11.6842 13.185V17.829H8.76819V8.451H11.5582V9.729H11.6032C11.9902 8.991 12.9442 8.217 14.3572 8.217C17.3002 8.217 17.8492 10.161 17.8492 12.681V17.829Z" fill="#252A47"/>
</g>
<defs>
<clipPath id="clip0_330_1374">
<rect width="21.6" height="21.6" fill="white" transform="translate(0.200195)"/>
</clipPath>
</defs>
</svg>
