<svg width="22" height="22" viewBox="0 0 22 22" fill="none" xmlns="http://www.w3.org/2000/svg">
<g clip-path="url(#clip0_330_2204)">
<path d="M20.2004 0H2.20039C1.21039 0 0.400391 0.81 0.400391 1.8V19.8C0.400391 20.79 1.21039 21.6 2.20039 21.6H20.2004C21.1904 21.6 22.0004 20.79 22.0004 19.8V1.8C22.0004 0.81 21.1904 0 20.2004 0ZM17.1584 7.614C17.1674 7.74 17.1674 7.875 17.1674 8.01C17.1674 12.069 14.0804 16.749 8.41939 16.749C6.68239 16.749 5.07139 16.245 3.70339 15.372C3.94639 15.399 4.18939 15.417 4.44139 15.417C5.88139 15.417 7.20439 14.922 8.24839 14.103C6.90739 14.076 5.77339 13.176 5.37739 11.961C5.56639 12.006 5.76439 12.015 5.96239 12.015C6.24139 12.015 6.52039 11.979 6.77239 11.916C5.37739 11.628 4.30639 10.386 4.30639 8.901C4.30639 8.892 4.30639 8.874 4.30639 8.865C4.72039 9.09 5.19739 9.234 5.69239 9.243C4.87339 8.703 4.33339 7.758 4.33339 6.687C4.33339 6.12 4.48639 5.598 4.75639 5.13C6.27739 6.993 8.53639 8.217 11.0924 8.343C11.0384 8.118 11.0204 7.884 11.0204 7.641C11.0204 5.949 12.3884 4.572 14.0894 4.572C14.9624 4.572 15.7724 4.941 16.3304 5.544C17.0324 5.4 17.6804 5.157 18.2744 4.797C18.0494 5.517 17.5634 6.111 16.9244 6.498C17.5454 6.417 18.1394 6.255 18.6974 6.012C18.2744 6.642 17.7614 7.182 17.1584 7.614Z" fill="white"/>
</g>
<defs>
<clipPath id="clip0_330_2204">
<rect width="21.6" height="21.6" fill="white" transform="translate(0.400391)"/>
</clipPath>
</defs>
</svg>
