<svg width="22" height="22" viewBox="0 0 22 22" fill="none" xmlns="http://www.w3.org/2000/svg">
<path fill-rule="evenodd" clip-rule="evenodd" d="M1.83333 0H20.1667C21.175 0 22 0.825 22 1.83333V20.1667C22 21.175 21.175 22 20.1667 22H1.83333C0.825 22 0 21.175 0 20.1667V1.83333C0 0.825 0.825 0 1.83333 0ZM7.85006 10.3636H5.30768C5.57055 7.98569 7.28924 6.04653 9.55272 5.45716C8.58125 6.91736 7.99273 8.60524 7.85006 10.3636ZM9.12756 10.3636C9.28741 8.63707 9.93748 6.99214 11 5.62323C12.0625 6.99214 12.7126 8.63707 12.8724 10.3636H9.12756ZM11 16.3768C12.0625 15.0078 12.7126 13.3629 12.8724 11.6364H9.12756C9.28741 13.3629 9.93748 15.0078 11 16.3768ZM5.30768 11.6364H7.85006C7.99273 13.3948 8.58125 15.0826 9.55273 16.5428C7.28925 15.9535 5.57055 14.0143 5.30768 11.6364ZM14.1499 11.6364C14.0073 13.3948 13.4188 15.0826 12.4473 16.5428C14.7107 15.9535 16.4294 14.0143 16.6923 11.6364H14.1499ZM14.1499 10.3636H16.6923C16.4294 7.9857 14.7107 6.04654 12.4473 5.45717C13.4188 6.91736 14.0073 8.60524 14.1499 10.3636ZM11 4C7.13401 4 4 7.13401 4 11C4 14.866 7.134 18 11 18C14.866 18 18 14.866 18 11C18 7.134 14.866 4 11 4Z" fill="#252A47"/>
</svg>
