<svg width="22" height="22" viewBox="0 0 22 22" fill="none" xmlns="http://www.w3.org/2000/svg">
<path d="M20.1667 0H1.83333C0.825 0 0 0.825 0 1.83333V20.1667C0 21.175 0.825 22 1.83333 22H20.1667C21.175 22 22 21.175 22 20.1667V1.83333C22 0.825 21.175 0 20.1667 0ZM18.6908 11.0092C18.6908 11.0092 18.6908 13.5025 18.37 14.7125C18.1958 15.3725 17.6733 15.895 17.0133 16.0692C15.8125 16.39 11 16.39 11 16.39C11 16.39 6.19667 16.39 4.9775 16.06C4.3175 15.8858 3.795 15.3633 3.62083 14.7033C3.30917 13.5117 3.30917 11 3.30917 11C3.30917 11 3.30917 8.50667 3.63 7.29667C3.80417 6.63667 4.33583 6.105 4.98667 5.93083C6.1875 5.61 11 5.61 11 5.61C11 5.61 15.8125 5.61 17.0225 5.94C17.6825 6.11417 18.205 6.63667 18.3792 7.29667C18.7092 8.50667 18.6908 11.0092 18.6908 11.0092Z" fill="#252A47"/>
<path d="M9.46875 13.3099L13.4746 10.9999L9.46875 8.68994V13.3099Z" fill="#252A47"/>
</svg>
