<svg width="22" height="22" viewBox="0 0 22 22" fill="none" xmlns="http://www.w3.org/2000/svg">
<path d="M11.0004 8.40576C9.57042 8.40576 8.40625 9.56993 8.40625 10.9999C8.40625 12.4299 9.57042 13.5941 11.0004 13.5941C12.4304 13.5941 13.5946 12.4299 13.5946 10.9999C13.5946 9.56993 12.4396 8.40576 11.0004 8.40576Z" fill="#252A47"/>
<path d="M17.0681 6.41665C16.9397 6.07748 16.7472 5.77498 16.4906 5.51832C16.2431 5.26165 15.9314 5.05998 15.5922 4.94082C15.3172 4.83082 14.9047 4.70248 14.1439 4.67498C13.3281 4.63832 13.0806 4.62915 10.9997 4.62915C8.91891 4.62915 8.68057 4.63832 7.85557 4.67498C7.10391 4.71165 6.69141 4.83998 6.42557 4.94082C6.08641 5.06915 5.78391 5.26165 5.52724 5.51832C5.26141 5.77498 5.06891 6.08665 4.94057 6.41665C4.83974 6.69165 4.71141 7.10415 4.67474 7.86498C4.63807 8.68082 4.62891 8.92832 4.62891 11.0092C4.62891 13.09 4.63807 13.3283 4.67474 14.1533C4.71141 14.9142 4.83974 15.3267 4.94057 15.6017C5.06891 15.9408 5.26141 16.2433 5.51807 16.5C5.76557 16.7567 6.07724 16.9583 6.41641 17.0775C6.69141 17.1875 7.10391 17.3158 7.86474 17.3433C8.68057 17.38 8.92807 17.3892 11.0089 17.3892C13.0897 17.3892 13.3281 17.38 14.1531 17.3433C14.9139 17.3067 15.3264 17.1783 15.6014 17.0775C16.2797 16.8117 16.8206 16.28 17.0772 15.6017C17.1872 15.3267 17.3156 14.9142 17.3431 14.1533C17.3797 13.3283 17.3889 13.09 17.3889 11.0092C17.3889 8.92832 17.3797 8.68998 17.3431 7.86498C17.3064 7.10415 17.1781 6.69165 17.0681 6.41665ZM10.9997 14.9967C8.79057 14.9967 7.00307 13.2092 7.00307 11C7.00307 8.79082 8.79057 7.00332 10.9997 7.00332C13.2089 7.00332 14.9964 8.79082 14.9964 11C14.9964 13.2092 13.2089 14.9967 10.9997 14.9967ZM15.1614 7.78248C14.6481 7.78248 14.2264 7.36082 14.2264 6.84748C14.2264 6.33415 14.6481 5.91248 15.1614 5.91248C15.6747 5.91248 16.0964 6.33415 16.0964 6.84748C16.0964 7.36082 15.6747 7.78248 15.1614 7.78248Z" fill="#252A47"/>
<path d="M20.1667 0H1.83333C0.825 0 0 0.825 0 1.83333V20.1667C0 21.175 0.825 22 1.83333 22H20.1667C21.175 22 22 21.175 22 20.1667V1.83333C22 0.825 21.175 0 20.1667 0ZM18.7367 14.2083C18.7 15.0333 18.5625 15.6017 18.3792 16.0967C17.9758 17.1417 17.1508 17.9667 16.1058 18.37C15.6108 18.5625 15.0425 18.6908 14.2175 18.7275C13.3833 18.7642 13.1267 18.7733 11.0092 18.7733C8.89167 18.7733 8.635 18.7642 7.80083 18.7275C6.97583 18.6908 6.4075 18.5533 5.9125 18.37C5.39917 18.1775 4.9225 17.8658 4.5375 17.4717C4.14333 17.0867 3.83167 16.61 3.63917 16.0875C3.4375 15.6017 3.3 15.0333 3.26333 14.2083C3.22667 13.3833 3.2175 13.1175 3.2175 11C3.2175 8.8825 3.22667 8.62583 3.26333 7.79167C3.3 6.96667 3.4375 6.39833 3.62083 5.90333C3.81333 5.39 4.125 4.91333 4.51917 4.52833C4.91333 4.125 5.38083 3.8225 5.90333 3.63C6.39833 3.4375 6.96667 3.3 7.79167 3.26333C8.62583 3.22667 8.89167 3.2175 11 3.2175C13.1083 3.2175 13.3742 3.22667 14.2083 3.26333C15.0333 3.3 15.6017 3.4375 16.0967 3.62083C16.61 3.81333 17.0867 4.125 17.4717 4.51917C17.8658 4.90417 18.1775 5.38083 18.37 5.90333C18.5625 6.39833 18.6908 6.96667 18.7275 7.79167C18.7642 8.62583 18.7642 8.8825 18.7642 11C18.7642 13.1175 18.7733 13.3833 18.7367 14.2083Z" fill="#252A47"/>
</svg>
