<svg width="22" height="22" viewBox="0 0 22 22" fill="none" xmlns="http://www.w3.org/2000/svg">
<path d="M20.1667 0H1.83333C0.825 0 0 0.825 0 1.83333V20.1667C0 21.175 0.825 22 1.83333 22H10.9175C10.7158 22 10.5508 21.835 10.5508 21.6333V14.1075H8.18583C7.98417 14.1075 7.81917 13.9425 7.81917 13.7408V10.7617C7.81917 10.56 7.98417 10.395 8.18583 10.395H10.5508V8.32333C10.5508 5.61 12.2558 3.85917 14.905 3.85917H17.2608C17.4625 3.85917 17.6275 4.02417 17.6275 4.22583V6.99417C17.6275 7.19583 17.4625 7.36083 17.2608 7.36083H15.675C14.5842 7.36083 14.3825 7.7825 14.3825 8.62583V10.3675H17.1508C17.2517 10.3675 17.3433 10.4042 17.4167 10.4775C17.49 10.5508 17.5267 10.6425 17.5267 10.7433V13.7225C17.5267 13.9242 17.3617 14.0892 17.16 14.0892H14.3917V21.615C14.3917 21.8167 14.2267 21.9817 14.025 21.9817H20.1667C21.175 21.9817 22 21.1567 22 20.1483V1.83333C22 0.825 21.175 0 20.1667 0Z" fill="#252A47"/>
</svg>
