<svg width="22" height="22" viewBox="0 0 22 22" fill="none" xmlns="http://www.w3.org/2000/svg">
<path d="M20.1667 0H1.83333C0.825 0 0 0.825 0 1.83333V20.1667C0 21.175 0.825 22 1.83333 22H20.1667C21.175 22 22 21.175 22 20.1667V1.83333C22 0.825 21.175 0 20.1667 0ZM6.86583 18.1592H3.905V8.6075H6.875V18.1592H6.86583ZM5.38083 7.30583C4.43667 7.30583 3.66667 6.5175 3.66667 5.57333C3.66667 4.62917 4.43667 3.85 5.38083 3.85C6.325 3.85 7.095 4.62 7.095 5.56417C7.10417 6.5175 6.33417 7.30583 5.38083 7.30583ZM17.9758 18.1592H15.015V13.5117C15.015 12.4025 14.9967 10.9817 13.475 10.9817C11.935 10.9817 11.6967 12.1825 11.6967 13.4292V18.1592H8.72667V8.6075H11.5683V9.90917H11.6142C12.0083 9.1575 12.98 8.36917 14.4192 8.36917C17.4167 8.36917 17.9758 10.3492 17.9758 12.9158V18.1592Z" fill="#252A47"/>
</svg>
