<svg width="22" height="22" viewBox="0 0 22 22" fill="none" xmlns="http://www.w3.org/2000/svg">
<path d="M20.1667 0H1.83333C0.825 0 0 0.825 0 1.83333V20.1667C0 21.175 0.825 22 1.83333 22H20.1667C21.175 22 22 21.175 22 20.1667V1.83333C22 0.825 21.175 0 20.1667 0ZM17.0683 7.755C17.0775 7.88333 17.0775 8.02083 17.0775 8.15833C17.0775 12.2925 13.9333 17.0592 8.1675 17.0592C6.39833 17.0592 4.7575 16.5458 3.36417 15.6567C3.61167 15.6842 3.85917 15.7025 4.11583 15.7025C5.5825 15.7025 6.93 15.1983 7.99333 14.3642C6.6275 14.3367 5.4725 13.42 5.06917 12.1825C5.26167 12.2283 5.46333 12.2375 5.665 12.2375C5.94917 12.2375 6.23333 12.2008 6.49 12.1367C5.06917 11.8433 3.97833 10.5783 3.97833 9.06583C3.97833 9.05667 3.97833 9.03833 3.97833 9.02917C4.4 9.25833 4.88583 9.405 5.39 9.41417C4.55583 8.86417 4.00583 7.90167 4.00583 6.81083C4.00583 6.23333 4.16167 5.70167 4.43667 5.225C5.98583 7.1225 8.28667 8.36917 10.89 8.4975C10.835 8.26833 10.8167 8.03 10.8167 7.7825C10.8167 6.05917 12.21 4.65667 13.9425 4.65667C14.8317 4.65667 15.6567 5.0325 16.225 5.64667C16.94 5.5 17.6 5.2525 18.205 4.88583C17.9758 5.61917 17.4808 6.22417 16.83 6.61833C17.4625 6.53583 18.0675 6.37083 18.6358 6.12333C18.205 6.765 17.6825 7.315 17.0683 7.755Z" fill="#252A47"/>
</svg>
