<svg width="23" height="22" viewBox="0 0 23 22" fill="none" xmlns="http://www.w3.org/2000/svg">
<path d="M20.6008 0H2.60078C1.61078 0 0.800781 0.81 0.800781 1.8V19.8C0.800781 20.79 1.61078 21.6 2.60078 21.6H20.6008C21.5908 21.6 22.4008 20.79 22.4008 19.8V1.8C22.4008 0.81 21.5908 0 20.6008 0ZM19.1518 10.809C19.1518 10.809 19.1518 13.257 18.8368 14.445C18.6658 15.093 18.1528 15.606 17.5048 15.777C16.3258 16.092 11.6008 16.092 11.6008 16.092C11.6008 16.092 6.88478 16.092 5.68778 15.768C5.03978 15.597 4.52678 15.084 4.35578 14.436C4.04978 13.266 4.04978 10.8 4.04978 10.8C4.04978 10.8 4.04978 8.352 4.36478 7.164C4.53578 6.516 5.05778 5.994 5.69678 5.823C6.87578 5.508 11.6008 5.508 11.6008 5.508C11.6008 5.508 16.3258 5.508 17.5138 5.832C18.1618 6.003 18.6748 6.516 18.8458 7.164C19.1698 8.352 19.1518 10.809 19.1518 10.809Z" fill="white"/>
<path d="M10.0977 13.0682L14.0307 10.8002L10.0977 8.53223V13.0682Z" fill="white"/>
</svg>
