<svg width="182" height="183" viewBox="0 0 182 183" fill="none" xmlns="http://www.w3.org/2000/svg">
<g filter="url(#filter0_d_530_1541)">
<circle cx="91" cy="88" r="70" fill="white"/>
</g>
<path d="M119.112 134.036C119.04 133.675 114.662 111.682 114.614 111.456C114.088 108.91 112.664 106.959 110.573 105.703C109.32 104.947 108.608 104.827 107.795 104.577L92.8668 99.3595C92.437 99.2121 92.0639 98.9341 91.7999 98.5644C91.5358 98.1946 91.3939 97.7516 91.3939 97.2972V92.7258C85.6757 95.5848 79.6798 95.4044 74.3574 92.807V97.2972C74.3575 97.7516 74.2155 98.1946 73.9514 98.5644C73.6874 98.9341 73.3144 99.2121 72.8846 99.3595L66.7478 101.464H66.7421L66.7427 101.465L66.7421 101.466L57.9625 104.577L56.8075 104.918C54.7187 105.697 52.9077 107.176 51.8928 109.244C51.1902 110.669 51.3987 110.169 47.9895 127.282C46.7271 133.819 46.4486 134.295 46.6065 135.756C47.0457 139.838 51.2447 139.412 51.3583 139.461H114.399C114.443 139.447 119.936 139.865 119.112 134.036Z" fill="#6C7D87"/>
<path d="M51.7726 134.036L56.2704 109.404C56.208 109.704 56.6042 106.11 59.9852 103.86C56.209 105.198 57.3794 104.663 56.2187 105.16C54.0274 106.15 52.3281 107.831 51.4904 110.2C51.1551 111.152 51.3725 110.315 47.9895 127.282C46.7271 133.819 46.4486 134.296 46.6065 135.755C47.0457 139.838 51.2447 139.412 51.3583 139.461H56.4861C52.8681 139.462 51.3046 137.346 51.7726 134.036Z" fill="#566A75"/>
<path d="M60.6382 139.462H51.3578C51.2389 139.41 46.453 139.891 46.5725 134.901C46.5986 133.838 46.7317 133.793 47.989 127.283L48.0616 126.918H60.6382V139.462Z" fill="#DD9A5E"/>
<path d="M53.0718 126.918H48.0616L47.989 127.282C46.7273 133.815 46.5987 133.836 46.5725 134.901C46.4531 139.874 51.2635 139.421 51.3578 139.462H56.4856C53.1532 139.462 51.6332 137.709 51.7005 134.901C51.7083 134.576 51.8295 133.894 53.0718 126.918Z" fill="#D18C54"/>
<path d="M74.3574 92.6155C74.3574 105.367 74.3574 90.5657 74.3576 100.609H74.363V100.916C74.363 102.957 75.666 104.77 77.6007 105.418C80.7056 106.458 84.6917 106.576 88.1504 105.418C90.0851 104.77 91.3881 102.957 91.3881 100.916V100.609H91.3935L91.3937 92.6155C85.874 95.5586 79.6507 95.438 74.3574 92.6155Z" fill="#DD9A5E"/>
<path d="M79.492 102.314H79.4854L79.4852 94.4497C77.6955 94.092 75.9679 93.4739 74.3574 92.6152C74.3574 105.367 74.3574 90.5655 74.3576 100.609H74.363V100.916C74.363 102.957 75.666 104.77 77.6007 105.418C78.5813 105.744 79.5915 105.974 80.6168 106.103C79.3125 104.333 79.5117 102.45 79.492 102.314Z" fill="#D18C54"/>
<path d="M60.6379 121.886C60.4359 121.886 60.2358 121.925 60.0492 122.003C59.8625 122.08 59.693 122.193 59.5501 122.336C59.4073 122.479 59.2939 122.649 59.2166 122.835C59.1394 123.022 59.0996 123.222 59.0996 123.424V139.462H62.1764V123.424C62.1764 123.222 62.1366 123.022 62.0593 122.835C61.982 122.649 61.8687 122.479 61.7258 122.336C61.583 122.193 61.4133 122.08 61.2267 122.003C61.04 121.925 60.8399 121.886 60.6379 121.886Z" fill="#566A75"/>
<path d="M132.679 139.462H82.8758C80.7978 139.462 79.1133 137.777 79.1133 135.699C79.1133 134.508 80.0788 133.543 81.2697 133.543H134.285C135.476 133.543 136.442 134.508 136.442 135.699C136.442 137.777 134.757 139.462 132.679 139.462Z" fill="#C6C6C6"/>
<path d="M88.8045 135.699C88.8045 134.508 89.77 133.543 90.9608 133.543H81.2697C80.0788 133.543 79.1133 134.508 79.1133 135.699C79.1133 137.777 80.7978 139.462 82.8758 139.462H92.567C90.489 139.462 88.8045 137.777 88.8045 135.699Z" fill="#B7B7B7"/>
<path d="M129.416 100.61H86.1371C84.7834 100.61 83.6758 101.717 83.6758 103.071V131.082C83.6758 132.435 84.7834 133.543 86.1371 133.543H129.416C130.77 133.543 131.877 132.435 131.877 131.082V103.071C131.877 101.717 130.77 100.61 129.416 100.61Z" fill="#EDEDED"/>
<path d="M88.8036 131.082V103.071C88.8036 101.717 89.9112 100.61 91.2649 100.61H86.1371C84.7834 100.61 83.6758 101.717 83.6758 103.071V131.082C83.6758 132.435 84.7834 133.543 86.1371 133.543H91.2649C89.9112 133.543 88.8036 132.435 88.8036 131.082Z" fill="#DADADA"/>
<path d="M107.776 120.63C109.739 120.63 111.331 119.039 111.331 117.075C111.331 115.112 109.739 113.52 107.776 113.52C105.812 113.52 104.221 115.112 104.221 117.075C104.221 119.039 105.812 120.63 107.776 120.63Z" fill="#DADADA"/>
<path d="M107.779 113.524C105.068 113.519 103.322 116.47 104.698 118.854C106.075 121.239 109.503 121.2 110.854 118.851C108.12 118.847 106.412 115.898 107.779 113.524Z" fill="#C6C6C6"/>
<path d="M82.4115 37.5617C69.161 37.6124 57.9746 48.4292 57.9746 62.1717V71.4985H107.202V57.5456C107.202 48.0152 101.338 45.8198 101.338 45.8198C94.0464 36.8292 82.4214 37.5617 82.4214 37.5617" fill="#4C4846"/>
<path d="M85.7375 37.7087C70.7205 35.9992 58.5001 47.3334 57.9966 61.2019C57.9578 62.1989 57.9839 61.8261 57.9757 71.4984H63.8391V62.1717C63.8391 49.4406 73.4761 39.0544 85.7375 37.7087Z" fill="#3D3938"/>
<path d="M63.839 68.5697C60.7518 67.4694 57.4004 69.5157 57.4004 72.5004C57.4004 75.4845 60.7514 77.5314 63.839 76.4311V68.5697ZM101.339 68.5697C104.426 67.4694 107.778 69.5157 107.778 72.5004C107.778 75.4845 104.427 77.5314 101.339 76.4311V68.5697Z" fill="#DD9A5E"/>
<path d="M57.8499 70.6931C56.0465 74.1167 59.8435 77.8546 63.8378 76.4314V72.8163C61.5085 73.6462 58.9038 72.6941 57.8499 70.6931ZM101.338 72.8163V76.4314C105.332 77.8546 109.129 74.1167 107.326 70.6931C106.572 72.125 103.668 73.6466 101.338 72.8163Z" fill="#D18C54"/>
<path d="M100.492 60.7808C100.971 60.827 101.339 61.2236 101.339 61.7041C101.339 77.4904 101.349 76.2987 101.312 77.0326C101.069 81.8341 99.0153 86.2429 95.6756 89.5014C83.9718 100.913 64.4418 92.82 63.8542 76.8132C63.827 76.1075 63.8382 67.9313 63.8382 67.9543C63.8382 64.278 67.101 61.4732 70.7395 61.9982C76.4704 62.8255 84.8352 62.5039 92.1341 56.265C92.8843 55.6237 94.0225 55.8311 94.5013 56.6936C95.4055 58.3223 97.2041 60.4636 100.492 60.7808Z" fill="#EDAE6B"/>
<path d="M68.9845 76.8133C68.961 76.208 68.9661 65.1323 68.9679 62.0034C66.1059 62.4326 63.8383 64.8899 63.8383 67.9544C63.8383 67.9314 63.8268 76.1077 63.8543 76.8133C64.2872 88.6152 75.0179 96.113 85.317 94.665C76.861 93.4958 69.3457 86.6501 68.9845 76.8133Z" fill="#DD9A5E"/>
<path d="M102.682 117.076C102.682 119.884 104.967 122.17 107.775 122.17C110.584 122.17 112.869 119.884 112.869 117.076C112.869 114.267 110.584 111.982 107.775 111.982C104.967 111.982 102.682 114.267 102.682 117.076ZM109.792 117.076C109.792 118.188 108.887 119.093 107.775 119.093C106.663 119.093 105.758 118.188 105.758 117.076C105.758 115.964 106.663 115.059 107.775 115.059C108.888 115.059 109.792 115.964 109.792 117.076Z" fill="black"/>
<path d="M134.283 132.005H133.302C133.512 131.118 133.372 131.767 133.414 116.094C133.414 115.892 133.374 115.692 133.297 115.505C133.219 115.319 133.106 115.149 132.963 115.006C132.82 114.863 132.651 114.75 132.464 114.673C132.277 114.595 132.077 114.556 131.875 114.556C131.673 114.556 131.473 114.595 131.287 114.673C131.1 114.75 130.93 114.863 130.788 115.006C130.645 115.149 130.531 115.319 130.454 115.505C130.377 115.692 130.337 115.892 130.337 116.094V131.082C130.337 131.582 129.914 132.005 129.414 132.005H86.1352C85.635 132.005 85.2121 131.582 85.2121 131.082V103.071C85.2121 102.571 85.6348 102.148 86.1352 102.148H129.414C129.914 102.148 130.337 102.571 130.337 103.071V108.915C130.337 109.117 130.377 109.317 130.454 109.504C130.531 109.69 130.645 109.86 130.788 110.003C130.93 110.146 131.1 110.259 131.287 110.336C131.473 110.414 131.673 110.453 131.875 110.453C132.077 110.453 132.277 110.414 132.464 110.336C132.651 110.259 132.82 110.146 132.963 110.003C133.106 109.86 133.219 109.69 133.297 109.504C133.374 109.317 133.414 109.117 133.414 108.915V103.071C133.414 100.866 131.619 99.0715 129.414 99.0715H96.7937L93.3632 97.9046C93.2367 97.8612 93.127 97.7794 93.0493 97.6705C92.9717 97.5617 92.93 97.4313 92.93 97.2976V93.5275C98.5137 90.2089 102.102 84.4975 102.757 78.2616C107.464 78.4798 110.691 73.9847 108.738 70.0866V57.5455C108.738 48.4761 103.806 45.3212 102.299 44.5689C93.608 34.194 75.6947 32.6847 64.6877 43.1112C63.6726 44.0645 64.3547 45.7711 65.7412 45.7711C66.8743 45.7711 66.7014 44.9779 70.2033 42.7011C70.4627 42.5327 70.9656 42.236 70.9449 42.2483C80.0157 36.8037 93.396 38.4716 100.141 46.7891C100.314 47.0018 100.524 47.1587 100.781 47.2546C100.98 47.3346 105.661 49.3046 105.661 57.5457V67.2549C104.808 66.8935 103.872 66.7084 102.875 66.7362V61.7044C102.875 60.428 101.913 59.3731 100.638 59.2501C98.0529 59.0005 96.6042 57.316 95.844 55.9471C94.8927 54.2339 92.6214 53.8233 91.1323 55.0958C84.2731 60.9596 76.3755 61.2574 70.9572 60.4758C66.8513 59.8829 63.0561 62.6853 62.3962 66.7383C61.4081 66.6938 60.4226 66.8702 59.5113 67.2547C59.6077 62.4641 58.7942 57.2782 62.5892 50.661C62.7922 50.3071 62.8463 49.8871 62.7396 49.4933C62.6329 49.0995 62.3742 48.7642 62.0203 48.5612C61.6664 48.3582 61.2463 48.3041 60.8525 48.4108C60.4588 48.5174 60.1235 48.7762 59.9205 49.1301C57.606 53.166 56.4868 57.8285 56.4569 61.1423C56.4186 62.1345 56.4417 61.7713 56.435 70.0862C54.4789 73.9897 57.7188 78.479 62.4165 78.2612C63.0906 84.6787 66.8939 90.5922 72.8174 93.8582V97.2972C72.8174 97.5714 72.6431 97.815 72.3849 97.9038C66.2873 100.036 73.4731 97.4434 57.4864 103.113C56.0908 103.526 56.4003 103.419 55.8495 103.643C52.4206 105.083 50.3015 107.837 49.6165 111.224C44.8179 135.327 45.0002 133.96 45.0328 135.271C45.1819 139.07 47.6125 141 51.3558 141H87.9142C88.1163 141 88.3163 140.96 88.503 140.883C88.6896 140.806 88.8592 140.692 89.002 140.549C89.1449 140.407 89.2582 140.237 89.3355 140.05C89.4128 139.864 89.4526 139.664 89.4525 139.462C89.4526 139.26 89.4128 139.06 89.3355 138.873C89.2582 138.686 89.1449 138.517 89.002 138.374C88.8592 138.231 88.6896 138.118 88.503 138.04C88.3163 137.963 88.1163 137.923 87.9142 137.923H82.8732C80.723 137.923 80.0109 135.081 81.2673 135.081H134.283C135.541 135.081 134.821 137.923 132.677 137.923H95.0932C94.8912 137.923 94.6912 137.963 94.5045 138.04C94.3179 138.118 94.1483 138.231 94.0054 138.374C93.8626 138.517 93.7493 138.686 93.672 138.873C93.5947 139.06 93.5549 139.26 93.5549 139.462C93.5549 139.664 93.5947 139.864 93.672 140.05C93.7493 140.237 93.8626 140.407 94.0054 140.549C94.1483 140.692 94.3179 140.806 94.5045 140.883C94.6912 140.96 94.8912 141 95.0932 141H132.676C135.599 141 137.977 138.622 137.977 135.699C137.977 133.662 136.32 132.005 134.283 132.005ZM75.8934 95.2286C82.3929 97.4891 87.5082 95.6957 87.8558 95.6693L87.8523 95.6568L87.873 95.651L87.8767 95.6635C88.4126 95.4892 88.5926 95.5021 89.8533 95.0171V99.0707H86.1354C83.93 99.0707 82.1358 100.865 82.1358 103.07V104.688C80.7379 104.636 79.3787 104.391 78.0871 103.959C77.4492 103.745 76.8947 103.336 76.502 102.79C76.1093 102.244 75.8985 101.588 75.8993 100.916C75.8954 97.1836 75.9051 99.4628 75.8934 95.2286ZM106.237 72.5004C106.237 74.1012 104.632 75.28 102.875 75.1871V69.8137C104.648 69.7201 106.237 70.9151 106.237 72.5004ZM100.342 62.3121L100.34 62.3119C100.341 62.3121 100.342 62.3121 100.342 62.3121ZM58.9357 72.5004C58.9357 70.8995 60.5406 69.7208 62.2977 69.8137V75.1871C60.5238 75.281 58.9357 74.0856 58.9357 72.5004ZM65.3989 76.9526C65.36 76.2408 65.379 76.4982 65.3743 68.5696C65.4205 68.3112 65.0433 66.1969 66.9184 64.5729C67.4077 64.1496 67.9824 63.8366 68.6034 63.655C69.2244 63.4735 69.8772 63.4277 70.5175 63.5208C76.5638 64.3943 85.3961 64.0464 93.1312 57.4345L93.154 57.4405C94.6398 60.1163 96.9844 61.8056 99.7979 62.2436C99.7979 76.1485 99.9782 77.5041 99.2869 80.2566C98.8615 81.9578 98.1276 83.6751 97.2346 85.1164C88.2071 99.3847 66.2402 93.7754 65.3989 76.9526ZM51.3556 137.923C48.7222 137.923 48.2501 136.677 48.1332 135.591C48.0114 134.459 48.2624 133.951 49.3216 128.456H59.0975V137.923H51.3556ZM81.2671 132.005C78.7674 132.005 76.8062 134.426 77.8724 137.456C77.9287 137.614 77.9918 137.77 78.0617 137.924H62.1743V123.424C62.1743 122.575 61.4856 121.886 60.636 121.886C59.7864 121.886 59.0977 122.575 59.0977 123.424V125.38H49.9342C52.836 110.815 52.6695 111.424 52.986 110.585C53.6192 108.922 54.5626 107.949 55.9161 107.056C57.1197 106.362 57.2561 106.4 58.3861 106.055C58.4675 106.032 57.924 106.221 67.2532 102.916L67.2541 102.916L72.8258 101.005C72.8632 103.675 74.5735 106.028 77.1099 106.877C78.7157 107.415 80.4041 107.711 82.1356 107.764C82.2332 131.172 81.9955 130.961 82.243 132.005H81.2668V132.005H81.2671Z" fill="black"/>
<defs>
<filter id="filter0_d_530_1541" x="0" y="0.5" width="182" height="182" filterUnits="userSpaceOnUse" color-interpolation-filters="sRGB">
<feFlood flood-opacity="0" result="BackgroundImageFix"/>
<feColorMatrix in="SourceAlpha" type="matrix" values="0 0 0 0 0 0 0 0 0 0 0 0 0 0 0 0 0 0 127 0" result="hardAlpha"/>
<feOffset dy="3.5"/>
<feGaussianBlur stdDeviation="10.5"/>
<feComposite in2="hardAlpha" operator="out"/>
<feColorMatrix type="matrix" values="0 0 0 0 0 0 0 0 0 0 0 0 0 0 0 0 0 0 0.06 0"/>
<feBlend mode="normal" in2="BackgroundImageFix" result="effect1_dropShadow_530_1541"/>
<feBlend mode="normal" in="SourceGraphic" in2="effect1_dropShadow_530_1541" result="shape"/>
</filter>
</defs>
</svg>
