<svg width="182" height="183" viewBox="0 0 182 183" fill="none" xmlns="http://www.w3.org/2000/svg">
<g filter="url(#filter0_d_530_1504)">
<circle cx="91" cy="88" r="70" fill="white"/>
</g>
<path d="M129.186 37.5381H63.8789C63.607 37.5381 63.3461 37.6461 63.1538 37.8384C62.9615 38.0307 62.8535 38.2915 62.8535 38.5635V66.993H69.5786C72.3544 66.993 74.6047 69.2434 74.6047 72.0191C74.6047 74.6769 72.5412 76.8514 69.9293 77.0316V83.2662C70.9135 83.4167 71.668 84.2645 71.668 85.2907V98.0205C71.668 99.0468 70.9133 99.8946 69.9291 100.045L69.9293 106.28C72.5414 106.46 74.6047 108.634 74.6047 111.292C74.6047 114.068 72.3544 116.318 69.5786 116.318H62.8535V124.734H77.0062C78.1388 124.734 79.0569 125.652 79.0569 126.785V130.865L79.0567 130.871H80.6192C81.7519 130.871 82.67 131.789 82.67 132.921V139.462H130.212V38.5635C130.212 38.2915 130.104 38.0307 129.912 37.8384C129.719 37.6461 129.458 37.5381 129.186 37.5381Z" fill="#FFF3DE"/>
<path d="M69.5786 66.993C69.64 66.993 69.7007 66.9955 69.7616 66.9978V38.5635C69.7616 38.2915 69.8696 38.0307 70.0619 37.8384C70.2542 37.6461 70.515 37.5381 70.787 37.5381H63.8789C63.607 37.5381 63.3461 37.6461 63.1538 37.8384C62.9615 38.0307 62.8535 38.2915 62.8535 38.5635V66.993H69.5786ZM69.5786 116.319H62.8535V124.734H69.7616V116.314C69.7007 116.316 69.64 116.319 69.5786 116.319Z" fill="#FFE5C2"/>
<path d="M71.668 88.1494H81.1608V95.1625H71.668V88.1494ZM87.7063 88.1494H101.265V95.1625H87.7063V88.1494Z" fill="#883F2E"/>
<path d="M71.668 91.7812H81.1608V95.1624H71.668V91.7812ZM87.7063 91.7812H101.265V95.1624H87.7063V91.7812Z" fill="#6D3326"/>
<path d="M139.369 91.6559C139.369 94.4962 137.067 96.7988 134.226 96.7988H102.434C102.124 96.7988 101.826 96.6756 101.607 96.4564C101.388 96.2372 101.265 95.9399 101.265 95.6299V87.6816C101.265 87.3716 101.388 87.0743 101.607 86.8551C101.826 86.6359 102.124 86.5127 102.434 86.5127H134.226C137.067 86.5129 139.369 88.8155 139.369 91.6559Z" fill="#CA6E59"/>
<path d="M108.254 92.3964C107.944 92.3963 107.647 92.2732 107.428 92.0539C107.209 91.8347 107.086 91.5374 107.086 91.2274V86.5127H102.434C102.124 86.5127 101.826 86.6359 101.607 86.8551C101.388 87.0743 101.265 87.3716 101.265 87.6816V95.6299C101.265 95.9399 101.388 96.2372 101.607 96.4564C101.826 96.6756 102.124 96.7988 102.434 96.7988H134.226C136.815 96.7988 138.956 94.8858 139.315 92.3964H108.254Z" fill="#BB5D4C"/>
<path d="M87.7056 87.5383V95.7734C87.7056 96.0454 87.5976 96.3062 87.4053 96.4985C87.213 96.6908 86.9522 96.7988 86.6802 96.7988H82.1855C81.9136 96.7988 81.6528 96.6908 81.4605 96.4985C81.2682 96.3062 81.1602 96.0454 81.1602 95.7734V87.5383C81.1602 87.2664 81.2682 87.0056 81.4605 86.8133C81.6528 86.621 81.9136 86.5129 82.1855 86.5129H86.6802C86.9522 86.5129 87.213 86.621 87.4053 86.8133C87.5976 87.0056 87.7056 87.2664 87.7056 87.5383Z" fill="#CA6E59"/>
<path d="M84.1334 95.7734V87.5383C84.1334 87.2664 84.2414 87.0056 84.4337 86.8133C84.626 86.621 84.8868 86.5129 85.1588 86.5129H82.1855C81.9136 86.5129 81.6528 86.621 81.4605 86.8133C81.2682 87.0056 81.1602 87.2664 81.1602 87.5383V95.7734C81.1602 96.0454 81.2682 96.3062 81.4605 96.4985C81.6528 96.6908 81.9136 96.7988 82.1855 96.7988H85.1588C84.8868 96.7988 84.626 96.6908 84.4337 96.4985C84.2414 96.3062 84.1334 96.0454 84.1334 95.7734Z" fill="#BB5D4C"/>
<path d="M69.6167 100.071H56.6822C56.5758 100.071 56.4722 100.061 56.3701 100.045V106.28C56.4868 106.271 56.6038 106.267 56.7208 106.266H69.5782C69.6961 106.266 69.8128 106.272 69.9289 106.28V100.045C69.8256 100.062 69.7213 100.071 69.6167 100.071Z" fill="#883F2E"/>
<path d="M56.6822 100.071C56.5758 100.071 56.4722 100.061 56.3701 100.045V106.28C56.4868 106.271 56.6038 106.267 56.7208 106.266H61.5344V100.071L56.6822 100.071Z" fill="#6D3326"/>
<path d="M56.6822 83.2401H69.6167C69.7232 83.2401 69.8267 83.2507 69.9289 83.2663V77.0317C69.8128 77.0397 69.6961 77.0453 69.5782 77.0453H56.7208C56.6029 77.0453 56.4862 77.0397 56.3701 77.0317V83.2663C56.4733 83.2497 56.5777 83.2409 56.6822 83.2401Z" fill="#883F2E"/>
<path d="M56.6822 83.2403H61.5344V77.0453H56.7208C56.6029 77.0453 56.4862 77.0397 56.3701 77.0317V83.2663C56.4734 83.2498 56.5777 83.2411 56.6822 83.2403Z" fill="#6D3326"/>
<path d="M71.6679 85.291V98.0208C71.6679 99.1535 70.7497 100.072 69.6171 100.072H56.6826C55.55 100.072 54.6318 99.1535 54.6318 98.0208V85.291C54.6318 84.1584 55.55 83.2402 56.6826 83.2402H69.6171C70.7497 83.2402 71.6679 84.1584 71.6679 85.291Z" fill="#CA6E59"/>
<path d="M61.5584 98.0208V85.291C61.5584 84.1584 62.4765 83.2402 63.6091 83.2402H56.6826C55.55 83.2402 54.6318 84.1584 54.6318 85.291V98.0208C54.6318 99.1535 55.55 100.072 56.6826 100.072H63.6091C62.4765 100.072 61.5584 99.1535 61.5584 98.0208Z" fill="#BB5D4C"/>
<path d="M79.0463 131.076C79.0532 131.007 79.0569 130.936 79.0569 130.865V126.785C79.0569 125.652 78.1388 124.734 77.0062 124.734H49.2939C48.1613 124.734 47.2432 125.652 47.2432 126.785V130.865C47.2432 130.936 47.2469 131.007 47.2538 131.076H79.0463Z" fill="#CA6E59"/>
<path d="M54.1865 131.076C54.1794 131.006 54.1759 130.936 54.1758 130.865V126.785C54.1758 125.652 55.094 124.734 56.2266 124.734H49.2939C48.1613 124.734 47.2432 125.652 47.2432 126.785V130.865C47.2432 130.936 47.2469 131.007 47.2538 131.076H54.1865Z" fill="#BB5D4C"/>
<path d="M82.6696 139.462H44.6553C44.3833 139.462 44.1225 139.354 43.9302 139.162C43.7379 138.969 43.6299 138.709 43.6299 138.437V132.922C43.6299 131.789 44.548 130.871 45.6807 130.871H80.6188C81.7514 130.871 82.6696 131.789 82.6696 132.922V139.462Z" fill="#883F2E"/>
<path d="M50.484 138.437V132.922C50.484 131.789 51.4021 130.871 52.5348 130.871H45.6807C44.548 130.871 43.6299 131.789 43.6299 132.922V138.437C43.6299 138.709 43.7379 138.969 43.9302 139.162C44.1225 139.354 44.3833 139.462 44.6553 139.462H51.5094C51.2374 139.462 50.9766 139.354 50.7843 139.162C50.592 138.969 50.484 138.709 50.484 138.437Z" fill="#6D3326"/>
<path d="M74.6048 111.293C74.6048 114.068 72.3545 116.319 69.5787 116.319H56.7214C53.9456 116.319 51.6953 114.068 51.6953 111.293C51.6953 108.517 53.9456 106.267 56.7214 106.267H69.5787C72.3545 106.267 74.6048 108.517 74.6048 111.293Z" fill="#CA6E59"/>
<path d="M58.5416 111.293C58.5416 108.517 60.792 106.267 63.5677 106.267H56.7214C53.9456 106.267 51.6953 108.517 51.6953 111.293C51.6953 114.068 53.9456 116.319 56.7214 116.319H63.5677C60.792 116.319 58.5416 114.068 58.5416 111.293Z" fill="#BB5D4C"/>
<path d="M74.6048 72.0192C74.6048 74.795 72.3545 77.0453 69.5787 77.0453H56.7214C53.9456 77.0453 51.6953 74.795 51.6953 72.0192C51.6953 69.2435 53.9456 66.9932 56.7214 66.9932H69.5787C72.3545 66.9932 74.6048 69.2435 74.6048 72.0192Z" fill="#CA6E59"/>
<path d="M58.5416 72.0192C58.5416 69.2435 60.792 66.9932 63.5677 66.9932H56.7214C53.9456 66.9932 51.6953 69.2435 51.6953 72.0192C51.6953 74.795 53.9456 77.0453 56.7214 77.0453H63.5677C60.792 77.0453 58.5416 74.7952 58.5416 72.0192Z" fill="#BB5D4C"/>
<path d="M96.5327 75.8764C104.48 75.8764 110.923 69.4338 110.923 61.4863C110.923 53.5389 104.48 47.0962 96.5327 47.0962C88.5853 47.0962 82.1426 53.5389 82.1426 61.4863C82.1426 69.4338 88.5853 75.8764 96.5327 75.8764Z" fill="#4FC123"/>
<path d="M89.0389 61.4863C89.0389 54.7278 93.6993 49.0602 99.9809 47.515C98.8526 47.2369 97.6948 47.0963 96.5327 47.0962C88.5853 47.0962 82.1426 53.5389 82.1426 61.4863C82.1426 69.4337 88.5853 75.8764 96.5327 75.8764C97.7217 75.8764 98.8759 75.7294 99.9809 75.4577C93.6993 73.9122 89.0389 68.2449 89.0389 61.4863Z" fill="#47A920"/>
<path d="M134.226 84.9749H131.75V58.3535C131.75 58.1476 131.709 57.9437 131.628 57.754C131.548 57.5643 131.43 57.3927 131.283 57.2493C131.135 57.1059 130.96 56.9937 130.768 56.9192C130.576 56.8448 130.371 56.8097 130.165 56.816C129.323 56.8413 128.674 57.5757 128.674 58.4179V84.9747H118.365C117.515 84.9747 116.827 85.6634 116.827 86.5128C116.827 87.3622 117.515 88.0509 118.365 88.0509H134.226C136.214 88.0509 137.831 89.6681 137.831 91.6557C137.831 93.6434 136.214 95.2606 134.226 95.2606H102.803V88.0509H111.187C112.037 88.0509 112.725 87.3622 112.725 86.5128C112.725 85.6634 112.037 84.9747 111.187 84.9747H102.434C101.321 84.9747 100.364 85.6496 99.9484 86.611H89.068C88.6954 85.655 87.767 84.9747 86.6807 84.9747H82.186C81.0997 84.9747 80.1713 85.6552 79.7987 86.611H73.2058V85.2907C73.2058 83.9891 72.5069 82.8505 71.467 82.2213V78.305C74.1687 77.4918 76.1426 74.9821 76.1426 72.0189C76.1426 68.3995 73.198 65.4548 69.5784 65.4548H64.3912V39.0762H128.674V51.1758C128.674 51.3817 128.715 51.5856 128.795 51.7753C128.875 51.965 128.993 52.1366 129.141 52.28C129.289 52.4234 129.464 52.5356 129.656 52.61C129.848 52.6845 130.053 52.7196 130.259 52.7133C131.101 52.688 131.75 51.9536 131.75 51.1114V38.5635C131.75 37.1476 130.602 36 129.186 36H63.8785C62.4626 36 61.315 37.1476 61.315 38.5635V65.455H56.721C53.1016 65.455 50.1569 68.3997 50.1569 72.0191C50.1569 74.9821 52.1308 77.4916 54.8323 78.305V82.2213C53.7923 82.8505 53.0934 83.9891 53.0934 85.2907V98.0205C53.0934 99.3222 53.7923 100.461 54.8323 101.09V105.006C52.1308 105.82 50.1569 108.329 50.1569 111.292C50.1569 114.912 53.1014 117.857 56.721 117.857H61.315V123.196H49.2935C47.3147 123.196 45.7047 124.806 45.7047 126.785V129.333H45.6807C43.7019 129.333 42.0918 130.943 42.0918 132.922V138.437C42.0918 139.85 43.2417 141 44.6553 141H129.186C130.602 141 131.75 139.852 131.75 138.437V98.337H134.226C137.91 98.337 140.907 95.34 140.907 91.6559C140.907 87.9719 137.91 84.9749 134.226 84.9749ZM89.2442 89.6874H99.7267V93.6243H89.2442V89.6874ZM82.6987 88.0511H86.168V95.2608H82.6987V88.0511ZM73.2058 89.6874H79.6225V93.6243H73.2058V89.6874ZM53.2331 72.0191C53.2331 70.0959 54.7978 68.5311 56.721 68.5311H69.5784C71.5016 68.5311 73.0664 70.0959 73.0664 72.0191C73.0664 73.9423 71.5016 75.5071 69.5784 75.5071H56.721C54.7978 75.5073 53.2331 73.9425 53.2331 72.0191ZM56.6825 98.5334C56.5466 98.5333 56.4163 98.4792 56.3201 98.3831C56.224 98.287 56.17 98.1567 56.1698 98.0207V85.2909C56.1698 85.0083 56.3997 84.7782 56.6825 84.7782H69.617C69.8998 84.7782 70.1297 85.0083 70.1297 85.2909V98.0207C70.1297 98.3033 69.8998 98.5334 69.617 98.5334H56.6825ZM68.3908 101.61V104.728H57.9084V101.61H68.3908ZM57.9084 81.7021V78.5832H68.3908V81.7021H57.9084ZM56.721 114.781C54.7978 114.781 53.2331 113.216 53.2331 111.293C53.2331 109.369 54.7978 107.805 56.721 107.805H69.5784C71.5016 107.805 73.0664 109.369 73.0664 111.293C73.0664 113.216 71.5016 114.781 69.5784 114.781H56.721ZM81.1315 137.924H45.168V132.922C45.168 132.639 45.3979 132.409 45.6807 132.409H55.2008C56.0504 132.409 56.7389 131.72 56.7389 130.871C56.7389 130.021 56.0504 129.333 55.2008 129.333H48.7808V126.785C48.7808 126.502 49.0107 126.272 49.2935 126.272H77.0057C77.2885 126.272 77.5184 126.502 77.5184 126.785V129.333H62.3785C61.5289 129.333 60.8404 130.021 60.8404 130.871C60.8404 131.72 61.5289 132.409 62.3785 132.409H80.6188C80.9016 132.409 81.1315 132.639 81.1315 132.922V137.924ZM128.674 137.924H84.2077V132.922C84.2077 130.943 82.5976 129.333 80.6188 129.333H80.5946V126.785C80.5946 124.806 78.9845 123.196 77.0057 123.196H64.3912V117.857H69.5784C73.1978 117.857 76.1426 114.912 76.1426 111.292C76.1426 108.329 74.1687 105.82 71.467 105.006V101.09C72.5069 100.461 73.2058 99.3222 73.2058 98.0205V96.7003H79.7987C80.1713 97.6563 81.0997 98.3366 82.186 98.3366H86.6807C87.767 98.3366 88.6954 97.6561 89.068 96.7003H99.9484C100.364 97.6617 101.321 98.3366 102.434 98.3366H128.674V137.924H128.674Z" fill="black"/>
<path d="M80.6045 61.4863C80.6045 70.2692 87.7498 77.4145 96.5327 77.4145C105.316 77.4145 112.461 70.2692 112.461 61.4863C112.461 52.7034 105.316 45.5581 96.5327 45.5581C87.7498 45.5581 80.6045 52.7034 80.6045 61.4863ZM109.385 61.4863C109.385 68.573 103.619 74.3384 96.5327 74.3384C89.446 74.3384 83.6807 68.573 83.6807 61.4863C83.6807 54.3996 89.446 48.6343 96.5327 48.6343C103.619 48.6343 109.385 54.3996 109.385 61.4863Z" fill="black"/>
<path d="M92.1446 59.7983C91.8557 59.5119 91.4652 59.3516 91.0584 59.3525C90.6517 59.3534 90.2618 59.5153 89.9742 59.8029C89.6866 60.0905 89.5246 60.4804 89.5237 60.8871C89.5227 61.2939 89.683 61.6844 89.9693 61.9733L94.7003 66.7043C95.0007 67.0045 95.3945 67.1548 95.788 67.1548C96.1816 67.1548 96.5753 67.0047 96.8758 66.7043L104.209 59.3711C104.495 59.0822 104.656 58.6916 104.655 58.2849C104.654 57.8781 104.492 57.4883 104.204 57.2007C103.916 56.9131 103.527 56.7511 103.12 56.7502C102.713 56.7494 102.323 56.9097 102.034 57.196L95.7882 63.4417L92.1446 59.7983ZM88.9729 104.613C88.9729 105.021 89.1349 105.412 89.4234 105.7C89.7118 105.989 90.103 106.151 90.5109 106.151H118.797C119.647 106.151 120.335 105.462 120.335 104.613C120.335 103.763 119.647 103.075 118.797 103.075H90.5109C90.103 103.075 89.7118 103.237 89.4234 103.525C89.1349 103.814 88.9729 104.205 88.9729 104.613ZM118.797 110.555H104.214C103.364 110.555 102.676 111.244 102.676 112.093C102.676 112.943 103.364 113.631 104.214 113.631H118.797C119.647 113.631 120.335 112.943 120.335 112.093C120.335 111.244 119.647 110.555 118.797 110.555ZM90.5109 113.631H98.882C99.7317 113.631 100.42 112.943 100.42 112.093C100.42 111.244 99.7317 110.555 98.882 110.555H90.5109C89.6613 110.555 88.9729 111.244 88.9729 112.093C88.9729 112.943 89.6613 113.631 90.5109 113.631ZM118.797 118.036H90.5107C89.6611 118.036 88.9727 118.725 88.9727 119.574C88.9727 120.423 89.6611 121.112 90.5107 121.112H118.797C119.647 121.112 120.335 120.423 120.335 119.574C120.335 118.725 119.647 118.036 118.797 118.036ZM118.797 125.517H111.392C110.542 125.517 109.854 126.205 109.854 127.055C109.854 127.904 110.542 128.593 111.392 128.593H118.797C119.647 128.593 120.335 127.904 120.335 127.055C120.335 126.205 119.647 125.517 118.797 125.517ZM106.675 125.517H90.5109C89.6613 125.517 88.9729 126.205 88.9729 127.055C88.9729 127.904 89.6613 128.593 90.5109 128.593H106.675C107.525 128.593 108.213 127.904 108.213 127.055C108.213 126.205 107.525 125.517 106.675 125.517Z" fill="black"/>
<defs>
<filter id="filter0_d_530_1504" x="0" y="0.5" width="182" height="182" filterUnits="userSpaceOnUse" color-interpolation-filters="sRGB">
<feFlood flood-opacity="0" result="BackgroundImageFix"/>
<feColorMatrix in="SourceAlpha" type="matrix" values="0 0 0 0 0 0 0 0 0 0 0 0 0 0 0 0 0 0 127 0" result="hardAlpha"/>
<feOffset dy="3.5"/>
<feGaussianBlur stdDeviation="10.5"/>
<feComposite in2="hardAlpha" operator="out"/>
<feColorMatrix type="matrix" values="0 0 0 0 0 0 0 0 0 0 0 0 0 0 0 0 0 0 0.06 0"/>
<feBlend mode="normal" in2="BackgroundImageFix" result="effect1_dropShadow_530_1504"/>
<feBlend mode="normal" in="SourceGraphic" in2="effect1_dropShadow_530_1504" result="shape"/>
</filter>
</defs>
</svg>
