<svg width="182" height="183" viewBox="0 0 182 183" fill="none" xmlns="http://www.w3.org/2000/svg">
<g filter="url(#filter0_d_530_1565)">
<circle cx="91" cy="88" r="70" fill="white"/>
</g>
<path d="M136.449 79.5324H46.5511C44.7032 79.5324 43.2051 78.0343 43.2051 76.1864V67.3834C43.2051 65.5354 44.7032 64.0374 46.5511 64.0374H136.449C138.297 64.0374 139.795 65.5354 139.795 67.3834V76.1864C139.795 78.0343 138.297 79.5324 136.449 79.5324Z" fill="#DFF6FD"/>
<path d="M136.449 64.0374H129.645C131.492 64.0374 132.991 65.5354 132.991 67.3834V76.1864C132.991 78.0343 131.492 79.5324 129.645 79.5324H136.449C138.297 79.5324 139.795 78.0343 139.795 76.1864V67.3834C139.795 65.5354 138.297 64.0374 136.449 64.0374Z" fill="#C8EFFE"/>
<path d="M47.5059 79.5325H135.496V131.788H47.5059V79.5325Z" fill="#FFC344"/>
<path d="M128.691 79.5325H135.496V131.788H128.691V79.5325Z" fill="#FEB137"/>
<path d="M68.334 90.2014H114.667V131.788H68.334V90.2014Z" fill="#E19974"/>
<path d="M81.3523 95.9443C85.3709 95.9443 88.6285 99.202 88.6285 103.221V126.046H74.0762V103.221C74.0762 99.202 77.3338 95.9443 81.3523 95.9443ZM108.923 103.221V126.046H94.3707V103.221C94.3707 99.202 97.6284 95.9443 101.647 95.9443C105.665 95.9443 108.923 99.202 108.923 103.221Z" fill="#FEF48B"/>
<path d="M81.3534 95.9443C80.1673 95.943 78.999 96.2329 77.9512 96.7886C80.255 98.0099 81.8251 100.431 81.8251 103.221V126.046H88.6296V103.221C88.6296 99.202 85.3719 95.9443 81.3534 95.9443ZM101.648 95.9443C100.462 95.943 99.2936 96.2329 98.2457 96.7886C100.55 98.0099 102.12 100.431 102.12 103.221V126.046H108.924V103.221C108.924 99.202 105.666 95.9443 101.648 95.9443Z" fill="#FCE859"/>
<path d="M68.334 131.789H60.6319L60.6319 79.5326H68.334V131.789Z" fill="#AE6C6C"/>
<path d="M122.369 131.789H114.667V79.5326H122.369V131.789Z" fill="#9B5E5E"/>
<path d="M135.959 139.462H47.0417C44.9228 139.462 43.2051 137.744 43.2051 135.625C43.2051 133.507 44.9228 131.789 47.0417 131.789H135.958C138.077 131.789 139.795 133.507 139.795 135.625C139.795 137.744 138.077 139.462 135.959 139.462Z" fill="#678D98"/>
<path d="M135.959 131.789H129.154C131.273 131.789 132.991 133.506 132.991 135.625C132.991 137.744 131.273 139.462 129.154 139.462H135.959C138.077 139.462 139.795 137.744 139.795 135.625C139.795 133.506 138.077 131.789 135.959 131.789Z" fill="#537983"/>
<path d="M109.44 55.3717C109.44 45.5224 101.456 37.5381 91.6069 37.5381H91.3924C81.5433 37.5381 73.5588 45.5224 73.5588 55.3715H63.7128C62.0106 55.3715 60.6309 56.7512 60.6309 58.4534V64.0373H122.368V58.4534C122.368 56.7512 120.988 55.3715 119.286 55.3715L109.44 55.3717Z" fill="#FE646F"/>
<path d="M106.108 55.3717H109.44C109.44 45.5226 101.456 37.5383 91.607 37.5383H91.3924C90.2666 37.5383 89.1655 37.6437 88.0977 37.8433C95.3437 39.197 101.048 44.9316 102.354 52.194C102.683 54.0244 104.249 55.3717 106.108 55.3717ZM119.286 55.3717H112.482C114.184 55.3717 115.564 56.7515 115.564 58.4536V64.0375H122.368V58.4536C122.368 56.7515 120.988 55.3717 119.286 55.3717Z" fill="#FD4755"/>
<path d="M91.5006 64.0375C95.5946 64.0375 98.9134 58.1054 98.9134 50.7878C98.9134 43.4702 95.5946 37.5381 91.5006 37.5381C87.4067 37.5381 84.0879 43.4702 84.0879 50.7878C84.0879 58.1054 87.4067 64.0375 91.5006 64.0375Z" fill="#AE6C6C"/>
<path d="M91.4999 37.5381C90.2731 37.5381 89.1169 38.0742 88.0977 39.0171C90.4794 41.2211 92.1082 45.6631 92.1082 50.7876C92.1082 55.9123 90.4794 60.3543 88.0977 62.5582C89.1169 63.5014 90.2729 64.0373 91.4999 64.0373C95.5939 64.0373 98.9127 58.1052 98.9127 50.7876C98.9127 43.4702 95.5939 37.5381 91.4999 37.5381Z" fill="#9B5E5E"/>
<path d="M129.551 64.0374H136.449C138.297 64.0374 139.795 65.5354 139.795 67.3834V76.1864C139.795 78.0343 138.297 79.5324 136.449 79.5324H46.5511C44.7032 79.5324 43.2051 78.0343 43.2051 76.1864V67.3834C43.2051 65.5354 44.7032 64.0374 46.5511 64.0374H122.369M47.5054 131.788H135.495V79.5324H47.5054V124.576" stroke="black" stroke-width="3.07617" stroke-miterlimit="10" stroke-linecap="round" stroke-linejoin="round"/>
<path d="M68.334 90.2014H114.667V131.788H68.334V90.2014Z" stroke="black" stroke-width="3.07617" stroke-miterlimit="10" stroke-linecap="round" stroke-linejoin="round"/>
<path d="M81.3523 95.9443C85.3709 95.9443 88.6285 99.202 88.6285 103.221V126.046H74.0762V103.221C74.0762 99.202 77.3338 95.9443 81.3523 95.9443ZM108.923 103.221V126.046H94.3707V103.221C94.3707 99.202 97.6284 95.9443 101.647 95.9443C105.665 95.9443 108.923 99.202 108.923 103.221Z" stroke="black" stroke-width="3.07617" stroke-miterlimit="10" stroke-linecap="round" stroke-linejoin="round"/>
<path d="M68.334 131.789H60.6319L60.6319 79.5326H68.334V131.789Z" stroke="black" stroke-width="3.07617" stroke-miterlimit="10" stroke-linecap="round" stroke-linejoin="round"/>
<path d="M122.369 131.789H114.667V79.5326H122.369V131.789Z" stroke="black" stroke-width="3.07617" stroke-miterlimit="10" stroke-linecap="round" stroke-linejoin="round"/>
<path d="M43.2051 71.7849H139.795M135.959 139.462H47.0417C44.9228 139.462 43.2051 137.744 43.2051 135.625C43.2051 133.506 44.9228 131.789 47.0417 131.789H135.958C138.077 131.789 139.795 133.506 139.795 135.625C139.795 137.744 138.077 139.462 135.959 139.462ZM109.441 55.3717C109.441 45.5224 101.457 37.5381 91.6076 37.5381H91.3931C81.544 37.5381 73.5595 45.5224 73.5595 55.3715H63.7135C62.0114 55.3715 60.6316 56.7512 60.6316 58.4534V64.0373H122.369V58.4534C122.369 56.7512 120.989 55.3715 119.287 55.3715L109.441 55.3717Z" stroke="black" stroke-width="3.07617" stroke-miterlimit="10" stroke-linecap="round" stroke-linejoin="round"/>
<path d="M91.5006 64.0375C95.5946 64.0375 98.9134 58.1054 98.9134 50.7878C98.9134 43.4702 95.5946 37.5381 91.5006 37.5381C87.4067 37.5381 84.0879 43.4702 84.0879 50.7878C84.0879 58.1054 87.4067 64.0375 91.5006 64.0375Z" stroke="black" stroke-width="3.07617" stroke-miterlimit="10" stroke-linecap="round" stroke-linejoin="round"/>
<defs>
<filter id="filter0_d_530_1565" x="0" y="0.5" width="182" height="182" filterUnits="userSpaceOnUse" color-interpolation-filters="sRGB">
<feFlood flood-opacity="0" result="BackgroundImageFix"/>
<feColorMatrix in="SourceAlpha" type="matrix" values="0 0 0 0 0 0 0 0 0 0 0 0 0 0 0 0 0 0 127 0" result="hardAlpha"/>
<feOffset dy="3.5"/>
<feGaussianBlur stdDeviation="10.5"/>
<feComposite in2="hardAlpha" operator="out"/>
<feColorMatrix type="matrix" values="0 0 0 0 0 0 0 0 0 0 0 0 0 0 0 0 0 0 0.06 0"/>
<feBlend mode="normal" in2="BackgroundImageFix" result="effect1_dropShadow_530_1565"/>
<feBlend mode="normal" in="SourceGraphic" in2="effect1_dropShadow_530_1565" result="shape"/>
</filter>
</defs>
</svg>
