<svg width="106" height="106" viewBox="0 0 106 106" fill="none" xmlns="http://www.w3.org/2000/svg">
<path d="M92.4723 92.4858L80.3824 89.825L76.6354 101.654C76.3659 102.505 75.214 102.629 74.7689 101.856L59.8125 75.8748C67.1798 74.2785 73.735 70.4951 78.7682 65.2369L93.5815 90.9727C94.026 91.7448 93.3423 92.6774 92.4723 92.4858Z" fill="#FD646F"/>
<path d="M92.4723 92.4858L81.2974 90.0262C81.0474 89.9712 80.7858 90.0117 80.5642 90.1397C80.3425 90.2677 80.1767 90.474 80.0994 90.718L76.6354 101.654C76.3659 102.505 75.214 102.629 74.7689 101.856L61.9558 79.5962L59.8125 75.8746C67.1798 74.2783 73.735 70.4949 78.7682 65.2367L80.8952 68.9294L93.5817 90.9725C94.0259 91.7448 93.3423 92.6774 92.4723 92.4858Z" fill="#FD646F"/>
<path d="M92.4735 92.4852L81.2994 90.026C80.7805 89.9132 80.2615 90.2126 80.1016 90.7172L81.3043 86.9798C81.3826 86.7365 81.5489 86.5312 81.7707 86.4041C81.9924 86.2771 82.2536 86.2374 82.5031 86.2929L92.1186 88.4303L93.5831 90.9736C94.0281 91.7447 93.3431 92.678 92.4735 92.4852Z" fill="#FC4755"/>
<path d="M46.232 75.5631L31.0391 101.951C30.594 102.724 29.4422 102.599 29.1727 101.749L25.7084 90.8128C25.6311 90.5687 25.4653 90.3624 25.2437 90.2344C25.022 90.1064 24.7604 90.0659 24.5104 90.1209L13.3357 92.5803C12.4657 92.7719 11.7821 91.8393 12.2265 91.0673L26.3568 66.5184C31.6321 71.5196 38.7477 74.3308 46.232 75.5631Z" fill="#FD646F"/>
<path d="M28.3561 70.17L15.7648 92.0446L13.3359 92.5797C12.4659 92.7715 11.782 91.8389 12.2265 91.0667L24.2542 70.17L27.5068 64.5046C28.3826 65.3337 29.2973 66.1217 30.2511 66.8623L28.3561 70.17ZM32.5208 99.3746L31.0378 101.951C30.5928 102.724 29.4421 102.601 29.1714 101.75L25.7072 90.8136C25.63 90.5694 25.4644 90.3629 25.2427 90.2346C25.0211 90.1064 24.7595 90.0656 24.5094 90.1203L28.3407 89.2776C28.5907 89.2226 28.8521 89.2631 29.0738 89.391C29.2954 89.519 29.4612 89.7252 29.5385 89.9692L32.5208 99.3746Z" fill="#FC4755"/>
<path d="M26.6981 65.8938L36.6906 70.3999L46.2314 75.563L43.6732 80.0035C36.5397 78.5553 29.9209 75.2349 24.4508 70.3448C24.3852 70.2871 24.3195 70.2295 24.2539 70.1698L26.6981 65.8938ZM80.8955 68.9295L78.7686 65.2368L67.5137 70.2045L59.8128 75.8748L60.6784 77.3776L62.8039 81.0691L74.7693 101.856C75.2143 102.629 76.3662 102.505 76.6357 101.654L77.3977 99.2485L65.5047 78.5327C71.2622 76.5291 76.5036 73.2698 80.8955 68.9295Z" fill="#FC4755"/>
<path d="M90.1285 39.3794C90.1285 49.4145 86.1802 58.5281 79.7543 65.2369C74.721 70.4951 68.1659 74.2785 60.7985 75.8748C58.2045 76.4357 55.558 76.7177 52.9041 76.7161C50.8366 76.7161 48.8102 76.5473 46.835 76.2225C39.7343 75.054 33.3084 71.8693 28.1644 67.2735C27.8858 67.0267 27.6116 66.775 27.3419 66.5186C26.3819 65.608 25.47 64.6481 24.6099 63.6426C23.7854 62.6757 23.0101 61.6656 22.2861 60.6165C20.0856 57.4334 18.3944 53.9269 17.2733 50.2232C16.2376 46.7918 15.6797 43.1525 15.6797 39.3796C15.6797 18.7598 32.3465 2.04279 52.9041 2.04279C56.6636 2.04279 60.294 2.60231 63.7131 3.64342C67.4521 4.77703 70.9389 6.48658 74.077 8.6693C75.123 9.39557 76.1301 10.1731 77.092 11.0022C78.3796 12.1054 79.5905 13.2952 80.7162 14.5632C86.5719 21.1604 90.1285 29.8543 90.1285 39.3794Z" fill="#FAA515"/>
<path d="M52.9041 66.1217C67.6291 66.1217 79.566 54.1487 79.566 39.3792C79.566 24.6097 67.6291 12.6366 52.9041 12.6366C38.1791 12.6366 26.2422 24.6097 26.2422 39.3792C26.2422 54.1487 38.1791 66.1217 52.9041 66.1217Z" fill="#FAD207"/>
<path d="M79.5652 39.3794C79.5652 54.1483 67.6281 66.1215 52.9037 66.1215C38.1793 66.1215 26.2422 54.1483 26.2422 39.3794C26.2422 38.2642 26.3099 37.1657 26.4432 36.0878C28.0594 49.3056 39.2909 59.5382 52.9037 59.5382C66.5165 59.5382 77.748 49.3056 79.3642 36.0878C79.4975 37.1657 79.5652 38.2642 79.5652 39.3794Z" fill="#FAA515"/>
<path fill-rule="evenodd" clip-rule="evenodd" d="M52.9037 12.6373C38.1793 12.6373 26.2422 24.6104 26.2422 39.3794C26.2422 54.1483 38.1793 66.1215 52.9037 66.1215C67.6281 66.1215 79.5652 54.1483 79.5652 39.3794C79.5652 24.6104 67.6281 12.6373 52.9037 12.6373ZM52.9037 63.0355C39.898 63.0355 29.3188 52.4242 29.3188 39.3794C29.3188 26.3345 39.898 15.7233 52.9037 15.7233C65.9094 15.7233 76.4886 26.3345 76.4886 39.3794C76.4886 52.4242 65.9094 63.0355 52.9037 63.0355Z" fill="#FAF063"/>
<path d="M53.8256 24.5911L57.4881 32.0727C57.5615 32.2228 57.6706 32.3527 57.8057 32.4511C57.9408 32.5494 58.098 32.6132 58.2634 32.637L66.4944 33.8196C67.3368 33.9406 67.6738 34.9758 67.064 35.5693L61.094 41.3826C60.9746 41.4988 60.8854 41.6424 60.8339 41.8009C60.7825 41.9594 60.7705 42.1281 60.7989 42.2923L62.2215 50.5118C62.3669 51.3515 61.4839 51.9918 60.7308 51.5929L53.3846 47.7C53.2367 47.6217 53.0718 47.5807 52.9044 47.5807C52.737 47.5807 52.5722 47.6217 52.4243 47.7L45.0781 51.5929C44.3249 51.992 43.4419 51.3517 43.5874 50.5118L45.01 42.2923C45.0384 42.1281 45.0263 41.9594 44.9749 41.8009C44.9235 41.6424 44.8342 41.4988 44.7148 41.3826L38.7448 35.5693C38.1351 34.9756 38.4721 33.9406 39.3144 33.8196L47.5455 32.637C47.7109 32.6132 47.868 32.5494 48.0031 32.451C48.1382 32.3527 48.2473 32.2228 48.3208 32.0727L51.9833 24.5911C52.3584 23.8249 53.4504 23.8249 53.8256 24.5911Z" fill="#FAA515"/>
<path d="M78.7174 46.2791C78.9155 46.3195 79.1197 46.3204 79.3182 46.2818C79.5167 46.2433 79.7057 46.1659 79.8743 46.0543C80.0429 45.9427 80.1879 45.7989 80.3009 45.6312C80.4139 45.4635 80.4928 45.2751 80.533 45.0769C80.9144 43.2011 81.1063 41.2917 81.1058 39.3775C81.1058 23.7801 68.4546 11.0905 52.904 11.0905C37.3534 11.0905 24.7021 23.7801 24.7021 39.3775C24.7021 54.9749 37.3534 67.6645 52.904 67.6645C63.5034 67.6645 73.1111 61.7919 77.9776 52.3387C78.3673 51.5814 78.0715 50.6507 77.3165 50.2597C76.5617 49.8686 75.6336 50.1658 75.2439 50.9226C70.9076 59.3458 62.3476 64.5785 52.9042 64.5785C39.05 64.5785 27.7789 53.2733 27.7789 39.3773C27.7789 25.4813 39.05 14.1761 52.9042 14.1761C66.7584 14.1761 78.0295 25.4813 78.0295 39.3773C78.0295 41.0885 77.8578 42.7978 77.519 44.4579C77.3485 45.2929 77.8853 46.1082 78.7174 46.2791Z" fill="#252525"/>
<path d="M70.019 33.6391C69.9306 33.3651 69.767 33.1214 69.547 32.9357C69.3269 32.75 69.0592 32.6298 68.7743 32.5886L58.7488 31.1481L54.2849 22.0294C53.775 20.8962 52.0328 20.8964 51.5231 22.0294L47.0593 31.1479L37.0338 32.5884C35.8003 32.7248 35.2643 34.3875 36.1803 35.2225L43.447 42.2986L41.7146 52.3073C41.4628 53.5223 42.8702 54.5524 43.9489 53.9356L52.9039 49.1901L61.859 53.9356C62.936 54.5524 64.3457 53.5223 64.0932 52.3073L62.3609 42.2986L69.6275 35.2225C69.834 35.0214 69.98 34.7665 70.0492 34.4867C70.1184 34.2069 70.108 33.9133 70.019 33.6391ZM59.6348 40.6527C59.455 40.8279 59.3206 41.0443 59.2432 41.2832C59.1658 41.522 59.1477 41.7762 59.1906 42.0236L60.526 49.7394L53.6224 46.0809C53.401 45.9637 53.1543 45.9024 52.9038 45.9024C52.6533 45.9024 52.4066 45.9637 52.1852 46.0809L45.2816 49.7394L46.6171 42.0236C46.6599 41.7762 46.6419 41.522 46.5645 41.2832C46.4871 41.0443 46.3526 40.8279 46.1728 40.6527L40.5708 35.1975L48.2997 34.0869C48.5479 34.0511 48.7836 33.9551 48.9862 33.8075C49.1889 33.6598 49.3524 33.4648 49.4625 33.2396L52.9037 26.21L56.3449 33.2396C56.4551 33.4648 56.6186 33.6598 56.8212 33.8074C57.0239 33.9551 57.2595 34.051 57.5077 34.0869L65.2366 35.1975L59.6348 40.6527Z" fill="#252525"/>
<path d="M96.0724 92.213L81.0372 66.0926C87.6206 59.1215 91.6647 49.7146 91.6647 39.3773C91.6645 17.9402 74.2768 0.5 52.9041 0.5C46.3282 0.5 39.8318 2.18206 34.1165 5.36446C33.3736 5.77815 33.1058 6.71733 33.5182 7.46247C33.9305 8.2072 34.867 8.47589 35.6097 8.06261C40.8692 5.13392 46.8494 3.586 52.9041 3.586C72.5803 3.586 88.5879 19.6422 88.5879 39.3775C88.5879 59.1131 72.5803 75.1693 52.9041 75.1693C33.2278 75.1693 17.2202 59.1131 17.2202 39.3773C17.2202 28.7898 21.857 18.8035 29.942 11.9793C30.592 11.4306 30.6755 10.4572 30.1285 9.80538C29.9987 9.65037 29.8396 9.52253 29.6603 9.42919C29.481 9.33585 29.2851 9.27885 29.0837 9.26147C28.8823 9.24409 28.6794 9.26666 28.4868 9.3279C28.2942 9.38914 28.1155 9.48784 27.9611 9.61832C19.18 17.0302 14.1437 27.8769 14.1437 39.3773C14.1437 49.7322 18.2012 59.1539 24.8046 66.1287L20.5464 73.5262C19.526 75.2388 22.226 76.8222 23.2107 75.0692L27.0816 68.3444C31.7127 72.5021 37.3424 75.561 43.5607 77.1106L30.2866 100.171L26.8911 89.4523C26.7756 89.0861 26.5273 88.7764 26.195 88.584C25.8627 88.3916 25.4705 88.3304 25.0954 88.4124L14.1426 90.8224L19.621 81.3049C20.0457 80.567 19.7937 79.6233 19.058 79.1973C18.883 79.096 18.6898 79.0303 18.4894 79.0038C18.289 78.9774 18.0853 78.9908 17.8901 79.0433C17.6948 79.0957 17.5119 79.1862 17.3517 79.3095C17.1915 79.4329 17.0573 79.5866 16.9567 79.7619L9.73536 92.3074C9.05031 93.4094 10.1382 94.9068 11.3971 94.5861L24.3837 91.7283L28.4097 104.438C28.7617 105.688 30.5932 105.892 31.2079 104.742L46.7382 77.7611C48.7769 78.0898 50.8385 78.2549 52.9035 78.255C55.0187 78.255 57.0939 78.0815 59.1181 77.753L68.4456 93.9576C68.5803 94.1923 68.7745 94.3872 69.0087 94.5227C69.2429 94.6582 69.5087 94.7294 69.7792 94.7292C70.0489 94.7292 70.3138 94.6578 70.5469 94.5223C71.2826 94.0961 71.5347 93.1526 71.1099 92.4146L62.2942 77.0989C68.5098 75.5415 74.1357 72.4758 78.7616 68.3124L91.6645 90.7283L80.7117 88.3183C79.9352 88.1474 79.1568 88.5983 78.916 89.3582L75.5205 100.077L74.6993 98.6504C74.5986 98.4751 74.4644 98.3214 74.3042 98.1981C74.144 98.0747 73.9611 97.9843 73.7659 97.9318C73.5706 97.8793 73.367 97.8659 73.1666 97.8924C72.9662 97.9188 72.7729 97.9845 72.598 98.0858C71.8623 98.512 71.6102 99.4554 72.035 100.193L74.599 104.648C75.2139 105.798 77.0453 105.594 77.3972 104.344L81.4232 91.6344L94.4098 94.4921C95.67 94.8117 96.757 93.3152 96.0724 92.213Z" fill="#252525"/>
</svg>
