<svg width="106" height="106" viewBox="0 0 106 106" fill="none" xmlns="http://www.w3.org/2000/svg">
<path d="M66.5146 37.8103C63.7198 37.8103 61.4541 35.5446 61.4541 32.7498C61.4541 32.3651 61.497 31.9906 61.5784 31.6305C62.2348 28.7231 66.5146 29.1999 66.5146 32.1805H98.9012C98.9012 29.1999 103.181 28.7231 103.837 31.6305C103.919 31.9906 103.962 32.3651 103.962 32.7498C103.962 35.5446 101.696 37.8103 98.9012 37.8103" fill="#B17A4A"/>
<path d="M87.0988 47.1122H78.3173C71.7989 47.1122 66.5146 41.8279 66.5146 35.3095V18.6638L82.7084 8.70865L98.9012 18.6638V35.3095C98.9012 41.8279 93.6172 47.1122 87.0988 47.1122Z" fill="#C38959"/>
<path d="M98.9026 12.9675V19.9115C98.9026 19.9115 96.5418 16.025 92.8053 16.025C89.0704 16.025 87.5497 20.6403 82.7086 20.6403C77.8692 20.6403 76.3469 16.025 72.612 16.025C68.8772 16.025 66.5146 19.9115 66.5146 19.9115V12.9675C66.5146 8.5167 70.1236 4.90938 74.5744 4.90938H90.8425C95.2935 4.90917 98.9026 8.5167 98.9026 12.9675Z" fill="#365E7D"/>
<path d="M74.5744 4.90918H82.3682C77.9174 4.90918 74.3084 8.5165 74.3084 12.9673V16.3618C73.7875 16.1505 73.2295 16.0248 72.612 16.0248C68.8771 16.0248 66.5146 19.9113 66.5146 19.9113V12.9673C66.5146 8.51671 70.1236 4.90918 74.5744 4.90918Z" fill="#2B4D66"/>
<path d="M86.07 47.1114H78.3183C71.8001 47.1114 66.5156 41.8269 66.5156 35.3104V19.9115C66.5156 19.9115 68.8781 16.025 72.6128 16.025C73.2143 16.025 73.7594 16.1444 74.269 16.346V35.3104C74.2688 41.8267 79.5518 47.1114 86.07 47.1114Z" fill="#B17A4A"/>
<path d="M6.83445 52.0593C4.18546 52.0593 2.03809 49.9119 2.03809 47.2629C2.03809 46.8983 2.07869 46.5433 2.1558 46.2021C2.77801 43.4462 6.83445 43.8982 6.83445 46.7234H37.5318C37.5318 43.8982 41.5882 43.4462 42.2104 46.2021C42.2875 46.5433 42.3281 46.8985 42.3281 47.2629C42.3281 49.9119 40.1808 52.0593 37.5318 52.0593" fill="#FFCBBE"/>
<path d="M26.3445 60.8762H18.021C11.8426 60.8762 6.83398 55.8676 6.83398 49.6892V33.9117H37.5313V49.6892C37.5315 55.8676 32.5229 60.8762 26.3445 60.8762Z" fill="#FFDDCE"/>
<path d="M25.3696 60.876H18.021C11.8432 60.876 6.83398 55.8668 6.83398 49.689V33.9107H14.1825V49.689C14.1825 55.867 19.1908 60.876 25.3696 60.876Z" fill="#FFCBBE"/>
<path d="M32.3093 50.9283C33.6969 50.9283 34.8217 50.2443 34.8217 49.4005C34.8217 48.5567 33.6969 47.8726 32.3093 47.8726C30.9217 47.8726 29.7969 48.5567 29.7969 49.4005C29.7969 50.2443 30.9217 50.9283 32.3093 50.9283Z" fill="#EAA598"/>
<path d="M12.0583 50.9283C13.4459 50.9283 14.5707 50.2442 14.5707 49.4005C14.5707 48.5567 13.4459 47.8726 12.0583 47.8726C10.6707 47.8726 9.5459 48.5567 9.5459 49.4005C9.5459 50.2442 10.6707 50.9283 12.0583 50.9283Z" fill="#EAA598"/>
<path d="M14.49 22.9597H9.74C6.78893 22.9597 4.39648 25.3522 4.39648 28.3033V35.5396C4.39648 37.0109 5.58922 38.2036 7.06045 38.2036H10.3999C14.7989 38.2036 18.3648 34.6377 18.3648 30.2388V26.8347C18.365 24.6945 16.63 22.9597 14.49 22.9597Z" fill="#AA7A63"/>
<path d="M14.4613 22.9591C11.5106 22.9591 9.1182 25.3516 9.1182 28.3033V38.2034H7.06045C5.58922 38.2034 4.39648 37.0107 4.39648 35.5394V28.3035C4.39648 25.3518 6.78893 22.9593 9.73959 22.9593L14.4613 22.9591Z" fill="#986B54"/>
<path d="M30.4376 36.9024H23.0406C19.0357 36.9024 15.7891 33.6558 15.7891 29.651V25.0794C15.7891 21.0745 19.0357 17.8281 23.0406 17.8281H44.6874V22.6525C44.6874 30.5224 38.3077 36.9024 30.4376 36.9024Z" fill="#AA7A63"/>
<path d="M29.4346 36.902H23.0402C19.0348 36.902 15.7891 33.6562 15.7891 29.6508V25.0794C15.7891 21.074 19.0348 17.8283 23.0402 17.8283H29.4346C25.4292 17.8283 22.1834 21.074 22.1834 25.0794V29.6508C22.1834 33.656 25.4292 36.902 29.4346 36.902Z" fill="#986B54"/>
<path d="M60.2674 59.9257H64.6102C73.8413 59.9257 81.3246 67.409 81.3246 76.6402V100.944H43.5527V76.6402C43.5527 67.409 51.0362 59.9257 60.2674 59.9257Z" fill="#DD636E"/>
<path d="M61.5951 59.9253C58.0073 59.9253 55.0999 67.409 55.0999 76.6406V100.944H43.5527V76.6406C43.5527 67.409 51.0364 59.9253 60.2668 59.9253H61.5951Z" fill="#CB5769"/>
<path d="M46.2936 91.6691C43.507 91.6691 41.248 89.4102 41.248 86.6236C41.248 86.2401 41.2909 85.8666 41.3719 85.5075C42.0265 82.6086 46.2936 83.0841 46.2936 86.0559H78.5856C78.5856 83.0841 82.8529 82.6086 83.5073 85.5075C83.5883 85.8666 83.6311 86.2401 83.6311 86.6236C83.6311 89.4102 81.3722 91.6691 78.5856 91.6691" fill="#FFCBBE"/>
<path d="M78.585 80.3074V89.1762C78.585 95.6749 73.3167 100.944 66.817 100.944H58.061C51.5622 100.944 46.293 95.6759 46.293 89.1762V80.4087C48.2968 80.3505 51.0541 80.0086 54.0244 79.405C60.1113 78.1676 67.0984 75.8289 70.3488 72.5784C70.3488 72.5784 73.5645 79.1491 78.585 80.3074Z" fill="#FFDDCE"/>
<path d="M65.7924 100.944H58.061C51.5622 100.944 46.293 95.6759 46.293 89.1762V80.4087C48.2968 80.3504 51.0541 80.0086 54.0244 79.405V89.1762C54.0244 95.6749 59.2927 100.944 65.7924 100.944Z" fill="#FFCBBE"/>
<path d="M71.9507 91.6195C73.4104 91.6195 74.5937 90.9 74.5937 90.0125C74.5937 89.125 73.4104 88.4055 71.9507 88.4055C70.4909 88.4055 69.3076 89.125 69.3076 90.0125C69.3076 90.9 70.4909 91.6195 71.9507 91.6195Z" fill="#EAA598"/>
<path d="M52.9292 91.6195C54.3889 91.6195 55.5722 90.9 55.5722 90.0125C55.5722 89.125 54.3889 88.4055 52.9292 88.4055C51.4695 88.4055 50.2861 89.125 50.2861 90.0125C50.2861 90.9 51.4695 91.6195 52.9292 91.6195Z" fill="#EAA598"/>
<path d="M38.1059 88.6939C26.91 84.3548 18.1786 75.3824 14.1505 64.0775C14.0088 63.6996 13.7242 63.3926 13.3582 63.2226C12.9922 63.0526 12.5741 63.0332 12.1939 63.1687C11.8138 63.3041 11.5021 63.5835 11.326 63.9466C11.1499 64.3097 11.1236 64.7275 11.2527 65.1099C15.5813 77.2581 24.9636 86.8996 36.9941 91.5621C37.1824 91.6353 37.3833 91.6707 37.5853 91.6662C37.7873 91.6617 37.9865 91.6174 38.1713 91.5358C38.3562 91.4542 38.5231 91.3369 38.6625 91.1907C38.802 91.0445 38.9112 90.8722 38.984 90.6837C39.1314 90.3034 39.1217 89.8801 38.957 89.5069C38.7923 89.1338 38.4862 88.8413 38.1059 88.6939ZM30.8157 15.2031C31.0971 15.203 31.373 15.1256 31.6133 14.9791C38.0411 11.0714 45.4364 9.00582 52.9999 9.00582C56.0713 9.00582 59.1333 9.34481 62.101 10.0134C62.499 10.103 62.9163 10.0309 63.2611 9.81285C63.6059 9.59482 63.8499 9.24875 63.9396 8.85078C64.0292 8.45281 63.9571 8.03553 63.739 7.69074C63.521 7.34595 63.1749 7.10189 62.777 7.01226C59.5878 6.29387 56.2983 5.92965 52.9999 5.92965C44.8726 5.92965 36.9246 8.15003 30.0153 12.3504C29.7283 12.5248 29.5063 12.7883 29.383 13.1007C29.2598 13.4131 29.2422 13.7572 29.333 14.0805C29.4237 14.4038 29.6177 14.6886 29.8855 14.8913C30.1532 15.094 30.4799 15.2035 30.8157 15.2031ZM95.7679 48.6977C95.36 48.6977 94.9687 48.8597 94.6803 49.1482C94.3918 49.4366 94.2298 49.8278 94.2298 50.2358C94.2298 60.0026 90.7535 69.4752 84.4412 76.9084C84.3083 77.0621 84.2072 77.2406 84.1437 77.4335C84.0802 77.6265 84.0555 77.8301 84.0711 78.0327C84.0867 78.2352 84.1423 78.4327 84.2347 78.6136C84.327 78.7946 84.4543 78.9555 84.6092 79.087C84.764 79.2184 84.9434 79.3179 85.1369 79.3797C85.3305 79.4415 85.5343 79.4643 85.7367 79.4469C85.9391 79.4294 86.1361 79.3721 86.3162 79.2781C86.4963 79.1841 86.656 79.0554 86.7861 78.8993C93.5701 70.9107 97.3062 60.7312 97.3062 50.2355C97.3061 49.8276 97.1439 49.4365 96.8555 49.1481C96.567 48.8597 96.1758 48.6977 95.7679 48.6977ZM105.5 32.7498C105.5 32.2586 105.445 31.7683 105.338 31.2917C104.869 29.2175 103.067 27.9333 100.953 28.1689C100.776 28.1886 100.606 28.2216 100.44 28.2604V12.9681C100.44 7.6763 96.1344 3.37109 90.8425 3.37109H74.5739C69.282 3.37109 64.9768 7.6763 64.9768 12.9681V28.2602C64.8077 28.2197 64.6364 28.1892 64.4637 28.1687C62.35 27.9325 60.5467 29.2173 60.0785 31.2915C59.9708 31.77 59.9164 32.259 59.9165 32.7496C59.9165 36.071 62.3834 38.8256 65.581 39.2807C67.2754 44.703 72.3443 48.6495 78.3176 48.6495H87.0992C93.0725 48.6495 98.1415 44.703 99.8358 39.2807C103.033 38.8256 105.5 36.071 105.5 32.7498ZM74.5737 6.44727H90.8423C94.438 6.44727 97.3632 9.3725 97.3632 12.9681V16.0745C96.1704 15.2045 94.6336 14.4869 92.8051 14.4869C90.5193 14.4869 88.9105 15.773 87.4909 16.9077C86.0176 18.0852 84.7455 19.1022 82.7085 19.1022C80.6704 19.1022 79.3981 18.085 77.9246 16.9071C76.9868 16.1573 76.0172 15.3821 74.8337 14.9156C74.1147 14.6311 73.367 14.4869 72.6119 14.4869C70.7828 14.4869 69.2453 15.2049 68.0526 16.0755V12.9681C68.0528 9.3727 70.978 6.44727 74.5737 6.44727ZM62.9925 32.7498C62.9925 32.4856 63.0216 32.2231 63.0788 31.9692C63.2497 31.2125 63.8657 31.1977 64.1225 31.226C64.3792 31.2547 64.9766 31.4051 64.9766 32.1805H64.977V35.3093C64.977 35.5144 64.9834 35.7183 64.9926 35.9213C63.8114 35.352 62.9925 34.1464 62.9925 32.7498ZM87.099 45.5737H78.3174C72.6576 45.5737 68.0532 40.9691 68.0532 35.3096V20.3877C68.6461 19.5815 70.3554 17.5631 72.6121 17.5631C72.9835 17.5631 73.3401 17.6328 73.7041 17.7768C74.4584 18.0742 75.2092 18.6744 76.0041 19.31C77.6027 20.5878 79.5923 22.1784 82.7087 22.1784C85.8241 22.1784 87.8135 20.5882 89.4119 19.3106C90.7673 18.2272 91.6561 17.5631 92.8053 17.5631C95.0626 17.5631 96.7724 19.5825 97.3632 20.3858V35.3093C97.3632 40.9691 92.7588 45.5737 87.099 45.5737ZM100.424 35.9211C100.433 35.7181 100.44 35.5144 100.44 35.3093V32.1805C100.44 31.4051 101.037 31.2547 101.294 31.226C101.551 31.1984 102.167 31.2127 102.337 31.9688C102.395 32.2252 102.424 32.4872 102.424 32.75C102.424 34.1464 101.605 35.3518 100.424 35.9211Z" fill="#252525"/>
<path d="M75.114 27.3656C74.2656 27.3656 73.5755 28.5083 73.5755 29.9129C73.5755 31.3175 74.2658 32.4602 75.114 32.4602C75.9624 32.4602 76.6527 31.3175 76.6527 29.9129C76.6527 28.5083 75.9624 27.3656 75.114 27.3656ZM90.3005 27.3656C89.4521 27.3656 88.7618 28.5083 88.7618 29.9129C88.7618 31.3175 89.4521 32.4602 90.3005 32.4602C91.1489 32.4602 91.839 31.3175 91.839 29.9129C91.839 28.5083 91.1487 27.3656 90.3005 27.3656ZM83.7911 37.4988C83.5015 37.7883 83.1166 37.9477 82.7071 37.9477C82.2975 37.9477 81.9126 37.7881 81.623 37.4988C81.3346 37.2104 80.9434 37.0483 80.5355 37.0483C80.1276 37.0483 79.7364 37.2104 79.448 37.4988C79.1595 37.7872 78.9975 38.1784 78.9975 38.5863C78.9975 38.9942 79.1595 39.3854 79.448 39.6738C80.3185 40.5444 81.476 41.0239 82.7071 41.0239C83.9381 41.0239 85.0956 40.5444 85.9662 39.6738C86.2546 39.3854 86.4166 38.9942 86.4166 38.5863C86.4166 38.1784 86.2546 37.7872 85.9662 37.4988C85.6777 37.2104 85.2865 37.0483 84.8786 37.0483C84.4707 37.0483 84.0795 37.2104 83.7911 37.4988ZM14.9851 46.99C15.7901 46.99 16.4449 45.9061 16.4449 44.5742C16.4449 43.2422 15.7901 42.1583 14.9851 42.1583C14.1802 42.1583 13.5254 43.242 13.5254 44.5742C13.5254 45.9063 14.1802 46.99 14.9851 46.99ZM29.3794 46.99C30.1843 46.99 30.8391 45.9061 30.8391 44.5742C30.8391 43.2422 30.1843 42.1583 29.3794 42.1583C28.5744 42.1583 27.9196 43.242 27.9196 44.5742C27.9196 45.9063 28.5744 46.99 29.3794 46.99Z" fill="#252525"/>
<path d="M18.0215 62.4139H26.345C32.0244 62.4139 36.8456 58.6733 38.4772 53.5266C41.5232 53.0689 43.8664 50.4345 43.8664 47.2629C43.8664 46.7908 43.8141 46.32 43.711 45.8633C43.2578 43.856 41.513 42.6128 39.4673 42.8412C39.332 42.8564 39.1997 42.8784 39.0699 42.905V35.8614C43.3751 33.0387 46.2263 28.1738 46.2263 22.6531V17.8277C46.2263 17.4197 46.0642 17.0285 45.7758 16.7401C45.4873 16.4516 45.0961 16.2896 44.6882 16.2896H32.5106C32.1027 16.2896 31.7115 16.4516 31.4231 16.7401C31.1346 17.0285 30.9726 17.4197 30.9726 17.8277C30.9726 18.2356 31.1346 18.6268 31.4231 18.9152C31.7115 19.2037 32.1027 19.3657 32.5106 19.3657H43.1501V22.6531C43.1501 29.6619 37.4471 35.3639 30.4373 35.3639H23.0401C19.8897 35.3639 17.3267 32.8008 17.3267 29.6504V25.0792C17.3267 21.9288 19.8897 19.3657 23.0401 19.3657H26.3583C26.7662 19.3657 27.1574 19.2037 27.4459 18.9152C27.7343 18.6268 27.8964 18.2356 27.8964 17.8277C27.8964 17.4197 27.7343 17.0285 27.4459 16.7401C27.1574 16.4516 26.7662 16.2896 26.3583 16.2896H23.0401C19.4878 16.2896 16.4229 18.4093 15.0384 21.4489C14.856 21.4306 14.6729 21.4214 14.4896 21.4214H9.73918C5.94482 21.4214 2.85758 24.5085 2.85758 28.303V35.5392C2.85758 37.226 3.85897 38.6796 5.29678 39.3479V42.9048C5.16529 42.8773 5.0326 42.856 4.89913 42.8408C2.85368 42.613 1.10888 43.8556 0.655655 45.8627C0.55207 46.3222 0.499865 46.7918 0.5 47.2629C0.5 50.4347 2.84322 53.0691 5.88945 53.5266C7.52106 58.6733 12.3422 62.4139 18.0215 62.4139ZM39.8081 45.8985C40.0842 45.8674 40.568 45.9106 40.7103 46.5411C40.7632 46.7759 40.7903 47.0189 40.7903 47.2631C40.7903 48.5084 40.0877 49.5916 39.0586 50.14C39.0639 49.9901 39.0701 49.8406 39.0701 49.6894V46.7232C39.0701 46.0772 39.5325 45.9291 39.8081 45.8985ZM5.93375 28.3032C5.93375 26.2049 7.64082 24.4978 9.73918 24.4978H14.2718C14.2583 24.6913 14.2512 24.8852 14.2505 25.0792V29.6504C14.2489 31.2362 14.679 32.7924 15.4947 34.1523C14.2878 35.7203 12.4085 36.6649 10.3993 36.6649H7.06045C6.76191 36.6647 6.47564 36.5461 6.26443 36.3351C6.05321 36.1241 5.93429 35.838 5.93375 35.5394V28.3032ZM3.57617 47.2629C3.57617 47.0187 3.60304 46.7759 3.65615 46.5408C3.79868 45.9102 4.28287 45.8684 4.55829 45.8985C4.83392 45.9293 5.29657 46.0774 5.29657 46.7234L5.29678 49.6892C5.29678 49.8404 5.30293 49.9901 5.30826 50.14C4.27897 49.5916 3.57617 48.5082 3.57617 47.2629ZM8.37295 39.7413H10.3993C13.1613 39.7413 15.7576 38.534 17.5428 36.5017C19.0495 37.7129 20.9611 38.4401 23.0401 38.4401H30.4373C32.3354 38.4411 34.2181 38.0982 35.9939 37.4278V49.689C35.9939 55.0091 31.6655 59.3375 26.3452 59.3375H18.0215C12.7013 59.3375 8.37295 55.0091 8.37295 49.689V39.7413Z" fill="#252525"/>
<path d="M22.1831 55.1835C23.3225 55.1835 24.4617 54.7497 25.329 53.8825C25.6174 53.594 25.7794 53.2028 25.7794 52.7949C25.7794 52.387 25.6174 51.9958 25.329 51.7074C25.0405 51.419 24.6493 51.257 24.2414 51.257C23.8335 51.257 23.4423 51.419 23.1539 51.7074C22.8962 51.9644 22.5471 52.1088 22.1832 52.1088C21.8192 52.1088 21.4701 51.9644 21.2124 51.7074C20.9226 51.4255 20.5335 51.269 20.1292 51.2718C19.7249 51.2746 19.338 51.4365 19.0521 51.7224C18.7662 52.0082 18.6044 52.3952 18.6016 52.7994C18.5988 53.2037 18.7553 53.5929 19.0372 53.8827C19.9046 54.7499 21.0439 55.1835 22.1831 55.1835ZM82.8634 82.4113V76.64C82.8634 73.8587 82.2527 71.1872 81.0485 68.6998C80.6783 67.935 79.7585 67.6155 78.9938 67.9857C78.2291 68.3559 77.9094 69.2758 78.2797 70.0404C79.2799 72.1065 79.7873 74.3269 79.7873 76.6402V79.3487C79.571 79.077 79.269 78.8867 78.9306 78.8089C74.6954 77.8317 71.7584 71.9599 71.7301 71.9025C71.6225 71.6826 71.464 71.4915 71.2677 71.3453C71.0714 71.199 70.843 71.1017 70.6015 71.0614C70.3601 71.0212 70.1125 71.0392 69.8793 71.1139C69.6462 71.1887 69.4343 71.318 69.2612 71.4911C64.7193 76.033 51.8655 78.71 46.2488 78.8714C46.0257 78.8777 45.8066 78.9325 45.6068 79.0321C45.4071 79.1316 45.2314 79.2735 45.0921 79.4479V76.6404C45.0921 68.2724 51.8999 61.4646 60.2679 61.4646H64.6115C68.4858 61.4646 72.1723 62.9225 74.9917 65.5699C75.2908 65.8395 75.6836 65.9811 76.0859 65.9644C76.4882 65.9476 76.8679 65.7738 77.1435 65.4803C77.4191 65.1868 77.5686 64.7969 77.56 64.3943C77.5514 63.9918 77.3853 63.6086 77.0974 63.3271C73.7052 60.1423 69.271 58.3882 64.6115 58.3882H60.2679C50.2037 58.3882 42.016 66.576 42.016 76.6402V82.4115C40.9549 82.9178 40.1598 83.8926 39.8717 85.1688C39.7641 85.6463 39.7098 86.1343 39.7099 86.6238C39.7099 88.6217 40.6054 90.4132 42.0151 91.6216V100.944C42.0151 101.352 42.1772 101.744 42.4656 102.032C42.7541 102.32 43.1453 102.482 43.5532 102.482H81.3253C81.7333 102.482 82.1245 102.32 82.4129 102.032C82.7014 101.744 82.8634 101.352 82.8634 100.944V91.6222C84.2735 90.4136 85.1695 88.6219 85.1695 86.6236C85.1695 86.1335 85.1152 85.6441 85.0079 85.1688C84.7196 83.8926 83.9245 82.9176 82.8634 82.4113ZM80.123 89.1762V86.0559H80.1238C80.1238 85.2865 80.7165 85.1372 80.9714 85.1087C81.0224 85.1029 81.0883 85.0995 81.1615 85.1027C81.1779 85.1046 81.1949 85.1048 81.2115 85.106C81.4999 85.1319 81.8793 85.2791 82.0072 85.8461C82.0644 86.0994 82.0934 86.3611 82.0934 86.6238C82.0934 88.012 81.2806 89.2109 80.1078 89.7789C80.1173 89.5782 80.1223 89.3772 80.123 89.1762ZM59.222 79.72C62.5625 78.763 66.894 77.2031 69.9378 74.9462C71.2074 76.9408 73.6698 80.1392 77.0468 81.4394V89.1762C77.0468 94.8171 72.4578 99.4061 66.8169 99.4061H58.0609C52.42 99.4061 47.831 94.8171 47.831 89.1762V81.865C51.1682 81.6074 55.3809 80.8205 59.222 79.72ZM42.7862 86.6236C42.7862 86.3607 42.8152 86.0992 42.8724 85.8464C43.002 85.2721 43.389 85.1288 43.6785 85.1056C43.6912 85.1046 43.7042 85.1046 43.7167 85.1031C43.7905 85.0997 43.8567 85.1031 43.9082 85.1089C44.1609 85.137 44.7451 85.2848 44.7548 86.0377V89.1762C44.7548 89.378 44.7611 89.5784 44.77 89.7779C43.5981 89.2094 42.7862 88.0112 42.7862 86.6236ZM45.0915 93.0952C45.1797 93.1117 45.2683 93.1268 45.3577 93.1395C46.1321 95.6165 47.6132 97.7837 49.5628 99.4063H45.0915V93.0952ZM79.7873 99.4063H75.3151C77.2648 97.784 78.7457 95.6167 79.5202 93.1397C79.6101 93.127 79.6989 93.1119 79.7875 93.0955V99.4063H79.7873Z" fill="#252525"/>
<path d="M53.2176 84.3975H53.6224C53.5825 84.6302 53.5625 84.866 53.5628 85.1021C53.5628 86.5167 54.2625 87.6676 55.1226 87.6676C55.9827 87.6676 56.6824 86.5167 56.6824 85.1021C56.6824 83.6875 55.9827 82.5364 55.1226 82.5364C55.0691 82.5364 53.217 82.5503 53.2174 82.5503C52.9726 82.5506 52.7378 82.648 52.5647 82.8211C52.3916 82.9942 52.2942 83.229 52.2939 83.4738C52.2942 83.7187 52.3915 83.9535 52.5647 84.1267C52.7379 84.2999 52.9727 84.3973 53.2176 84.3975ZM69.6386 87.6676C70.4987 87.6676 71.1985 86.5167 71.1985 85.1021C71.1985 84.8628 71.1784 84.6261 71.1388 84.3975H71.6599C71.9047 84.3972 72.1394 84.2998 72.3126 84.1267C72.4857 83.9536 72.5831 83.7188 72.5834 83.474C72.5831 83.2292 72.4858 82.9946 72.3127 82.8215C72.1397 82.6483 71.9051 82.5509 71.6603 82.5505C71.6603 82.5505 69.692 82.5366 69.6384 82.5366C68.7783 82.5366 68.0786 83.6875 68.0786 85.1023C68.0786 86.5168 68.7783 87.6676 69.6386 87.6676ZM62.4387 94.8985C63.5778 94.8985 64.7174 94.4648 65.5846 93.5977C65.8731 93.3092 66.0352 92.918 66.0352 92.5101C66.0352 92.1021 65.8731 91.7109 65.5846 91.4224C65.2962 91.134 64.905 90.9719 64.497 90.9719C64.0891 90.9719 63.6978 91.134 63.4094 91.4224C63.1517 91.6795 62.8026 91.8238 62.4386 91.8238C62.0747 91.8238 61.7256 91.6795 61.4679 91.4224C61.1795 91.134 60.7883 90.972 60.3804 90.972C59.9725 90.972 59.5813 91.134 59.2929 91.4224C59.0044 91.7109 58.8424 92.1021 58.8424 92.51C58.8424 92.9178 59.0044 93.309 59.2929 93.5975C60.1603 94.4648 61.2993 94.8985 62.4387 94.8985Z" fill="#252525"/>
</svg>
