<svg width="36" height="35" viewBox="0 0 36 35" fill="none" xmlns="http://www.w3.org/2000/svg">
<path d="M8.15233 23.1004H5.65974C5.28519 23.1004 4.98145 23.4042 4.98145 23.7787V26.2713C4.98145 26.6459 5.28519 26.9496 5.65974 26.9496H8.15233C8.52689 26.9496 8.83063 26.6459 8.83063 26.2713V23.7787C8.83063 23.4041 8.52695 23.1004 8.15233 23.1004ZM7.47404 25.593H6.33803V24.457H7.47404V25.593ZM13.6776 23.1004H11.185C10.8104 23.1004 10.5067 23.4042 10.5067 23.7787V26.2713C10.5067 26.6459 10.8104 26.9496 11.185 26.9496H13.6776C14.0521 26.9496 14.3559 26.6459 14.3559 26.2713V23.7787C14.3559 23.4041 14.0522 23.1004 13.6776 23.1004ZM12.9993 25.593H11.8633V24.457H12.9993V25.593ZM8.15233 28.3349H5.65974C5.28519 28.3349 4.98145 28.6386 4.98145 29.0132V31.5058C4.98145 31.8803 5.28519 32.1841 5.65974 32.1841H8.15233C8.52689 32.1841 8.83063 31.8803 8.83063 31.5058V29.0132C8.83063 28.6386 8.52695 28.3349 8.15233 28.3349ZM7.47404 30.8275H6.33803V29.6915H7.47404V30.8275ZM13.6776 28.3349H11.185C10.8104 28.3349 10.5067 28.6386 10.5067 29.0132V31.5058C10.5067 31.8803 10.8104 32.1841 11.185 32.1841H13.6776C14.0521 32.1841 14.3559 31.8803 14.3559 31.5058V29.0132C14.3559 28.6386 14.0522 28.3349 13.6776 28.3349ZM12.9993 30.8275H11.8633V29.6915H12.9993V30.8275ZM11.1204 17.702C10.9928 17.5753 10.8206 17.504 10.6409 17.5032C10.4618 17.5032 10.2875 17.5757 10.1613 17.702C10.0345 17.8281 9.96256 18.0031 9.96256 18.1815C9.96256 18.3599 10.0345 18.5349 10.1613 18.661C10.2875 18.7872 10.4625 18.8598 10.6409 18.8598C10.8192 18.8598 10.9936 18.7872 11.1204 18.661C11.2465 18.5349 11.3191 18.3599 11.3191 18.1815C11.3191 18.0031 11.2466 17.8281 11.1204 17.702Z" fill="#E8494B"/>
<path d="M34.8609 33.5449H34.1826V16.312C34.1826 15.9375 33.8788 15.6337 33.5043 15.6337H30.2571V6.89568C30.2571 6.64465 30.1185 6.41409 29.8967 6.29648L18.5013 0.251934C18.398 0.197107 18.2822 0.169948 18.1652 0.173097C18.0483 0.176246 17.9341 0.209596 17.8338 0.269905C17.7336 0.330214 17.6506 0.415432 17.593 0.517278C17.5354 0.619125 17.5052 0.734137 17.5052 0.851138V7.76973H10.6409C10.2663 7.76973 9.96256 8.07347 9.96256 8.44802V15.4834C9.96256 15.858 10.2663 16.1617 10.6409 16.1617C11.0154 16.1617 11.3191 15.858 11.3191 15.4834V9.12632H20.5439V11.8353H18.1835C17.8089 11.8353 17.5052 12.139 17.5052 12.5136C17.5052 12.8881 17.8089 13.1919 18.1835 13.1919H20.5439V15.6337H18.1835C17.8089 15.6337 17.5052 15.9375 17.5052 16.312C17.5052 16.6866 17.8089 16.9903 18.1835 16.9903H20.5439V19.4322H18.1835C17.8089 19.4322 17.5052 19.7359 17.5052 20.1105C17.5052 20.485 17.8089 20.7888 18.1835 20.7888H20.5439V23.2306H18.1835C17.8089 23.2306 17.5052 23.5344 17.5052 23.9089C17.5052 24.2835 17.8089 24.5872 18.1835 24.5872H20.5439V27.0291H18.1835C17.8089 27.0291 17.5052 27.3328 17.5052 27.7074C17.5052 28.0819 17.8089 28.3856 18.1835 28.3856H20.5439V30.8275H18.1835C17.8089 30.8275 17.5052 31.1312 17.5052 31.5058C17.5052 31.8804 17.8089 32.1841 18.1835 32.1841H20.5439V33.5449H17.0896V21.0643C17.0896 20.6897 16.7859 20.386 16.4113 20.386H2.84543C2.47087 20.386 2.16713 20.6897 2.16713 21.0643V33.5449H1.48884C1.11429 33.5449 0.810547 33.8486 0.810547 34.2232C0.810547 34.5977 1.11429 34.9015 1.48884 34.9015H34.8609C35.2354 34.9015 35.5392 34.5977 35.5392 34.2232C35.5392 33.8486 35.2355 33.5449 34.8609 33.5449ZM15.733 33.5449H3.52372V21.7426H15.733V33.5449ZM24.1438 16.312V33.5449H21.9005V8.44802C21.9005 8.07347 21.5968 7.76973 21.2222 7.76973H18.8618V1.97873L28.9005 7.30374V15.6337H24.8221C24.4476 15.6337 24.1438 15.9375 24.1438 16.312ZM32.826 19.4322H29.1632C28.7887 19.4322 28.4849 19.7359 28.4849 20.1105C28.4849 20.485 28.7887 20.7888 29.1632 20.7888H32.826V23.2306H29.1632C28.7887 23.2306 28.4849 23.5344 28.4849 23.9089C28.4849 24.2835 28.7887 24.5872 29.1632 24.5872H32.826V27.0291H29.1632C28.7887 27.0291 28.4849 27.3328 28.4849 27.7074C28.4849 28.0819 28.7887 28.3856 29.1632 28.3856H32.826V30.8275H30.7685C30.394 30.8275 30.0902 31.1312 30.0902 31.5058C30.0902 31.8804 30.394 32.1841 30.7685 32.1841H32.826V33.5449H25.5004V16.9903H32.826V19.4322Z" fill="#E8494B"/>
<path d="M28.1726 31.0265C28.0453 30.8996 27.8729 30.8281 27.6931 30.8277C27.5147 30.8277 27.3397 30.9002 27.2136 31.0265C27.0874 31.1526 27.0148 31.3276 27.0148 31.506C27.0148 31.6843 27.0874 31.8593 27.2136 31.9855C27.3411 32.1122 27.5134 32.1836 27.6931 32.1842C27.8722 32.1842 28.0465 32.1117 28.1726 31.9855C28.2996 31.8582 28.3711 31.6858 28.3714 31.506C28.3714 31.3269 28.2995 31.1526 28.1726 31.0265ZM24.1436 7.83759C23.7691 7.83759 23.4653 8.14133 23.4653 8.51588V9.78205C23.4653 10.1567 23.7691 10.4603 24.1436 10.4603C24.5182 10.4603 24.8219 10.1566 24.8219 9.78205V8.51588C24.8219 8.14133 24.5182 7.83759 24.1436 7.83759ZM24.1436 11.8352C23.7691 11.8352 23.4653 12.139 23.4653 12.5135V13.9103C23.4653 14.2849 23.7691 14.5886 24.1436 14.5886C24.5182 14.5886 24.8219 14.2848 24.8219 13.9103V12.5135C24.8219 12.139 24.5182 11.8352 24.1436 11.8352ZM26.8568 7.83759C26.4822 7.83759 26.1785 8.14133 26.1785 8.51588V9.78205C26.1785 10.1567 26.4822 10.4603 26.8568 10.4603C27.2314 10.4603 27.5351 10.1566 27.5351 9.78205V8.51588C27.5351 8.14133 27.2314 7.83759 26.8568 7.83759ZM26.8568 11.8352C26.4822 11.8352 26.1785 12.139 26.1785 12.5135V13.9103C26.1785 14.2849 26.4822 14.5886 26.8568 14.5886C27.2314 14.5886 27.5351 14.2848 27.5351 13.9103V12.5135C27.5351 12.139 27.2314 11.8352 26.8568 11.8352Z" fill="#E8494B"/>
</svg>
