<svg width="47" height="47" viewBox="0 0 47 47" fill="none" xmlns="http://www.w3.org/2000/svg">
<path d="M45.8575 45.0369H44.9531V22.0598C44.9531 21.5604 44.5481 21.1554 44.0487 21.1554H39.7191V9.50467C39.7191 9.16995 39.5342 8.86255 39.2385 8.70573L24.0447 0.646336C23.9069 0.573234 23.7525 0.537023 23.5966 0.541221C23.4406 0.54542 23.2884 0.589886 23.1548 0.670298C23.0211 0.75071 22.9105 0.864334 22.8337 1.00013C22.7569 1.13592 22.7165 1.28927 22.7165 1.44528V10.6701H13.5641C13.0647 10.6701 12.6597 11.0751 12.6597 11.5745V20.955C12.6597 21.4544 13.0647 21.8594 13.5641 21.8594C14.0635 21.8594 14.4685 21.4544 14.4685 20.955V12.4788H26.7682V16.0908H23.6209C23.1215 16.0908 22.7165 16.4958 22.7165 16.9952C22.7165 17.4946 23.1215 17.8996 23.6209 17.8996H26.7682V21.1554H23.6209C23.1215 21.1554 22.7165 21.5604 22.7165 22.0598C22.7165 22.5592 23.1215 22.9642 23.6209 22.9642H26.7682V26.22H23.6209C23.1215 26.22 22.7165 26.625 22.7165 27.1244C22.7165 27.6238 23.1215 28.0288 23.6209 28.0288H26.7682V31.2846H23.6209C23.1215 31.2846 22.7165 31.6896 22.7165 32.189C22.7165 32.6884 23.1215 33.0934 23.6209 33.0934H26.7682V36.3492H23.6209C23.1215 36.3492 22.7165 36.7542 22.7165 37.2536C22.7165 37.753 23.1215 38.158 23.6209 38.158H26.7682V41.4138H23.6209C23.1215 41.4138 22.7165 41.8187 22.7165 42.3181C22.7165 42.8176 23.1215 43.2225 23.6209 43.2225H26.7682V45.0369H22.1624V28.3961C22.1624 27.8967 21.7574 27.4917 21.258 27.4917H3.17021C2.6708 27.4917 2.26581 27.8967 2.26581 28.3961V45.0369H1.36142C0.862018 45.0369 0.457031 45.4419 0.457031 45.9413C0.457031 46.4407 0.862018 46.8457 1.36142 46.8457H45.8575C46.3569 46.8457 46.7619 46.4407 46.7619 45.9413C46.7619 45.4419 46.357 45.0369 45.8575 45.0369ZM20.3536 45.0369H4.0746V29.3005H20.3536V45.0369ZM31.5681 22.0598V45.0369H28.577V11.5745C28.577 11.0751 28.172 10.6701 27.6726 10.6701H24.5253V2.94874L37.9103 10.0487V21.1554H32.4725C31.9731 21.1554 31.5681 21.5604 31.5681 22.0598ZM43.1443 26.22H38.2606C37.7612 26.22 37.3562 26.625 37.3562 27.1244C37.3562 27.6238 37.7612 28.0288 38.2606 28.0288H43.1443V31.2846H38.2606C37.7612 31.2846 37.3562 31.6896 37.3562 32.189C37.3562 32.6884 37.7612 33.0934 38.2606 33.0934H43.1443V36.3492H38.2606C37.7612 36.3492 37.3562 36.7542 37.3562 37.2536C37.3562 37.753 37.7612 38.158 38.2606 38.158H43.1443V41.4138H40.401C39.9016 41.4138 39.4966 41.8187 39.4966 42.3181C39.4966 42.8176 39.9016 43.2225 40.401 43.2225H43.1443V45.0369H33.3769V22.9642H43.1443V26.22Z" fill="#E8494B"/>
</svg>
