<svg width="48" height="48" viewBox="0 0 48 48" fill="none" xmlns="http://www.w3.org/2000/svg">
<path d="M22.5036 1.92867C23.3278 2.47513 24.6764 2.47513 25.4993 1.92867L27.6756 0.482665C28.4993 -0.0645533 29.6062 0.171603 30.1359 1.00682L31.5358 3.21454C32.0655 4.04929 33.2967 4.59745 34.2715 4.43254L36.8481 3.99595C37.8232 3.83085 38.7395 4.49582 38.8831 5.4741L39.2652 8.05532C39.4101 9.03379 40.3111 10.037 41.2692 10.2838L43.7976 10.9359C44.756 11.1836 45.3216 12.1656 45.0555 13.118L44.3552 15.6274C44.0893 16.5797 44.5052 17.8625 45.2801 18.4774L47.3326 20.1056C48.1073 20.7205 48.2249 21.8463 47.5944 22.6088L45.9281 24.6202C45.2978 25.3819 45.157 26.7226 45.6147 27.5991L46.8248 29.9125C47.2827 30.7894 46.9336 31.8666 46.0477 32.3062L43.707 33.468C42.8211 33.9079 42.1477 35.0758 42.2094 36.0627L42.3711 38.6684C42.4338 39.6548 41.6751 40.4974 40.6865 40.5396L38.0773 40.65C37.0895 40.6923 35.9991 41.4853 35.6538 42.4126L34.7461 44.858C34.4007 45.7856 33.3664 46.2469 32.4469 45.8831L30.0159 44.9221C29.097 44.558 27.7782 44.8381 27.086 45.5449L25.2604 47.4097C24.5679 48.116 23.4359 48.116 22.743 47.4106L20.9144 45.5446C20.2218 44.8385 18.903 44.5585 17.9835 44.9223L15.5538 45.8833C14.6344 46.2474 13.5999 45.786 13.2553 44.8582L12.3455 42.4128C12.0005 41.4857 10.9102 40.6925 9.92192 40.6502L7.31361 40.5398C6.32501 40.4975 5.56733 39.6549 5.62901 38.6685L5.79223 36.0629C5.85364 35.0762 5.1793 33.9081 4.29364 33.4682L1.95364 32.3064C1.06808 31.8667 0.71792 30.7898 1.17608 29.9127L2.3862 27.5993C2.84408 26.7228 2.70326 25.3822 2.07205 24.6211L0.405639 22.6071C-0.225111 21.8459 -0.106986 20.72 0.667483 20.1051L2.72042 18.4769C3.49489 17.862 3.91133 16.58 3.64564 15.6272L2.94364 13.1168C2.67776 12.1645 3.24364 11.1831 4.20101 10.9369L6.73133 10.2834C7.6887 10.0369 8.59086 9.0337 8.73533 8.05523L9.11717 5.47401C9.26192 4.49573 10.1778 3.83076 11.1526 3.99585L13.7295 4.43245C14.7046 4.59735 15.9356 4.0492 16.4645 3.21445L17.8638 1.00673C18.3927 0.171509 19.5004 -0.064647 20.3247 0.482572L22.5036 1.92867Z" fill="#90DEA9"/>
<path d="M39.5296 24.0896C39.5296 32.6665 32.5761 39.6193 23.9999 39.6193C15.4242 39.6193 8.4707 32.6665 8.4707 24.0896C8.4707 15.5153 15.424 8.56238 23.9999 8.56238C32.5761 8.56238 39.5296 15.5153 39.5296 24.0896Z" fill="#71BF8C"/>
<path d="M21.4108 31.3441L15.1948 25.1278L17.2658 23.0559L21.4108 27.2002L30.7344 17.8755L32.8053 19.9481L21.4108 31.3441Z" fill="white"/>
</svg>
