<svg width="48" height="32" viewBox="0 0 48 32" fill="none" xmlns="http://www.w3.org/2000/svg">
<path d="M44.4052 0H3.59484C1.60941 0 0 1.63763 0 3.65789V28.342C0 30.3622 1.60941 31.9999 3.59484 31.9999H44.4052C46.3905 31.9999 48 30.3623 48 28.342V3.65789C48 1.63763 46.3906 0 44.4052 0Z" fill="#41479B"/>
<path d="M47.9502 3.05328C47.6669 1.32102 46.188 0 44.4052 0H43.4698L28.1379 10.2212V9.53418e-05H19.8621V10.2213L4.53019 9.53418e-05H3.59484C1.812 9.53418e-05 0.333094 1.32102 0.0497813 3.05338L13.154 11.7896H0V20.2106H13.154L0.0497813 28.9466C0.333094 30.6789 1.812 31.9999 3.59484 31.9999H4.53019L19.8621 21.7787V31.9999H28.1379V21.7787L43.4698 31.9999H44.4052C46.188 31.9999 47.6669 30.679 47.9502 28.9466L34.846 20.2104H48V11.7894H34.846L47.9502 3.05328Z" fill="#F5F5F5"/>
<path d="M26.4828 0H21.5172V13.4736H0V18.5262H21.5172V31.9998H26.4828V18.5262H48V13.4736H26.4828V0Z" fill="#FF4B55"/>
<path d="M2.32561 31.7636L19.8178 20.21H16.7776L0.866016 30.7198C1.25875 31.1868 1.7607 31.5458 2.32561 31.7636ZM32.4751 20.21H29.435L46.3771 31.4002C46.8522 31.0826 47.2469 30.6552 47.529 30.153L32.4751 20.21ZM0.380859 2.02187L15.168 11.789H18.2082L1.45205 0.721358C1.00011 1.06383 0.633256 1.50922 0.380859 2.02187ZM31.1793 11.789L47.1201 1.25986C46.723 0.793979 46.2168 0.437642 45.6483 0.223877L28.1392 11.789H31.1793Z" fill="#FF4B55"/>
</svg>
