<svg width="24" height="24" viewBox="0 0 24 24" fill="none" xmlns="http://www.w3.org/2000/svg">
<g clip-path="url(#clip0_565_2679)">
<path d="M15.0385 17.4278H16.9125V21.1758C16.9125 22.7258 15.6515 23.9866 14.1015 23.9866H2.81085C1.26105 23.9866 0 22.7258 0 21.1758V2.81085C0 1.26105 1.26105 0 2.81085 0H14.1015C15.6515 0 16.9125 1.26105 16.9125 2.81085V6.55884H15.0385V2.81085C15.0385 2.29431 14.6182 1.8739 14.1015 1.8739H2.81085C2.29431 1.8739 1.8739 2.29431 1.8739 2.81085V21.1758C1.8739 21.6923 2.29431 22.1127 2.81085 22.1127H14.1015C14.6182 22.1127 15.0385 21.6923 15.0385 21.1758V17.4278ZM19.5829 7.57617L18.2578 8.90131L20.4128 11.0565H8.2923V12.9304H20.4128L18.2578 15.0853L19.5829 16.4105L24 11.9934L19.5829 7.57617Z" fill="#252A47"/>
</g>
<defs>
<clipPath id="clip0_565_2679">
<rect width="24" height="24" fill="white"/>
</clipPath>
</defs>
</svg>
