<svg width="136" height="136" viewBox="0 0 136 136" fill="none" xmlns="http://www.w3.org/2000/svg">
<path d="M67.8964 56.7489C67.9234 56.7861 67.9589 56.8165 67.9999 56.8374C68.0409 56.8583 68.0863 56.8692 68.1323 56.8692C68.1784 56.8692 68.2238 56.8583 68.2648 56.8374C68.3058 56.8165 68.3413 56.7861 68.3683 56.7489C69.3038 55.4658 73.0182 51.0074 79.4542 51.0074C86.1567 51.0074 90.776 57.2525 90.776 64.5253C90.776 72.8787 84.5757 82.7509 68.5078 91.3611C68.3923 91.4226 68.2635 91.4548 68.1326 91.4548C68.0018 91.4548 67.8729 91.4226 67.7574 91.3611C51.6892 82.7509 45.4893 72.8787 45.4893 64.5253C45.4893 57.2525 50.1085 51.0074 56.8111 51.0074C63.2465 51.0074 66.9609 55.4658 67.8964 56.7489Z" fill="#FEE97D"/>
<path d="M79.4536 51.0074C77.8835 51.0074 76.4765 51.274 75.2312 51.694C79.8808 53.5039 82.8653 58.6811 82.8653 64.5253C82.8653 72.2264 77.589 81.2171 64.1768 89.3208C65.3523 90.0317 66.546 90.7121 67.7566 91.3613C67.8721 91.4229 68.001 91.4551 68.1318 91.4551C68.2627 91.4551 68.3916 91.4229 68.507 91.3613C84.5752 82.7511 90.7752 72.879 90.7752 64.5256C90.7755 57.2525 86.1562 51.0074 79.4536 51.0074Z" fill="#FFD15B"/>
<path d="M123.513 58.9065C119.599 35.3018 100.964 16.671 77.3569 12.7718C76.9883 12.7104 76.6535 12.5201 76.4121 12.2349C76.1707 11.9497 76.0384 11.588 76.0388 11.2143V7.02456C76.0388 4.58638 74.0623 2.60963 71.6242 2.60963H64.6398C62.2016 2.60963 60.2251 4.58612 60.2251 7.02456V11.2143C60.2255 11.588 60.0932 11.9497 59.8518 12.2349C59.6104 12.5201 59.2756 12.7104 58.907 12.7718C35.3002 16.6713 16.6649 35.3018 12.7512 58.9065C12.6897 59.2749 12.4994 59.6095 12.2142 59.8507C11.929 60.092 11.5675 60.2242 11.194 60.2238H7.02403C4.58586 60.2238 2.60938 62.2003 2.60938 64.6387V71.6234C2.60938 74.0616 4.58586 76.0383 7.02403 76.0383H11.1842C11.558 76.0379 11.9197 76.1703 12.205 76.4118C12.4902 76.6533 12.6805 76.9882 12.7418 77.3569C16.6365 100.985 35.2844 119.641 58.9067 123.543C59.2753 123.604 59.6101 123.795 59.8515 124.08C60.0929 124.365 60.2252 124.727 60.2248 125.1V129.24C60.2248 131.678 62.2013 133.655 64.6395 133.655H71.6239C74.0621 133.655 76.0386 131.678 76.0386 129.24V125.103C76.0382 124.729 76.1704 124.367 76.4118 124.082C76.6531 123.797 76.9879 123.607 77.3564 123.545C100.981 119.638 119.627 100.985 123.519 77.3572C123.58 76.9885 123.771 76.6535 124.056 76.412C124.341 76.1704 124.703 76.038 125.077 76.0383H129.239C131.678 76.0383 133.654 74.0618 133.654 71.6234V64.6387C133.654 62.2005 131.678 60.2238 129.239 60.2238H125.07C124.696 60.224 124.335 60.0918 124.05 59.8506C123.765 59.6094 123.575 59.2748 123.513 58.9065ZM98.592 91.9074L97.3931 90.7085C95.54 88.8554 92.5357 88.8554 90.6826 90.7085C88.8295 92.5616 88.8295 95.5658 90.6826 97.4189L91.8815 98.6181C92.5275 99.2641 92.4339 100.331 91.6933 100.866C85.0611 105.657 76.9205 108.484 68.1318 108.484C59.3431 108.484 51.2023 105.657 44.5704 100.866C43.8297 100.331 43.7361 99.2641 44.3821 98.6181L45.581 97.4189C47.4341 95.5658 47.4341 92.5616 45.581 90.7085C43.7279 88.8554 40.7237 88.8554 38.8706 90.7085L37.6717 91.9074C37.0257 92.5534 35.9589 92.4598 35.4239 91.7191C30.6329 85.087 27.8061 76.9461 27.8061 68.1572C27.8061 59.3682 30.6329 51.2273 35.4239 44.5952C35.9589 43.8545 37.0257 43.7609 37.6717 44.4069L38.8706 45.6061C40.7237 47.4592 43.7279 47.4592 45.581 45.6061C47.4341 43.753 47.4341 40.7487 45.581 38.8956L44.3821 37.6965C43.7361 37.0505 43.8297 35.9836 44.5704 35.4487C51.2025 30.6577 59.3431 27.8309 68.1318 27.8309C76.9205 27.8309 85.0614 30.6577 91.6933 35.4487C92.4339 35.9836 92.5275 37.0505 91.8815 37.6965L90.6826 38.8956C88.8295 40.7487 88.8295 43.753 90.6826 45.6061C92.5357 47.4592 95.54 47.4592 97.3931 45.6061L98.592 44.4069C99.238 43.7609 100.305 43.8545 100.84 44.5952C105.631 51.2273 108.458 59.3682 108.458 68.1572C108.458 76.9461 105.631 85.087 100.84 91.7191C100.305 92.4598 99.238 92.5534 98.592 91.9074Z" fill="#E8494B"/>
<path d="M129.239 60.2235H125.07C124.696 60.2239 124.335 60.0917 124.049 59.8505C123.764 59.6092 123.574 59.2746 123.512 58.9062C119.598 35.3013 100.963 16.6707 77.3563 12.7716C76.9877 12.7101 76.6529 12.5199 76.4115 12.2346C76.1701 11.9494 76.0378 11.5877 76.0382 11.214V7.0243C76.0382 4.58612 74.0617 2.60938 71.6236 2.60938H64.6392C64.4833 2.60938 64.3296 2.61781 64.178 2.63363C66.3992 2.86461 68.1312 4.74195 68.1312 7.02456V11.2143C68.1308 11.588 68.2631 11.9497 68.5045 12.2349C68.7459 12.5201 69.0807 12.7104 69.4493 12.7718C93.0564 16.671 108.811 35.9641 115.605 58.9065C117.33 64.7307 116.936 71.6956 115.612 77.3569C110.038 101.192 93.0738 119.638 69.4491 123.545C69.0805 123.607 68.7458 123.797 68.5044 124.082C68.2631 124.367 68.1308 124.729 68.1312 125.102V129.24C68.1312 131.522 66.3992 133.399 64.1777 133.63C64.3293 133.646 64.4831 133.654 64.6389 133.654H71.6233C74.0615 133.654 76.038 131.678 76.038 129.239V125.102C76.0375 124.728 76.1698 124.367 76.4111 124.082C76.6525 123.796 76.9872 123.606 77.3558 123.545C100.981 119.638 119.626 100.985 123.518 77.3567C123.58 76.9879 123.77 76.653 124.055 76.4114C124.34 76.1699 124.702 76.0375 125.076 76.0378H129.239C131.677 76.0378 133.653 74.0613 133.653 71.6229V64.6382C133.654 62.2003 131.677 60.2235 129.239 60.2235Z" fill="#CC3133"/>
<path d="M75.3485 87.2312C73.3011 88.6315 71.0256 90.0119 68.5078 91.3611C68.3923 91.4226 68.2635 91.4548 68.1326 91.4548C68.0017 91.4548 67.8729 91.4226 67.7574 91.3611C51.6892 82.7509 45.4893 72.8787 45.4893 64.5253C45.4893 57.2525 50.1085 51.0074 56.8111 51.0074C63.247 51.0074 66.9611 55.4658 67.8969 56.7489C67.9239 56.7861 67.9594 56.8164 68.0004 56.8374C68.0414 56.8583 68.0868 56.8692 68.1329 56.8692C68.1789 56.8692 68.2243 56.8583 68.2653 56.8374C68.3063 56.8164 68.3418 56.7861 68.3689 56.7489C69.3044 55.4658 73.0187 51.0074 79.4547 51.0074C86.1572 51.0074 90.7765 57.2525 90.7765 64.5253C90.7765 69.8138 88.2914 75.7111 82.3904 81.5116" stroke="#252525" stroke-width="3.95508" stroke-miterlimit="10" stroke-linecap="round" stroke-linejoin="round"/>
<path d="M37.4723 21.1189C24.5854 29.5355 15.3703 43.1067 12.7507 58.9065C12.6892 59.2749 12.4988 59.6095 12.2137 59.8507C11.9285 60.092 11.567 60.2242 11.1935 60.2238H7.02403C4.58586 60.2238 2.60938 62.2003 2.60938 64.6387V71.6234C2.60938 74.0616 4.58586 76.0383 7.02403 76.0383H11.1842C11.558 76.0379 11.9197 76.1703 12.205 76.4118C12.4902 76.6533 12.6805 76.9882 12.7418 77.3569C16.6365 100.985 35.2844 119.641 58.9067 123.543C59.2753 123.604 59.6101 123.795 59.8515 124.08C60.0929 124.365 60.2252 124.727 60.2248 125.1V129.24C60.2248 131.678 62.2013 133.655 64.6395 133.655H71.6239C74.0621 133.655 76.0386 131.678 76.0386 129.24V125.103C76.0382 124.729 76.1704 124.367 76.4118 124.082C76.6531 123.797 76.9879 123.607 77.3564 123.545C100.981 119.638 119.627 100.985 123.519 77.3572C123.58 76.9885 123.77 76.6535 124.056 76.412C124.341 76.1704 124.703 76.038 125.077 76.0383H129.239C131.678 76.0383 133.654 74.0618 133.654 71.6234V64.6387C133.654 62.2005 131.678 60.2238 129.239 60.2238H125.07C124.696 60.2242 124.335 60.092 124.05 59.8507C123.765 59.6095 123.574 59.2749 123.513 58.9065C119.599 35.3018 100.964 16.671 77.3566 12.7718C76.9881 12.7104 76.6532 12.5201 76.4118 12.2349C76.1704 11.9497 76.0382 11.588 76.0386 11.2143V7.02456C76.0386 4.58638 74.0621 2.60963 71.6239 2.60963H64.6395C62.2013 2.60963 60.2248 4.58612 60.2248 7.02456V11.2143C60.2252 11.588 60.0929 11.9497 59.8516 12.2349C59.6102 12.5201 59.2753 12.7104 58.9067 12.7718C54.2229 13.5448 49.657 14.9133 45.3203 16.8442" stroke="#252525" stroke-width="3.95508" stroke-miterlimit="10" stroke-linecap="round" stroke-linejoin="round"/>
<path d="M98.5925 91.9074L97.3936 90.7085C95.5405 88.8554 92.5362 88.8554 90.6832 90.7085C88.8301 92.5616 88.8301 95.5658 90.6832 97.4189L91.8821 98.6181C92.5281 99.2641 92.4345 100.331 91.6938 100.866C85.0617 105.657 76.9211 108.484 68.1324 108.484C59.3436 108.484 51.2028 105.657 44.5709 100.866C43.8302 100.331 43.7366 99.2641 44.3826 98.6181L45.5816 97.4189C47.4346 95.5658 47.4346 92.5616 45.5816 90.7085C43.7285 88.8554 40.7242 88.8554 38.8711 90.7085L37.6722 91.9074C37.0262 92.5534 35.9594 92.4598 35.4244 91.7191C30.6335 85.087 27.8066 76.9461 27.8066 68.1571C27.8066 59.3682 30.6335 51.2273 35.4244 44.5952C35.9594 43.8545 37.0262 43.7609 37.6722 44.4069L38.8711 45.6061C40.7242 47.4592 43.7285 47.4592 45.5816 45.6061C47.4346 43.753 47.4346 40.7487 45.5816 38.8956L44.3826 37.6965C43.7366 37.0505 43.8302 35.9836 44.5709 35.4486C51.203 30.6577 59.3436 27.8309 68.1324 27.8309C76.9211 27.8309 85.0619 30.6577 91.6938 35.4486C92.4345 35.9836 92.5281 37.0505 91.8821 37.6965L90.6832 38.8956C88.8301 40.7487 88.8301 43.753 90.6832 45.6061C92.5362 47.4592 95.5405 47.4592 97.3936 45.6061L98.5925 44.4069C99.2385 43.7609 100.305 43.8545 100.84 44.5952C105.631 51.2273 108.458 59.3682 108.458 68.1571C108.458 76.9461 105.631 85.087 100.84 91.7191C100.305 92.4598 99.2385 92.5534 98.5925 91.9074Z" stroke="#252525" stroke-width="3.95508" stroke-miterlimit="10" stroke-linecap="round" stroke-linejoin="round"/>
</svg>
