<svg width="16" height="16" viewBox="0 0 16 16" fill="none" xmlns="http://www.w3.org/2000/svg">
<path d="M5.53308 11.0769C5.36258 11.0766 5.20004 11.0047 5.08512 10.8787C4.96809 10.7538 4.90993 10.5848 4.92527 10.4142L5.07418 8.77633L11.9534 1.89767L14.1032 4.04748L7.22584 10.9255L5.58839 11.0745C5.56955 11.0763 5.55071 11.0769 5.53308 11.0769ZM14.5323 3.61764L12.3831 1.46783L13.6723 0.178312C13.7863 0.0641475 13.941 0 14.1023 0C14.2636 0 14.4183 0.0641475 14.5323 0.178312L15.8215 1.46783C15.9356 1.58187 15.9998 1.73661 15.9998 1.89798C15.9998 2.05934 15.9356 2.21408 15.8215 2.32812L14.5329 3.61703L14.5323 3.61764Z" fill="white"/>
<path d="M14.7692 16H2.10989C0.94463 16 0 15.0554 0 13.8901V1.23077H2.10989V13.8901H14.7692V16Z" fill="white"/>
</svg>
