<svg width="18" height="17" viewBox="0 0 18 17" fill="none" xmlns="http://www.w3.org/2000/svg">
<mask id="mask0_441_1199" style="mask-type:alpha" maskUnits="userSpaceOnUse" x="0" y="0" width="18" height="17">
<path d="M8.99983 14.275L4.84983 16.775C4.66649 16.8916 4.47483 16.9416 4.27483 16.9249C4.07483 16.9083 3.89983 16.8416 3.74983 16.725C3.59983 16.6083 3.48316 16.4626 3.39983 16.288C3.31649 16.1126 3.29983 15.9166 3.34983 15.7L4.44983 10.975L0.774826 7.79995C0.60816 7.64995 0.50416 7.47895 0.462826 7.28695C0.420826 7.09562 0.43316 6.90829 0.499826 6.72495C0.566493 6.54162 0.666493 6.39162 0.799826 6.27495C0.93316 6.15828 1.11649 6.08328 1.34983 6.04995L6.19983 5.62495L8.07483 1.17495C8.15816 0.974952 8.28749 0.824951 8.46283 0.724951C8.63749 0.624951 8.81649 0.574951 8.99983 0.574951C9.18316 0.574951 9.36249 0.624951 9.53783 0.724951C9.71249 0.824951 9.84149 0.974952 9.92483 1.17495L11.7998 5.62495L16.6498 6.04995C16.8832 6.08328 17.0665 6.15828 17.1998 6.27495C17.3332 6.39162 17.4332 6.54162 17.4998 6.72495C17.5665 6.90829 17.5792 7.09562 17.5378 7.28695C17.4958 7.47895 17.3915 7.64995 17.2248 7.79995L13.5498 10.975L14.6498 15.7C14.6998 15.9166 14.6832 16.1126 14.5998 16.288C14.5165 16.4626 14.3998 16.6083 14.2498 16.725C14.0998 16.8416 13.9248 16.9083 13.7248 16.9249C13.5248 16.9416 13.3332 16.8916 13.1498 16.775L8.99983 14.275Z" fill="#FFAA05"/>
</mask>
<g mask="url(#mask0_441_1199)">
<rect width="1" height="17" fill="#FFAA05"/>
</g>
</svg>
