<svg width="48" height="32" viewBox="0 0 48 32" fill="none" xmlns="http://www.w3.org/2000/svg">
<path d="M44.4052 0H32V31.9994H44.4052C46.3905 31.9994 48 30.3618 48 28.3416V3.65785C48 1.63761 46.3906 0 44.4052 0Z" fill="#FF4B55"/>
<path d="M16 0H32.0003V31.9996H16V0Z" fill="#41479B"/>
<path d="M3.59484 0C1.60941 0 0 1.63761 0 3.65785V28.3417C0 30.3618 1.60941 31.9995 3.59484 31.9995H16V0H3.59484Z" fill="#FF4B55"/>
<path d="M8.03431 13.2358C6.78359 13.2358 5.71156 12.469 5.23925 11.3738C5.23897 11.3905 5.23438 11.406 5.23438 11.4227C5.23438 12.9961 6.488 14.2717 8.03431 14.2717C9.58062 14.2717 10.8342 12.9961 10.8342 11.4227C10.8342 11.406 10.8296 11.3905 10.8293 11.3739C10.357 12.469 9.28494 13.2358 8.03431 13.2358Z" fill="#F9CF02"/>
<path d="M8.03234 12.7181C9.15693 12.7181 10.0686 11.7905 10.0686 10.6462C10.0686 9.50186 9.15693 8.57422 8.03234 8.57422C6.90775 8.57422 5.99609 9.50186 5.99609 10.6462C5.99609 11.7905 6.90775 12.7181 8.03234 12.7181Z" fill="#F9CF02"/>
<path d="M6.75867 6.76185C6.75867 7.47701 7.32848 8.05681 8.03133 8.05681C8.73417 8.05681 9.30398 7.47701 9.30398 6.76185C9.30398 6.24387 8.9858 6.1791 8.9858 5.98488C8.9858 5.79066 9.17667 5.53166 8.79492 5.2079C8.9858 5.53166 8.6677 5.59643 8.6677 5.9201C8.6677 6.24377 8.79492 6.24387 8.79492 6.50286C8.79492 6.57152 8.76811 6.63737 8.7204 6.68593C8.67268 6.73448 8.60796 6.76176 8.54048 6.76176C8.473 6.76176 8.40828 6.73448 8.36057 6.68593C8.31285 6.63737 8.28605 6.57152 8.28605 6.50286C8.28605 6.24396 8.54048 5.98488 8.54048 5.59634C8.54048 5.2078 8.47683 5.07835 8.28605 4.75459C8.09517 4.43083 7.77698 4.17183 8.03161 3.91284C7.64976 4.04229 7.84073 4.56028 7.84073 4.88413C7.84073 5.2079 7.5863 5.40212 7.5863 5.79065C7.5863 6.17919 7.77717 6.24387 7.77717 6.50286C7.77717 6.53686 7.77059 6.57052 7.7578 6.60193C7.74502 6.63335 7.72627 6.66189 7.70265 6.68593C7.67902 6.70997 7.65097 6.72904 7.6201 6.74205C7.58923 6.75506 7.55615 6.76176 7.52273 6.76176C7.48932 6.76176 7.45623 6.75506 7.42536 6.74205C7.39449 6.72904 7.36645 6.70997 7.34282 6.68593C7.31919 6.66189 7.30045 6.63335 7.28766 6.60193C7.27488 6.57052 7.2683 6.53686 7.2683 6.50286C7.2683 6.24396 7.39551 6.24396 7.39551 5.9201C7.39551 5.59624 7.07733 5.53157 7.2683 5.2079C6.88645 5.53166 7.07742 5.79066 7.07742 5.98488C7.07686 6.1791 6.75867 6.24377 6.75867 6.76185ZM2.43164 15.0045V27.0086C2.43164 27.0652 2.45378 27.1196 2.49318 27.1597C2.53258 27.1998 2.58601 27.2223 2.64173 27.2223H4.76677C4.82249 27.2223 4.87592 27.1998 4.91532 27.1597C4.95472 27.1196 4.97686 27.0652 4.97686 27.0086V15.0045C4.97686 14.9478 4.95472 14.8934 4.91532 14.8533C4.87592 14.8132 4.82249 14.7907 4.76677 14.7907H2.64173C2.61414 14.7907 2.58682 14.7962 2.56132 14.807C2.53583 14.8177 2.51266 14.8334 2.49315 14.8533C2.47364 14.8731 2.45816 14.8967 2.44761 14.9227C2.43705 14.9486 2.43163 14.9764 2.43164 15.0045ZM11.0858 15.0045V27.0086C11.0858 27.0652 11.1079 27.1196 11.1473 27.1597C11.1867 27.1998 11.2402 27.2223 11.2959 27.2223H13.4209C13.4485 27.2223 13.4758 27.2168 13.5013 27.2061C13.5268 27.1953 13.55 27.1796 13.5695 27.1597C13.589 27.1399 13.6045 27.1163 13.615 27.0904C13.6256 27.0644 13.631 27.0366 13.631 27.0086V15.0045C13.631 14.9764 13.6256 14.9486 13.615 14.9227C13.6045 14.8967 13.589 14.8732 13.5695 14.8533C13.55 14.8335 13.5268 14.8177 13.5013 14.807C13.4758 14.7962 13.4485 14.7907 13.4209 14.7907H11.2959C11.2683 14.7907 11.241 14.7962 11.2155 14.807C11.19 14.8177 11.1668 14.8334 11.1473 14.8533C11.1278 14.8731 11.1123 14.8967 11.1018 14.9227C11.0912 14.9486 11.0858 14.9764 11.0858 15.0045ZM5.48602 17.0763V17.6846C5.48602 17.7413 5.50815 17.7957 5.54755 17.8358C5.58695 17.8759 5.64039 17.8984 5.69611 17.8984H10.3665C10.4222 17.8984 10.4756 17.8759 10.515 17.8358C10.5544 17.7957 10.5765 17.7413 10.5765 17.6846V17.0763C10.5765 17.0196 10.5544 16.9653 10.515 16.9252C10.4756 16.8851 10.4222 16.8625 10.3665 16.8625H5.69611C5.64039 16.8625 5.58695 16.8851 5.54755 16.9252C5.50815 16.9653 5.48602 17.0196 5.48602 17.0763ZM5.48602 24.3282V24.9365C5.48602 24.9932 5.50815 25.0476 5.54755 25.0877C5.58695 25.1278 5.64039 25.1503 5.69611 25.1503H10.3665C10.4222 25.1503 10.4756 25.1278 10.515 25.0877C10.5544 25.0476 10.5765 24.9932 10.5765 24.9365V24.3282C10.5765 24.2715 10.5544 24.2171 10.515 24.177C10.4756 24.1369 10.4222 24.1144 10.3665 24.1144H5.69611C5.66852 24.1144 5.64119 24.1199 5.61569 24.1307C5.5902 24.1414 5.56703 24.1572 5.54752 24.177C5.52801 24.1969 5.51254 24.2204 5.50198 24.2464C5.49143 24.2723 5.486 24.3001 5.48602 24.3282ZM5.86533 14.7906H10.1973C10.3039 14.7906 10.3427 14.9334 10.2514 14.9892L8.19361 16.2456C8.14463 16.2756 8.08859 16.2914 8.03147 16.2914C7.97435 16.2914 7.9183 16.2756 7.86933 16.2456L5.81133 14.9892C5.71992 14.9334 5.75883 14.7906 5.86533 14.7906ZM5.86533 25.6685H10.1973C10.3039 25.6685 10.3427 25.8113 10.2514 25.8671L8.19342 27.1234C8.14445 27.1533 8.0884 27.1691 8.03128 27.1691C7.97416 27.1691 7.91811 27.1533 7.86914 27.1234L5.81123 25.867C5.71992 25.8112 5.75883 25.6685 5.86533 25.6685ZM8.27995 18.4367C8.1997 18.4289 8.12198 18.412 8.03976 18.412C6.63998 18.412 5.5012 19.5708 5.5012 20.9951C5.5012 21.8404 5.90705 22.5845 6.52711 23.0539C6.59845 23.1079 6.69276 23.0299 6.65808 22.9464C6.5814 22.7622 6.5419 22.5641 6.54192 22.364C6.54192 21.5221 7.21626 20.8375 8.04436 20.8401C8.47964 20.8414 8.89692 20.6227 9.08958 20.2254C9.48811 19.404 9.00183 18.5875 8.27995 18.4367ZM8.03976 20.1426C7.9051 20.1426 7.77595 20.0882 7.68073 19.9913C7.58551 19.8944 7.53201 19.763 7.53201 19.626C7.53201 19.489 7.58551 19.3576 7.68073 19.2607C7.77595 19.1638 7.9051 19.1093 8.03976 19.1093C8.17443 19.1093 8.30358 19.1638 8.3988 19.2607C8.49402 19.3576 8.54751 19.489 8.54751 19.626C8.54751 19.763 8.49402 19.8944 8.3988 19.9913C8.30358 20.0882 8.17443 20.1426 8.03976 20.1426Z" fill="#F9CF02"/>
<path d="M9.55317 18.9358C9.48182 18.8818 9.38751 18.9599 9.4222 19.0433C9.49891 19.2275 9.53841 19.4256 9.53836 19.6257C9.53836 20.4676 8.86392 21.1523 8.03592 21.1497C7.60064 21.1483 7.18326 21.3671 6.9907 21.7643C6.59236 22.5858 7.07864 23.4024 7.80051 23.553C7.88076 23.5608 7.95848 23.5777 8.0407 23.5777C9.44039 23.5777 10.5793 22.419 10.5793 20.9947C10.5791 20.1494 10.1732 19.4053 9.55317 18.9358ZM8.0407 22.8803C7.90604 22.8803 7.77689 22.8259 7.68167 22.729C7.58644 22.6321 7.53295 22.5007 7.53295 22.3637C7.53295 22.2266 7.58644 22.0952 7.68167 21.9983C7.77689 21.9014 7.90604 21.847 8.0407 21.847C8.17536 21.847 8.30451 21.9014 8.39973 21.9983C8.49495 22.0952 8.54845 22.2266 8.54845 22.3637C8.54845 22.5007 8.49495 22.6321 8.39973 22.729C8.30451 22.8259 8.17536 22.8803 8.0407 22.8803Z" fill="#F9CF02"/>
</svg>
