<svg width="47" height="47" viewBox="0 0 47 47" fill="none" xmlns="http://www.w3.org/2000/svg">
<path d="M44.624 25.9642L37.9598 23.1855V21.1906C38.8771 20.6639 39.6714 19.9473 40.2897 19.0888C40.9079 18.2302 41.3358 17.2495 41.5447 16.2123H41.6941C42.2883 16.2204 42.8614 15.992 43.2873 15.5774C43.7133 15.1628 43.9571 14.5959 43.9652 14.0014C43.9734 13.407 43.7451 12.8336 43.3306 12.4075C42.9162 11.9814 42.3495 11.7374 41.7553 11.7293L42.4872 10.0318C43.1126 8.58121 43.1446 6.94316 42.5763 5.46928C42.0079 3.99539 40.8847 2.80316 39.4475 2.14852L37.3623 1.19963C36.1285 0.651603 34.7717 0.439802 33.4296 0.585718C32.0875 0.731633 30.8079 1.23007 29.7205 2.03047L28.5584 2.90764C27.3719 3.21336 26.3527 3.97292 25.7204 5.02284C25.3711 5.60282 25.1532 6.25234 25.082 6.92566C25.0108 7.59899 25.088 8.27975 25.3081 8.92001C24.1806 8.69439 23.017 8.72272 21.9017 9.00295C22.221 7.64732 22.0599 6.22287 21.446 4.97286C20.8321 3.72286 19.8034 2.72484 18.5357 2.14927L16.4505 1.19963C15.2166 0.651603 13.8598 0.439802 12.5177 0.585718C11.1757 0.731633 9.89602 1.23007 8.80867 2.03047L7.64656 2.90764C6.97349 3.0797 6.34747 3.40035 5.81445 3.84607C5.28143 4.29179 4.85494 4.85125 4.56628 5.4834C4.27762 6.11555 4.13413 6.80435 4.14632 7.49923C4.15852 8.1941 4.32609 8.87743 4.63675 9.49906L5.75255 11.7293C5.15831 11.7416 4.5933 11.9895 4.1818 12.4186C3.77029 12.8476 3.54602 13.4226 3.5583 14.0171C3.57058 14.6116 3.81841 15.1768 4.24728 15.5885C4.67615 16.0002 5.25092 16.2246 5.84516 16.2123H5.99453C6.20427 17.249 6.63249 18.2291 7.25064 19.0873C7.8688 19.9455 8.66269 20.662 9.57942 21.1891V23.1855L2.91526 25.9642C2.23401 26.2467 1.65194 26.7253 1.24283 27.3391C0.833715 27.953 0.615972 28.6745 0.617193 29.4123V39.3741C0.617193 39.5723 0.695879 39.7624 0.83594 39.9025C0.976002 40.0426 1.16597 40.1213 1.36404 40.1213H6.59201V46.0986C6.59201 46.2967 6.67069 46.4868 6.81076 46.6269C6.95082 46.767 7.14078 46.8457 7.33886 46.8457H40.2003C40.3984 46.8457 40.5884 46.767 40.7285 46.6269C40.8685 46.4868 40.9472 46.2967 40.9472 46.0986V40.1213H46.1752C46.3732 40.1213 46.5632 40.0426 46.7033 39.9025C46.8433 39.7624 46.922 39.5723 46.922 39.3741V29.4123C46.9232 28.6745 46.7055 27.953 46.2964 27.3391C45.8873 26.7253 45.3052 26.2467 44.624 25.9642ZM26.2887 10.7782L28.3732 11.7293C29.4544 12.2221 30.2994 13.1192 30.7268 14.2282C31.1542 15.3372 31.13 16.5697 30.6593 17.661L30.4353 18.1728L29.6697 16.6254C29.6209 16.5269 29.551 16.4404 29.4649 16.372C29.3788 16.3036 29.2786 16.2551 29.1716 16.2299C29.0646 16.2047 28.9534 16.2035 28.8458 16.2262C28.7383 16.249 28.6371 16.2953 28.5495 16.3617L27.3545 17.2583C26.3203 18.0343 25.0624 18.4537 23.7696 18.4537C22.4768 18.4537 21.2189 18.0343 20.1847 17.2583L18.9898 16.3617C18.9026 16.2956 18.8018 16.2498 18.6947 16.2274C18.5876 16.2051 18.4769 16.2068 18.3706 16.2324C18.264 16.2575 18.1641 16.3056 18.0782 16.3735C17.9922 16.4415 17.9222 16.5275 17.8732 16.6254L17.0479 18.2826L16.431 17.0491C16.1904 16.5675 16.0767 16.0324 16.1009 15.4945C16.125 14.9566 16.2861 14.4339 16.5689 13.9758C16.8518 13.5177 17.2469 13.1395 17.7168 12.8771C18.1868 12.6147 18.7159 12.4768 19.2541 12.4765C19.8295 12.4759 20.396 12.6177 20.9033 12.8893C21.4106 13.1608 21.8429 13.5537 22.1616 14.0328L22.3961 14.3855L23.6389 13.5561L23.4044 13.2042C22.7406 12.2092 21.7408 11.4867 20.588 11.169C21.4352 10.6459 22.3969 10.337 23.3901 10.2689C24.3833 10.2009 25.3782 10.3756 26.2887 10.7782ZM31.2381 21.4424H31.985C32.1831 21.4424 32.373 21.5211 32.5131 21.6612C32.6531 21.8013 32.7318 21.9914 32.7318 22.1895C32.7318 22.3877 32.6531 22.5777 32.5131 22.7178C32.373 22.858 32.1831 22.9367 31.985 22.9367H31.2381V21.4424ZM21.529 30.0638C22.9875 30.5231 24.5517 30.5231 26.0102 30.0638V31.5933L23.7696 33.8347L21.529 31.5933V30.0638ZM23.7696 28.9139C22.1855 28.9122 20.6668 28.2819 19.5467 27.1613C18.4266 26.0407 17.7966 24.5214 17.7948 22.9367V20.1244L18.809 18.0944L19.2885 18.4537C20.5813 19.4237 22.1536 19.9481 23.7696 19.9481C25.3856 19.9481 26.9579 19.4237 28.2507 18.4537L28.7302 18.0944L29.7444 20.1244V22.9367C29.7426 24.5214 29.1126 26.0407 27.9925 27.1613C26.8724 28.2819 25.3537 28.9122 23.7696 28.9139ZM16.3011 22.9367H15.5542C15.3562 22.9367 15.1662 22.858 15.0261 22.7178C14.8861 22.5777 14.8074 22.3877 14.8074 22.1895C14.8074 21.9914 14.8861 21.8013 15.0261 21.6612C15.1662 21.5211 15.3562 21.4424 15.5542 21.4424H16.3011V22.9367ZM6.59201 37.9097V38.627H2.1109V29.4123C2.11063 28.9699 2.24146 28.5374 2.48686 28.1695C2.73226 27.8015 3.0812 27.5145 3.48959 27.3449L10.6138 24.3757C10.7502 24.3188 10.8666 24.2227 10.9484 24.0995C11.0302 23.9763 11.0736 23.8317 11.0731 23.6838V20.743C11.0692 20.6015 11.0269 20.4637 10.9507 20.3443C10.8745 20.2249 10.7674 20.1285 10.6407 20.0654C9.74786 19.6211 8.98095 18.9594 8.4104 18.1413C7.83986 17.3231 7.48398 16.3746 7.37546 15.3829C7.35523 15.2001 7.26831 15.0312 7.13133 14.9085C6.99435 14.7858 6.81695 14.7179 6.63309 14.718H5.84516C5.64708 14.718 5.45711 14.6392 5.31705 14.4991C5.17699 14.359 5.0983 14.169 5.0983 13.9708C5.0983 13.7726 5.17699 13.5826 5.31705 13.4425C5.45711 13.3024 5.64708 13.2236 5.84516 13.2236H6.59201C6.69053 13.2236 6.78807 13.2041 6.87903 13.1663C6.96998 13.1284 7.05255 13.0729 7.12197 13.003C7.19139 12.933 7.24629 12.85 7.28352 12.7588C7.32074 12.6675 7.33955 12.5698 7.33886 12.4713L7.33363 11.7241C7.33294 11.61 7.30611 11.4975 7.25521 11.3953L5.97287 8.83035C5.75806 8.39972 5.64445 7.92567 5.64071 7.44441C5.63697 6.96315 5.74319 6.48739 5.95128 6.05346C6.15936 5.61954 6.4638 5.23891 6.84136 4.94065C7.21891 4.64238 7.6596 4.43436 8.12978 4.33247C8.23547 4.30904 8.335 4.26346 8.4218 4.19872L9.70638 3.22742C10.578 2.58648 11.6036 2.18741 12.679 2.07063C13.7545 1.95386 14.8417 2.12352 15.8306 2.56245L17.9173 3.51059C18.9985 4.00333 19.8435 4.90049 20.2709 6.0095C20.6983 7.1185 20.6741 8.35094 20.2034 9.44228L20.0824 9.72246C19.7988 9.87955 19.5261 10.0555 19.2661 10.2492L18.0883 11.1316C17.4166 11.3042 16.792 11.6251 16.2604 12.0707C15.7288 12.5163 15.3037 13.0753 15.0162 13.7067C14.7287 14.3381 14.5862 15.0258 14.599 15.7195C14.6119 16.4132 14.7798 17.0952 15.0904 17.7155L16.2077 19.9481H15.5542C14.96 19.9481 14.3901 20.1842 13.9699 20.6046C13.5497 21.0249 13.3137 21.5951 13.3137 22.1895C13.3137 22.784 13.5497 23.3541 13.9699 23.7745C14.3901 24.1948 14.96 24.431 15.5542 24.431H16.4505C16.6644 25.4648 17.0943 26.4417 17.7121 27.2976C18.33 28.1535 19.1217 28.8691 20.0353 29.3974V31.3347L9.32698 34.3107C8.54149 34.5307 7.8493 35.0013 7.35564 35.6509C6.86197 36.3006 6.59384 37.0937 6.59201 37.9097ZM39.4535 45.3514H34.9724V39.3741H33.4787V45.3514H14.0605V39.3741H12.5668V45.3514H8.08571V37.9097C8.0868 37.4198 8.24793 36.9437 8.54456 36.5539C8.84118 36.1641 9.25704 35.8819 9.72879 35.7504L20.5649 32.7394L23.2438 35.4194C23.3839 35.5595 23.5738 35.6382 23.7718 35.6382C23.9699 35.6382 24.1598 35.5595 24.2999 35.4194L26.9788 32.7394L37.8104 35.7504C38.2822 35.8819 38.698 36.1641 38.9947 36.5539C39.2913 36.9437 39.4524 37.4198 39.4535 37.9097V45.3514ZM45.4283 38.627H40.9472V37.9097C40.9454 37.0937 40.6772 36.3006 40.1836 35.6509C39.6899 35.0013 38.9977 34.5307 38.2122 34.3107L27.5039 31.3347V29.3974C28.4175 28.8691 29.2093 28.1535 29.8271 27.2976C30.4449 26.4417 30.8749 25.4648 31.0888 24.431H31.985C32.5792 24.431 33.1491 24.1948 33.5693 23.7745C33.9895 23.3541 34.2255 22.784 34.2255 22.1895C34.2255 21.5951 33.9895 21.0249 33.5693 20.6046C33.1491 20.1842 32.5792 19.9481 31.985 19.9481H31.2994L32.0313 18.2513C32.6567 16.8007 32.6886 15.1626 32.1203 13.6888C31.552 12.2149 30.4287 11.0226 28.9916 10.368L27.2589 9.57826L26.8855 8.8311C26.6705 8.40048 26.5568 7.92642 26.5529 7.44511C26.549 6.9638 26.6552 6.48797 26.8632 6.05396C27.0712 5.61995 27.3756 5.23923 27.7532 4.94087C28.1307 4.64252 28.5714 4.43442 29.0416 4.33247C29.1473 4.30904 29.2469 4.26346 29.3337 4.19872L30.6182 3.22742C31.4899 2.58648 32.5154 2.18741 33.5909 2.07063C34.6664 1.95386 35.7536 2.12352 36.7424 2.56245L38.8291 3.51059C39.9103 4.00333 40.7553 4.90049 41.1827 6.0095C41.6102 7.1185 41.5859 8.35094 41.1152 9.44228L40.2564 11.4305C40.2156 11.5248 40.1948 11.6265 40.1951 11.7293L40.2003 12.4765C40.2003 12.6746 40.279 12.8647 40.4191 13.0048C40.5592 13.1449 40.7491 13.2236 40.9472 13.2236H41.6941C41.8921 13.2236 42.0821 13.3024 42.2222 13.4425C42.3622 13.5826 42.4409 13.7726 42.4409 13.9708C42.4409 14.169 42.3622 14.359 42.2222 14.4991C42.0821 14.6392 41.8921 14.718 41.6941 14.718H40.9061C40.7223 14.7179 40.5449 14.7858 40.4079 14.9085C40.2709 15.0312 40.184 15.2001 40.1638 15.3829C40.0548 16.3784 39.6966 17.3302 39.1222 18.1503C38.5477 18.9704 37.7757 19.6321 36.8776 20.0743C36.7532 20.1362 36.6485 20.2315 36.5752 20.3497C36.502 20.4678 36.4632 20.604 36.4631 20.743V23.6838C36.4631 23.8313 36.5067 23.9755 36.5884 24.0982C36.6702 24.2209 36.7864 24.3167 36.9224 24.3735L44.0496 27.3449C44.458 27.5145 44.8069 27.8015 45.0523 28.1695C45.2977 28.5374 45.4286 28.9699 45.4283 29.4123V38.627Z" fill="#E8494B"/>
</svg>
