<svg width="24" height="24" viewBox="0 0 24 24" fill="none" xmlns="http://www.w3.org/2000/svg">
<path opacity="0.12" d="M7.38028 9.85335C8.07628 11.3029 9.02507 12.6616 10.2266 13.8632C11.4282 15.0647 12.7868 16.0135 14.2365 16.7095C14.3612 16.7694 14.4235 16.7993 14.5024 16.8223C14.7827 16.9041 15.127 16.8454 15.3644 16.6753C15.4312 16.6275 15.4884 16.5703 15.6027 16.456C15.9523 16.1064 16.1271 15.9316 16.3029 15.8173C16.9658 15.3863 17.8204 15.3863 18.4833 15.8173C18.659 15.9316 18.8338 16.1064 19.1835 16.456L19.3783 16.6509C19.9098 17.1823 20.1755 17.4481 20.3198 17.7334C20.6069 18.301 20.6069 18.9713 20.3198 19.5388C20.1755 19.8242 19.9098 20.0899 19.3783 20.6214L19.2207 20.779C18.6911 21.3086 18.4263 21.5734 18.0662 21.7757C17.6667 22.0001 17.0462 22.1615 16.588 22.1601C16.1751 22.1589 15.8928 22.0788 15.3284 21.9186C12.295 21.0576 9.43265 19.4331 7.04467 17.0451C4.65669 14.6572 3.03221 11.7948 2.17124 8.76143C2.01104 8.19699 1.93093 7.91476 1.9297 7.50182C1.92834 7.04359 2.0897 6.4231 2.31412 6.0236C2.51637 5.66357 2.78118 5.39875 3.31081 4.86913L3.46844 4.7115C3.99988 4.18005 4.2656 3.91433 4.55098 3.76999C5.11855 3.48292 5.78881 3.48292 6.35637 3.76999C6.64175 3.91433 6.90747 4.18005 7.43892 4.7115L7.63379 4.90637C7.98339 5.25597 8.15819 5.43077 8.27248 5.60655C8.70348 6.26944 8.70348 7.12402 8.27248 7.78691C8.1582 7.96269 7.98339 8.1375 7.63379 8.4871C7.51947 8.60141 7.46232 8.65857 7.41448 8.72538C7.24447 8.96281 7.18576 9.30707 7.26749 9.58742C7.29049 9.66632 7.32042 9.72866 7.38028 9.85335Z" fill="#E8494B"/>
<path d="M14.0496 6C15.0264 6.19057 15.924 6.66826 16.6277 7.37194C17.3314 8.07561 17.8091 8.97326 17.9996 9.95M14.0496 2C16.0789 2.22544 17.9712 3.13417 19.4159 4.57701C20.8605 6.01984 21.7717 7.91101 21.9996 9.94M10.2266 13.8631C9.02507 12.6615 8.07628 11.3028 7.38028 9.85323C7.32042 9.72854 7.29049 9.66619 7.26749 9.5873C7.18576 9.30695 7.24447 8.96269 7.41448 8.72526C7.46232 8.65845 7.51947 8.60129 7.63379 8.48698C7.98339 8.13737 8.1582 7.96257 8.27248 7.78679C8.70348 7.1239 8.70348 6.26932 8.27248 5.60643C8.15819 5.43065 7.98339 5.25585 7.63379 4.90624L7.43892 4.71137C6.90747 4.17993 6.64175 3.91421 6.35637 3.76987C5.78881 3.4828 5.11855 3.4828 4.55098 3.76987C4.2656 3.91421 3.99988 4.17993 3.46844 4.71137L3.31081 4.86901C2.78118 5.39863 2.51637 5.66344 2.31412 6.02348C2.0897 6.42298 1.92834 7.04347 1.9297 7.5017C1.93093 7.91464 2.01104 8.19687 2.17124 8.76131C3.03221 11.7947 4.65669 14.6571 7.04467 17.045C9.43265 19.433 12.295 21.0575 15.3284 21.9185C15.8928 22.0787 16.1751 22.1588 16.588 22.16C17.0462 22.1614 17.6667 22 18.0662 21.7756C18.4263 21.5733 18.6911 21.3085 19.2207 20.7789L19.3783 20.6213C19.9098 20.0898 20.1755 19.8241 20.3198 19.5387C20.6069 18.9712 20.6069 18.3009 20.3198 17.7333C20.1755 17.448 19.9098 17.1822 19.3783 16.6508L19.1835 16.4559C18.8338 16.1063 18.659 15.9315 18.4833 15.8172C17.8204 15.3862 16.9658 15.3862 16.3029 15.8172C16.1271 15.9315 15.9523 16.1063 15.6027 16.4559C15.4884 16.5702 15.4312 16.6274 15.3644 16.6752C15.127 16.8453 14.7827 16.904 14.5024 16.8222C14.4235 16.7992 14.3612 16.7693 14.2365 16.7094C12.7868 16.0134 11.4282 15.0646 10.2266 13.8631Z" stroke="#E8494B" stroke-width="2" stroke-linecap="round" stroke-linejoin="round"/>
</svg>
