<svg width="60" height="60" viewBox="0 0 60 60" fill="none" xmlns="http://www.w3.org/2000/svg">
<path d="M49.4323 13.2222L59.119 40.186C60.4633 43.928 58.5197 48.0513 54.7776 49.3957L26.4453 59.574C22.7033 60.9183 18.5799 58.9747 17.2356 55.2326L16.1133 52.1087L30.0466 20.1407L49.4323 13.2222Z" fill="#F6CA56"/>
<path d="M48.9401 11.8538C47.5958 8.11182 43.4725 6.16801 39.7305 7.51235L11.3982 17.6907C7.65614 19.035 5.71246 23.1583 7.0568 26.9002L16.1128 52.1086H41.0314C45.6707 52.1086 49.4316 48.3477 49.4316 43.7084V13.2222L48.9401 11.8538Z" fill="#F1B70B"/>
<path d="M19.6 3.13266H37.7609C41.7371 3.13266 44.9603 6.35594 44.9603 10.3321V40.4372C44.9603 44.4133 41.7371 47.6366 37.7609 47.6366H19.6L8.6248 44.5053L5.4082 26.6198L9.3766 5.83336L19.6 3.13266Z" fill="#F8EA69"/>
<path d="M13.1496 36.051V14.7184C13.1496 9.82593 15.7281 5.53648 19.5998 3.13266H7.6555C3.67933 3.13266 0.456055 6.35594 0.456055 10.3322V40.4373C0.456055 44.4135 3.67933 47.6369 7.6555 47.6369H19.5997C15.7281 45.2329 13.1496 40.9435 13.1496 36.051Z" fill="#F6CA56"/>
<path d="M23.342 13.29C26.4126 13.29 28.9018 10.8008 28.9018 7.73016C28.9018 4.65956 26.4126 2.17035 23.342 2.17035C20.2714 2.17035 17.7822 4.65956 17.7822 7.73016C17.7822 10.8008 20.2714 13.29 23.342 13.29Z" fill="#F9475E"/>
<path d="M20.8484 8.66756C23.2419 8.66756 25.1822 6.72726 25.1822 4.33378C25.1822 1.9403 23.2419 0 20.8484 0C18.4549 0 16.5146 1.9403 16.5146 4.33378C16.5146 6.72726 18.4549 8.66756 20.8484 8.66756Z" fill="#FF6E80"/>
<path d="M12.4199 28.1316C14.5163 28.1316 16.2158 26.7783 16.2158 25.1088C16.2158 23.4393 14.5163 22.0859 12.4199 22.0859C10.3235 22.0859 8.62402 23.4393 8.62402 25.1088C8.62402 26.7783 10.3235 28.1316 12.4199 28.1316Z" fill="white"/>
<path d="M32.9961 28.1316C35.0925 28.1316 36.792 26.7783 36.792 25.1088C36.792 23.4393 35.0925 22.0859 32.9961 22.0859C30.8997 22.0859 29.2002 23.4393 29.2002 25.1088C29.2002 26.7783 30.8997 28.1316 32.9961 28.1316Z" fill="white"/>
<path d="M16.4397 22.7305C16.32 22.7305 16.2015 22.7069 16.091 22.6612C15.9805 22.6154 15.88 22.5483 15.7954 22.4637C15.7108 22.3791 15.6437 22.2786 15.5979 22.1681C15.5521 22.0575 15.5286 21.9391 15.5286 21.8194C15.5286 21.3255 15.1268 20.9237 14.6329 20.9237C14.139 20.9237 13.7371 21.3255 13.7371 21.8194C13.7371 22.3227 13.3293 22.7305 12.8261 22.7305C12.3228 22.7305 11.915 22.3227 11.915 21.8194C11.915 20.3208 13.1343 19.1016 14.6329 19.1016C16.1315 19.1016 17.3507 20.3208 17.3507 21.8194C17.3507 22.061 17.2547 22.2928 17.0839 22.4636C16.913 22.6345 16.6813 22.7305 16.4397 22.7305ZM32.5904 22.7305C32.4708 22.7305 32.3523 22.7069 32.2418 22.6612C32.1312 22.6154 32.0308 22.5483 31.9462 22.4637C31.8616 22.3791 31.7945 22.2786 31.7487 22.1681C31.7029 22.0575 31.6794 21.9391 31.6794 21.8194C31.6794 21.3255 31.2776 20.9237 30.7836 20.9237C30.2897 20.9237 29.8879 21.3255 29.8879 21.8194C29.8879 22.3227 29.4801 22.7305 28.9769 22.7305C28.4736 22.7305 28.0658 22.3227 28.0658 21.8194C28.0658 20.3208 29.285 19.1016 30.7836 19.1016C32.2823 19.1016 33.5015 20.3208 33.5015 21.8194C33.5015 22.061 33.4055 22.2928 33.2346 22.4636C33.0638 22.6345 32.8321 22.7305 32.5904 22.7305ZM22.7083 25.7153C22.2148 25.7151 21.7272 25.6093 21.2781 25.4048C20.8291 25.2003 20.429 24.9019 20.105 24.5298C19.9462 24.3477 19.8663 24.11 19.8828 23.8689C19.8993 23.6278 20.0109 23.4032 20.193 23.2444C20.3752 23.0856 20.6129 23.0057 20.854 23.0222C21.0951 23.0387 21.3197 23.1504 21.4785 23.3325C21.7892 23.6889 22.2373 23.8932 22.7083 23.8932C23.1792 23.8932 23.6274 23.6888 23.9382 23.3325C24.0981 23.1545 24.3216 23.0466 24.5605 23.0321C24.7993 23.0175 25.0343 23.0975 25.2146 23.2547C25.395 23.4119 25.5063 23.6338 25.5244 23.8724C25.5426 24.111 25.4662 24.3471 25.3117 24.5298C24.9876 24.902 24.5876 25.2003 24.1385 25.4048C23.6894 25.6093 23.2017 25.7152 22.7083 25.7153Z" fill="#3E4F61"/>
<path d="M13.15 34.4543H34.1739C34.6771 34.4543 35.0849 34.0465 35.0849 33.5432C35.0849 33.04 34.6771 32.6322 34.1739 32.6322H13.15L12.4209 33.5432L13.15 34.4543Z" fill="#516980"/>
<path d="M8.62491 32.6322C8.12165 32.6322 7.71387 33.04 7.71387 33.5432C7.71387 34.0465 8.12165 34.4543 8.62491 34.4543H13.1499V32.6322H8.62491Z" fill="#3E4F61"/>
<path d="M13.6922 39.8658H25.7545C26.2578 39.8658 26.6656 39.458 26.6656 38.9547C26.6656 38.4515 26.2578 38.0437 25.7545 38.0437H13.2958L12.7314 39.1248L13.6922 39.8658Z" fill="#516980"/>
<path d="M8.62491 38.0437C8.12165 38.0437 7.71387 38.4515 7.71387 38.9547C7.71387 39.458 8.12165 39.8658 8.62491 39.8658H13.6929C13.519 39.2682 13.3866 38.6594 13.2965 38.0437H8.62491Z" fill="#3E4F61"/>
</svg>
