<svg width="18" height="18" viewBox="0 0 18 18" fill="none" xmlns="http://www.w3.org/2000/svg">
<path d="M16.0328 7.33921C15.7717 7.18186 15.5371 6.98146 15.3382 6.74587C15.3583 6.41788 15.4337 6.09608 15.5609 5.79504C15.7948 5.11087 16.0593 4.33587 15.6348 3.73337C15.2104 3.13087 14.4089 3.15004 13.7055 3.16671C13.3946 3.19986 13.0806 3.17788 12.777 3.10171C12.6151 2.8288 12.4996 2.52919 12.4353 2.21587C12.2359 1.51171 12.0084 0.715873 11.3098 0.47754C10.6362 0.25254 10.0123 0.74754 9.46085 1.18254C9.22289 1.40781 8.94716 1.58602 8.6473 1.70837C8.34431 1.58702 8.06551 1.40876 7.82491 1.18254C7.27504 0.75004 6.65362 0.25004 5.97674 0.478373C5.27975 0.713373 5.05225 1.51171 4.85127 2.21587C4.78706 2.52818 4.67265 2.82707 4.51283 3.10004C4.20856 3.17601 3.89417 3.19854 3.58271 3.16671C2.87688 3.14671 2.08182 3.12504 1.65334 3.73337C1.22486 4.34171 1.49256 5.11087 1.7273 5.79421C1.85628 6.0948 1.93277 6.41674 1.9532 6.74504C1.7547 6.98094 1.52036 7.18164 1.25943 7.33921C0.670973 7.75587 0.00292969 8.23004 0.00292969 9.00004C0.00292969 9.77004 0.670973 10.2425 1.25943 10.6609C1.5203 10.8182 1.75464 11.0186 1.9532 11.2542C1.93491 11.5824 1.86061 11.9046 1.73373 12.2059C1.5006 12.8892 1.23692 13.6642 1.66058 14.2667C2.08424 14.8692 2.88332 14.85 3.58995 14.8334C3.90103 14.8002 4.21529 14.8222 4.51926 14.8984C4.68035 15.1716 4.7956 15.4711 4.86011 15.7842C5.05948 16.4884 5.28699 17.2842 5.98558 17.5225C6.09758 17.5598 6.21444 17.5789 6.33206 17.5792C6.89737 17.4951 7.42278 17.2286 7.83375 16.8175C8.07171 16.5923 8.34744 16.4141 8.6473 16.2917C8.9503 16.4131 9.22909 16.5913 9.4697 16.8175C10.0204 17.2534 10.6442 17.7509 11.3187 17.5217C12.0157 17.2867 12.2432 16.4884 12.4441 15.785C12.5086 15.4722 12.6238 15.1729 12.785 14.9C13.0881 14.8236 13.4015 14.801 13.7119 14.8334C14.4177 14.8509 15.2128 14.875 15.6413 14.2667C16.0697 13.6584 15.802 12.8892 15.5673 12.205C15.4392 11.9047 15.3628 11.5835 15.3414 11.2559C15.54 11.0198 15.7747 10.819 16.036 10.6617C16.6244 10.245 17.2925 9.77004 17.2925 9.00004C17.2925 8.23004 16.622 7.75671 16.0328 7.33921Z" fill="#E8494B"/>
<path d="M7.84316 11.2918C7.76397 11.2919 7.68554 11.2758 7.61241 11.2443C7.53928 11.2128 7.47289 11.1667 7.41709 11.1084L5.80928 9.44175C5.70278 9.32327 5.6448 9.16657 5.64755 9.00465C5.65031 8.84273 5.71359 8.68824 5.82406 8.57373C5.93452 8.45922 6.08355 8.39363 6.23975 8.39077C6.39595 8.38791 6.54712 8.44802 6.66142 8.55842L7.89943 9.84175L10.697 7.66675C10.8249 7.56729 10.9857 7.52459 11.144 7.54803C11.3023 7.57147 11.4452 7.65914 11.5411 7.79175C11.6371 7.92436 11.6783 8.09104 11.6556 8.25514C11.633 8.41923 11.5485 8.56729 11.4205 8.66675L8.20491 11.1668C8.10052 11.2478 7.9736 11.2917 7.84316 11.2918Z" fill="white"/>
</svg>
