<svg width="520" height="233" viewBox="0 0 520 233" fill="none" xmlns="http://www.w3.org/2000/svg">
<path d="M264.777 232.991C405.733 232.991 520 229.267 520 224.673C520 220.079 405.733 216.355 264.777 216.355C123.822 216.355 9.55469 220.079 9.55469 224.673C9.55469 229.267 123.822 232.991 264.777 232.991Z" fill="#C8BCCE"/>
<path d="M195.057 20.0047H468.943C472.502 20.0047 475.915 21.4184 478.431 23.935C480.948 26.4515 482.362 29.8646 482.362 33.4236V207.63H181.638V33.4236C181.638 29.8646 183.051 26.4515 185.568 23.935C188.085 21.4184 191.498 20.0047 195.057 20.0047Z" fill="#C8BCCE"/>
<path d="M461.687 39.2589H202.265C197.363 39.2589 193.389 43.2332 193.389 48.1356V181.598C193.389 186.501 197.363 190.475 202.265 190.475H461.687C466.589 190.475 470.564 186.501 470.564 181.598V48.1356C470.564 43.2332 466.589 39.2589 461.687 39.2589Z" fill="#E8E1EF"/>
<path d="M501.097 205.043H165.968C161.334 205.043 157.578 208.8 157.578 213.433V213.824C157.578 218.458 161.334 222.214 165.968 222.214H501.097C505.731 222.214 509.487 218.458 509.487 213.824V213.433C509.487 208.8 505.731 205.043 501.097 205.043Z" fill="#A79CAD"/>
<path d="M274.628 27.8197H201.443C201.366 27.829 201.289 27.822 201.216 27.7991C201.142 27.7763 201.074 27.7382 201.017 27.6872C200.959 27.6363 200.913 27.5737 200.882 27.5037C200.85 27.4336 200.834 27.3577 200.834 27.2808C200.834 27.204 200.85 27.128 200.882 27.058C200.913 26.9879 200.959 26.9254 201.017 26.8744C201.074 26.8235 201.142 26.7854 201.216 26.7625C201.289 26.7397 201.366 26.7327 201.443 26.742H274.628C274.704 26.7327 274.781 26.7397 274.855 26.7625C274.928 26.7854 274.996 26.8235 275.053 26.8744C275.111 26.9254 275.157 26.9879 275.188 27.058C275.22 27.128 275.236 27.204 275.236 27.2808C275.236 27.3577 275.22 27.4336 275.188 27.5037C275.157 27.5737 275.111 27.6363 275.053 27.6872C274.996 27.7382 274.928 27.7763 274.855 27.7991C274.781 27.822 274.704 27.829 274.628 27.8197Z" fill="white"/>
<path d="M376.032 214.167H287.975C287.831 214.167 287.693 214.11 287.592 214.008C287.49 213.907 287.433 213.769 287.433 213.625C287.433 213.481 287.49 213.343 287.592 213.241C287.693 213.139 287.831 213.082 287.975 213.082H376.032C376.176 213.082 376.315 213.139 376.416 213.241C376.518 213.343 376.575 213.481 376.575 213.625C376.575 213.769 376.518 213.907 376.416 214.008C376.315 214.11 376.176 214.167 376.032 214.167Z" fill="#C8BCCE"/>
<path d="M85.91 73.8239C99.9474 73.8239 111.327 65.9719 111.327 56.286C111.327 46.6 99.9474 38.748 85.91 38.748C71.8727 38.748 60.4932 46.6 60.4932 56.286C60.4932 65.9719 71.8727 73.8239 85.91 73.8239Z" fill="#92B4EA"/>
<path d="M85.902 70.1439L65.123 84.1216L73.7044 67.789L85.902 70.1439Z" fill="#92B4EA"/>
<path d="M296.964 37.3909C311.928 37.3909 324.058 29.0207 324.058 18.6954C324.058 8.37024 311.928 -1.90735e-06 296.964 -1.90735e-06C282.001 -1.90735e-06 269.871 8.37024 269.871 18.6954C269.871 29.0207 282.001 37.3909 296.964 37.3909Z" fill="#A37B90"/>
<path d="M296.964 35.068L316.505 44.9825L309.976 32.5534L296.964 35.068Z" fill="#A37B90"/>
<path d="M226.804 91.3858C234.55 91.3858 240.829 85.1063 240.829 77.3602C240.829 69.6141 234.55 63.3346 226.804 63.3346C219.058 63.3346 212.778 69.6141 212.778 77.3602C212.778 85.1063 219.058 91.3858 226.804 91.3858Z" fill="#92B4EA"/>
<path d="M229.965 72.818H220.027C219.251 72.818 218.622 73.4471 218.622 74.223V80.5054C218.622 81.2813 219.251 81.9103 220.027 81.9103H229.965C230.741 81.9103 231.37 81.2813 231.37 80.5054V74.223C231.37 73.4471 230.741 72.818 229.965 72.818Z" fill="white"/>
<path d="M230.037 77.3602L232.512 75.5481L234.986 73.7361V77.3602V80.9844L232.512 79.1723L230.037 77.3602Z" fill="white"/>
<path d="M29.8952 198.729L176.497 198.729C182.766 198.729 187.849 193.647 187.849 187.378V109.554C187.849 103.285 182.766 98.203 176.497 98.203L29.8952 98.203C23.626 98.203 18.5438 103.285 18.5438 109.554V187.378C18.5438 193.647 23.626 198.729 29.8952 198.729Z" fill="#6876AA"/>
<path d="M11.6553 191.608V196.35C11.6515 197.572 11.8126 198.788 12.1343 199.966C12.9284 202.891 14.6634 205.474 17.0714 207.315C19.4793 209.156 22.4263 210.153 25.4574 210.152H180.928C182.743 210.156 184.54 209.802 186.217 209.11C187.895 208.419 189.419 207.402 190.703 206.12C191.987 204.838 193.005 203.315 193.698 201.638C194.392 199.962 194.748 198.165 194.746 196.35V191.608C194.745 189.795 194.387 187.999 193.692 186.324C192.997 184.649 191.979 183.127 190.696 181.846C189.413 180.564 187.89 179.548 186.214 178.855C184.538 178.161 182.742 177.805 180.928 177.806H25.4574C23.6449 177.806 21.8501 178.163 20.1756 178.857C18.501 179.551 16.9795 180.567 15.6979 181.849C14.4162 183.131 13.3996 184.652 12.706 186.327C12.0123 188.001 11.6553 189.796 11.6553 191.608Z" fill="#40507F"/>
<path d="M23.4609 184.687C23.4609 187.737 44.5512 190.211 70.5588 190.211C96.5664 190.211 117.657 187.737 117.657 184.687C117.657 181.638 96.5664 179.163 70.5588 179.163C44.5512 179.163 23.4609 181.598 23.4609 184.687Z" fill="#364568"/>
<path d="M182.397 226.908H183.099C183.94 226.908 184.752 226.603 185.384 226.049C186.017 225.496 186.427 224.732 186.54 223.898L189.006 205.586H178.134L178.932 223.587C178.971 224.48 179.353 225.324 179.998 225.942C180.644 226.561 181.503 226.907 182.397 226.908Z" fill="#40507F"/>
<path d="M23.9319 226.908H23.2295C22.3889 226.908 21.5769 226.603 20.9442 226.049C20.3115 225.496 19.901 224.732 19.7889 223.898L17.3223 205.586H28.1947L27.3964 223.587C27.3574 224.48 26.9755 225.324 26.3301 225.942C25.6848 226.561 24.8258 226.907 23.9319 226.908Z" fill="#40507F"/>
<path d="M189.374 188.495C198.676 188.495 206.217 180.954 206.217 171.652C206.217 162.349 198.676 154.808 189.374 154.808C180.071 154.808 172.53 162.349 172.53 171.652C172.53 180.954 180.071 188.495 189.374 188.495Z" fill="#6876AA"/>
<path d="M174.606 103.424H130.15C130.078 103.424 130.009 103.395 129.958 103.344C129.907 103.293 129.879 103.224 129.879 103.152C129.879 103.08 129.907 103.011 129.958 102.96C130.009 102.909 130.078 102.881 130.15 102.881H174.606C174.678 102.881 174.747 102.909 174.798 102.96C174.849 103.011 174.877 103.08 174.877 103.152C174.877 103.224 174.849 103.293 174.798 103.344C174.747 103.395 174.678 103.424 174.606 103.424Z" fill="#92B4EA"/>
<path d="M12.166 199.966C12.9587 202.886 14.6889 205.465 17.0904 207.305C19.4919 209.146 22.4316 210.146 25.4572 210.152H180.928C183.961 210.154 186.911 209.157 189.321 207.316C191.732 205.476 193.47 202.893 194.267 199.966H12.166Z" fill="#39476B"/>
<path d="M189.373 179.132C193.504 179.132 196.853 175.783 196.853 171.652C196.853 167.521 193.504 164.172 189.373 164.172C185.242 164.172 181.894 167.521 181.894 171.652C181.894 175.783 185.242 179.132 189.373 179.132Z" fill="#40507F"/>
<path d="M78.5747 161.41L78.2953 160.668C78.2235 160.452 76.4114 155.487 77.497 153.276C77.5985 153.046 77.7467 152.84 77.9323 152.671C78.1178 152.502 78.3366 152.373 78.5747 152.294C78.7518 152.214 78.9483 152.188 79.1399 152.219C79.3315 152.251 79.5097 152.338 79.6524 152.469C80.9456 153.731 79.0616 159.949 78.8541 160.652L78.5747 161.41ZM78.9818 152.757C78.8896 152.76 78.7983 152.776 78.7104 152.805C78.5425 152.862 78.3888 152.954 78.2594 153.075C78.1299 153.196 78.0279 153.343 77.96 153.507C77.2336 155.024 78.0718 158.185 78.5348 159.67C79.2612 157.115 79.9557 153.555 79.2373 152.852C79.1676 152.789 79.0761 152.755 78.9818 152.757Z" fill="#6876AA"/>
<path d="M83.5952 148.765C83.5952 148.765 113.395 127.284 135.115 129.288C156.836 131.291 134.213 186.883 134.213 186.883L104.502 182.093V176.673L68.0449 182.293L80.5937 156.995L83.5952 148.765Z" fill="#7C576C"/>
<path d="M112.483 151.009C112.446 151.016 112.408 151.016 112.372 151.009C112.338 150.995 112.308 150.974 112.283 150.948C112.258 150.923 112.239 150.892 112.226 150.858C112.213 150.825 112.208 150.789 112.209 150.753C112.211 150.717 112.22 150.682 112.236 150.649C113.611 147.624 115.374 144.79 117.48 142.22C117.527 142.165 117.594 142.13 117.665 142.124C117.737 142.118 117.809 142.141 117.864 142.188C117.919 142.234 117.953 142.301 117.959 142.373C117.965 142.444 117.942 142.516 117.896 142.571C115.827 145.092 114.096 147.872 112.747 150.841C112.724 150.892 112.688 150.935 112.641 150.965C112.594 150.995 112.539 151.01 112.483 151.009Z" fill="#3A4970"/>
<path d="M105.619 192.87C106.761 197.236 137.382 199.503 138.54 199.711C139.697 199.918 148.534 199.2 151.432 197.611C153.531 196.454 151.759 189.285 149.748 187.234C147.736 185.182 141.645 184.448 141.645 184.448L122.686 174.007L103.967 175.707C103.967 175.707 104.909 190.156 105.619 192.87Z" fill="#52AECE"/>
<path d="M49.4449 167.525C49.3702 167.522 49.2983 167.496 49.2394 167.45C49.1806 167.405 49.1379 167.341 49.1176 167.269L48.0319 163.134C48.0199 163.091 48.0166 163.046 48.0222 163.002C48.0277 162.958 48.0421 162.915 48.0644 162.876C48.0867 162.838 48.1165 162.804 48.152 162.777C48.1876 162.75 48.2282 162.73 48.2714 162.719C48.3144 162.707 48.3594 162.704 48.4036 162.709C48.4479 162.715 48.4907 162.729 48.5293 162.752C48.568 162.774 48.6018 162.804 48.6288 162.839C48.6558 162.875 48.6754 162.915 48.6865 162.959L49.7801 167.126C49.8022 167.214 49.7886 167.308 49.7424 167.387C49.6962 167.466 49.6209 167.524 49.5327 167.549L49.4449 167.525Z" fill="#534579"/>
<path d="M81.7032 157.195C81.6148 157.195 81.5299 157.161 81.4659 157.1C81.402 157.039 81.364 156.956 81.3599 156.868L81.2481 152.485C81.2471 152.441 81.2547 152.397 81.2706 152.356C81.2865 152.315 81.3103 152.278 81.3407 152.246C81.3711 152.214 81.4074 152.188 81.4477 152.171C81.488 152.153 81.5314 152.143 81.5754 152.142C81.6207 152.137 81.6663 152.143 81.7094 152.157C81.7525 152.172 81.792 152.195 81.8252 152.226C81.8584 152.257 81.8847 152.295 81.9022 152.337C81.9197 152.379 81.928 152.424 81.9267 152.469L82.0384 156.852C82.0395 156.896 82.0319 156.94 82.016 156.981C82.0001 157.022 81.9763 157.059 81.9459 157.091C81.9155 157.123 81.8791 157.149 81.8389 157.167C81.7986 157.184 81.7552 157.194 81.7111 157.195H81.7032Z" fill="#534579"/>
<path d="M49.285 82.8363C49.285 82.8363 39.7057 77.001 32.665 82.525C25.6243 88.049 29.6795 97.4765 29.6795 97.4765C29.6795 97.4765 20.6112 101.109 20.6191 113.155C20.6271 125.2 32.194 126.158 32.194 126.158L47.3611 114.671L49.285 82.8363Z" fill="black"/>
<path d="M78.0865 159.941C77.9955 159.941 77.9082 159.905 77.8438 159.841C77.7794 159.776 77.7432 159.689 77.7432 159.598V154.96C77.7357 154.911 77.7389 154.861 77.7525 154.813C77.766 154.766 77.7898 154.722 77.822 154.684C77.8542 154.647 77.8942 154.617 77.9391 154.596C77.9841 154.575 78.033 154.564 78.0825 154.564C78.132 154.564 78.1809 154.575 78.2259 154.596C78.2708 154.617 78.3108 154.647 78.343 154.684C78.3753 154.722 78.399 154.766 78.4126 154.813C78.4262 154.861 78.4293 154.911 78.4218 154.96V159.606C78.4228 159.651 78.415 159.695 78.3986 159.737C78.3822 159.778 78.3577 159.816 78.3264 159.848C78.2952 159.88 78.2579 159.906 78.2167 159.923C78.1755 159.94 78.1312 159.949 78.0865 159.949V159.941Z" fill="#534579"/>
<path d="M41.5182 162.815C41.5182 162.815 69.8408 158.081 76.2429 153.515L72.3314 132.712C72.3314 132.712 63.9815 107.918 58.5293 106.96C58.1701 106.896 57.8508 106.848 57.5554 106.816C52.7658 106.313 41.5022 107 34.9564 112.708L34.3896 116.156L35.1879 119.573L41.5182 162.815Z" fill="#F7B369"/>
<path d="M57.388 143.074C57.388 143.074 69.0028 136.129 72.5551 136.272C76.1074 136.416 77.2809 147.672 77.0015 149.891C76.7221 152.11 62.8242 153.826 62.8242 153.826L57.2363 149.835L57.388 143.074Z" fill="#F48462"/>
<path d="M144.534 188.495L153.459 191.872L161.042 178.573L156.788 172.179L146.011 170.853L144.534 188.495Z" fill="#F48462"/>
<path d="M72.5859 136.272C72.5859 136.272 81.9975 138.755 83.4184 141.86C84.8394 144.966 73.1367 141.549 73.1367 141.549L72.5859 136.272Z" fill="#F48462"/>
<path d="M72.2275 151.064C72.2275 151.064 66.3203 154.784 68.9785 155.814C71.6368 156.844 76.9612 151.743 77.0331 149.891C77.1049 148.039 71.6767 147.648 71.6767 147.648L72.2275 151.064Z" fill="#F48462"/>
<path d="M69.8481 152.996C69.805 152.996 69.7625 152.986 69.7237 152.967C69.6849 152.949 69.6508 152.921 69.624 152.888C69.5972 152.854 69.5783 152.815 69.5687 152.773C69.5591 152.731 69.5591 152.687 69.5687 152.645L70.0157 150.729C70.0327 150.654 70.0788 150.589 70.1439 150.547C70.209 150.506 70.2878 150.493 70.363 150.51C70.4381 150.527 70.5035 150.573 70.5447 150.638C70.5858 150.703 70.5994 150.782 70.5825 150.857L70.2472 152.262L71.756 151.735C71.7915 151.721 71.8295 151.715 71.8676 151.716C71.9057 151.718 71.9431 151.727 71.9775 151.743C72.0119 151.76 72.0426 151.783 72.0676 151.812C72.0927 151.841 72.1116 151.874 72.1232 151.911C72.1358 151.946 72.1413 151.984 72.1393 152.022C72.1373 152.06 72.1279 152.096 72.1116 152.131C72.0953 152.165 72.0724 152.195 72.0442 152.221C72.0161 152.246 71.9832 152.265 71.9475 152.278L69.9439 152.98C69.9138 152.993 69.8809 152.999 69.8481 152.996Z" fill="black"/>
<path d="M76.2828 142.156C76.2409 142.167 76.1969 142.167 76.155 142.156C75.0016 141.468 73.7649 140.932 72.475 140.559C72.436 140.566 72.396 140.564 72.3578 140.554C72.3196 140.543 72.2842 140.525 72.2539 140.499C72.2236 140.474 72.1993 140.442 72.1826 140.406C72.1659 140.37 72.1572 140.331 72.1572 140.292C72.1572 140.252 72.1659 140.213 72.1826 140.177C72.1993 140.141 72.2236 140.11 72.2539 140.084C72.2842 140.059 72.3196 140.04 72.3578 140.03C72.396 140.019 72.436 140.018 72.475 140.024C73.3691 140.024 76.1071 141.501 76.4105 141.669C76.474 141.703 76.5214 141.76 76.5424 141.829C76.5634 141.898 76.5561 141.972 76.5222 142.036C76.4967 142.076 76.461 142.107 76.4188 142.129C76.3767 142.15 76.3297 142.159 76.2828 142.156Z" fill="black"/>
<path d="M76.8248 146.091C76.7906 146.098 76.7552 146.098 76.721 146.091L71.8516 143.976C71.7859 143.946 71.7343 143.892 71.7075 143.825C71.6807 143.758 71.6808 143.683 71.7079 143.616C71.736 143.551 71.7886 143.5 71.8542 143.473C71.9199 143.446 71.9934 143.446 72.0591 143.473L76.9525 145.54C76.9854 145.553 77.0154 145.573 77.0406 145.598C77.0657 145.623 77.0856 145.653 77.099 145.685C77.1125 145.718 77.1191 145.753 77.1186 145.789C77.1181 145.824 77.1105 145.859 77.0962 145.892C77.08 145.951 77.0445 146.002 76.9952 146.039C76.9459 146.075 76.8859 146.093 76.8248 146.091Z" fill="black"/>
<path d="M39.7054 158.025C39.7054 158.025 81.5826 140.559 101.172 144.527C116.954 147.72 158.783 161.649 158.783 161.649L145.308 192.542C145.308 192.542 97.8433 179.65 93.8121 180.105C89.1582 180.624 56.1418 186.404 46.818 183.41C37.4942 180.417 39.7054 158.025 39.7054 158.025Z" fill="#A37B90"/>
<path d="M105.476 110.001C105.476 110.001 105.955 101.22 108.254 100.654C110.553 100.087 109.898 107.383 109.898 107.383L115.797 103.919C115.797 103.919 122.638 100.726 124.171 101.101C125.704 101.476 123.74 104.206 123.74 104.206C123.74 104.206 128.594 101.811 128.298 104.422C128.003 107.032 124.746 109.051 124.746 109.051C124.746 109.051 129.44 106.449 128.801 109.554C128.458 111.231 118.591 119.724 111.151 120.73C103.712 121.736 105.707 115.533 105.707 115.533L105.476 110.001Z" fill="#F48462"/>
<path d="M122.206 111.095C122.158 111.094 122.111 111.08 122.071 111.055L114.806 106.689C114.746 106.652 114.701 106.593 114.684 106.525C114.666 106.456 114.675 106.383 114.711 106.321C114.749 106.26 114.809 106.216 114.879 106.198C114.949 106.18 115.023 106.19 115.086 106.226L122.35 110.592C122.38 110.61 122.407 110.634 122.427 110.662C122.448 110.691 122.463 110.723 122.471 110.757C122.48 110.791 122.481 110.827 122.475 110.862C122.469 110.896 122.457 110.93 122.438 110.959C122.416 111.001 122.382 111.036 122.341 111.06C122.3 111.084 122.254 111.096 122.206 111.095Z" fill="black"/>
<path d="M109.371 116.428C109.31 116.427 109.251 116.407 109.203 116.369C109.156 116.332 109.122 116.279 109.108 116.22C109.093 116.15 109.105 116.078 109.142 116.017C109.18 115.956 109.238 115.911 109.307 115.893C109.857 115.742 110.367 115.471 110.801 115.099C111.234 114.728 111.58 114.266 111.814 113.745C112.325 112.34 111.774 110.496 110.169 108.277C110.148 108.249 110.133 108.216 110.125 108.181C110.116 108.147 110.115 108.111 110.121 108.076C110.127 108.041 110.14 108.007 110.159 107.978C110.179 107.948 110.204 107.922 110.233 107.902C110.291 107.86 110.362 107.843 110.432 107.854C110.502 107.864 110.566 107.901 110.608 107.958C112.325 110.353 112.899 112.348 112.325 113.937C112.061 114.542 111.665 115.079 111.164 115.509C110.664 115.939 110.073 116.25 109.435 116.42L109.371 116.428Z" fill="black"/>
<path d="M58.0104 95.8401C58.7011 94.6977 59.1409 93.4215 59.3006 92.0961C59.4602 90.7707 59.3361 89.4265 58.9364 88.1528C58.0264 85.1513 56.5416 84.337 56.5416 84.337C56.5416 84.337 58.0823 79.8747 51.9196 80.9284C48.3895 81.4553 45.1038 83.0453 42.5001 85.4866C42.5001 85.4866 39.4986 84.4568 38.6524 87.9213C37.8062 91.3858 39.6981 96.0796 39.6981 96.0796L58.0104 95.8401Z" fill="black"/>
<path d="M45.0771 102.689L46.2346 110.225C46.2346 110.225 47.927 112.181 52.3893 111.861C55.7101 111.622 56.4924 109.77 56.4924 109.77L54.6803 103.304L46.4901 102.777L45.0771 102.689Z" fill="#F48462"/>
<path d="M45.0137 102.226C45.0851 102.475 45.1985 102.71 45.3489 102.921C47.608 106.425 53.7866 107.08 55.7264 106.952L54.6967 103.304L45.0137 102.226Z" fill="black"/>
<path d="M53.7157 85.8698C53.7157 85.8698 59.128 94.7066 58.3776 100.199C57.6273 105.691 52.694 105.515 49.6845 104.861C47.9787 104.555 46.3873 103.793 45.0785 102.657C44.2916 103.012 43.4129 103.11 42.5673 102.937C41.7217 102.763 40.9523 102.327 40.3687 101.691C38.2293 99.4404 38.9398 96.4149 40.3687 95.5448C41.7976 94.6747 43.7933 95.5448 43.7933 95.5448L41.9812 93.0063C41.9812 93.0063 46.0923 78.3022 53.7157 85.8698Z" fill="#F48462"/>
<path d="M43.8014 95.5607C43.8014 95.5607 47.9524 95.856 50.1875 90.9866C52.4227 86.1172 51.9277 84.3051 51.9277 84.3051L55.3284 88.5918C55.3284 88.5918 55.5359 85.287 53.9793 83.3951C52.4227 81.5032 51.1454 82.1099 51.1454 82.1099L42.5002 85.4865L41.0713 92.9424L43.8014 95.5607Z" fill="black"/>
<path d="M55.2715 97.724C55.2366 97.7183 55.2033 97.7056 55.1734 97.6867C55.1436 97.6678 55.1178 97.6431 55.0977 97.6141C55.0776 97.585 55.0635 97.5522 55.0564 97.5176C55.0492 97.483 55.049 97.4474 55.0559 97.4127C55.3673 95.5927 53.8106 93.8844 53.7947 93.8684C53.7494 93.8149 53.7266 93.7461 53.731 93.6762C53.7354 93.6063 53.7666 93.5408 53.8181 93.4934C53.8697 93.446 53.9375 93.4203 54.0075 93.4218C54.0775 93.4232 54.1443 93.4517 54.1938 93.5012C54.2657 93.573 55.942 95.425 55.5908 97.4925C55.579 97.5655 55.5388 97.6309 55.4789 97.6743C55.4191 97.7176 55.3445 97.7355 55.2715 97.724Z" fill="black"/>
<path d="M43.9366 99.9991C43.8751 99.9974 43.816 99.9749 43.769 99.9352L40.8553 97.5404C40.8065 97.4886 40.7793 97.4201 40.7793 97.3488C40.7793 97.2776 40.8065 97.2091 40.8553 97.1573C40.908 97.1101 40.9762 97.0841 41.0469 97.0841C41.1176 97.0841 41.1858 97.1101 41.2385 97.1573L44.1522 99.5521C44.177 99.5766 44.1968 99.6058 44.2103 99.638C44.2237 99.6702 44.2307 99.7047 44.2307 99.7397C44.2307 99.7746 44.2237 99.8091 44.2103 99.8413C44.1968 99.8735 44.177 99.9027 44.1522 99.9273C44.1228 99.9529 44.0886 99.9724 44.0516 99.9847C44.0146 99.997 43.9755 100.002 43.9366 99.9991Z" fill="black"/>
<path d="M41.1432 99.6239C41.0841 99.6261 41.0261 99.6084 40.9783 99.5737C40.9305 99.539 40.8958 99.4892 40.8797 99.4323C40.8599 99.3635 40.8681 99.2897 40.9025 99.2269C40.9369 99.1641 40.9947 99.1174 41.0633 99.097L42.7956 98.5941C42.8296 98.5832 42.8656 98.5793 42.9012 98.5827C42.9368 98.5861 42.9713 98.5967 43.0027 98.6139C43.034 98.6311 43.0616 98.6544 43.0836 98.6826C43.1057 98.7108 43.1217 98.7432 43.1309 98.7777C43.1507 98.8465 43.1425 98.9204 43.1081 98.9832C43.0737 99.046 43.0159 99.0926 42.9472 99.113L41.215 99.6159L41.1432 99.6239Z" fill="black"/>
<path d="M54.2265 90.2043C54.1629 90.2024 54.1017 90.1794 54.0526 90.1389C54.0035 90.0985 53.9692 90.0429 53.9551 89.9808C53.9431 89.9101 53.9589 89.8375 53.999 89.7781C54.0391 89.7186 54.1006 89.6769 54.1706 89.6615L55.6634 89.3741C55.6985 89.3672 55.7346 89.3672 55.7697 89.3743C55.8048 89.3814 55.8382 89.3954 55.8679 89.4154C55.8976 89.4355 55.923 89.4612 55.9427 89.4911C55.9624 89.521 55.976 89.5545 55.9827 89.5896C55.9896 89.6243 55.9894 89.66 55.9822 89.6946C55.9751 89.7292 55.961 89.762 55.9409 89.791C55.9208 89.8201 55.895 89.8447 55.8652 89.8636C55.8353 89.8825 55.802 89.8952 55.7671 89.901L54.2744 90.1963L54.2265 90.2043Z" fill="black"/>
<path d="M48.886 91.8967C48.8246 91.895 48.7655 91.8725 48.7185 91.8329C48.6715 91.7932 48.6394 91.7388 48.6273 91.6786C48.6153 91.6183 48.6241 91.5557 48.6522 91.5011C48.6803 91.4464 48.7262 91.403 48.7822 91.3778L51.4325 90.348C51.5002 90.3226 51.5753 90.3252 51.6412 90.3551C51.707 90.385 51.7583 90.4399 51.7837 90.5077C51.8091 90.5754 51.8066 90.6505 51.7766 90.7164C51.7467 90.7822 51.6918 90.8335 51.6241 90.8589L48.9818 91.8807C48.9517 91.8938 48.9188 91.8993 48.886 91.8967Z" fill="black"/>
<path d="M56.2141 93.7726C56.1619 93.7726 56.1108 93.7576 56.0669 93.7293C56.023 93.7009 55.9882 93.6606 55.9667 93.613L55.2243 92.0164C55.2046 91.9767 55.1943 91.933 55.1943 91.8887C55.1943 91.8444 55.2046 91.8007 55.2243 91.761L55.6633 91.0505C55.7025 90.9902 55.7641 90.9479 55.8344 90.933C55.9047 90.918 55.9782 90.9316 56.0385 90.9707C56.0688 90.9887 56.0951 91.0126 56.1159 91.0409C56.1368 91.0693 56.1517 91.1015 56.1599 91.1357C56.1681 91.17 56.1694 91.2055 56.1636 91.2402C56.1578 91.2749 56.1451 91.3081 56.1263 91.3379L55.7591 91.9206L56.4456 93.4214C56.4732 93.4872 56.4745 93.5612 56.4493 93.628C56.424 93.6948 56.3742 93.7494 56.3099 93.7806C56.2778 93.7835 56.2454 93.7808 56.2141 93.7726Z" fill="black"/>
<path d="M51.5129 94.8423C51.4607 94.8423 51.4095 94.8273 51.3656 94.7989C51.3217 94.7706 51.287 94.7302 51.2654 94.6826L50.531 93.0861C50.5094 93.0456 50.498 93.0003 50.498 92.9544C50.498 92.9084 50.5094 92.8632 50.531 92.8227L51.1457 91.8887C51.1644 91.8574 51.1893 91.8302 51.2188 91.8088C51.2483 91.7873 51.2818 91.772 51.3173 91.7638C51.3528 91.7555 51.3896 91.7545 51.4255 91.7609C51.4615 91.7672 51.4957 91.7807 51.5263 91.8005C51.5569 91.8204 51.5832 91.8462 51.6036 91.8764C51.6239 91.9066 51.638 91.9407 51.645 91.9765C51.6519 92.0123 51.6516 92.0491 51.644 92.0848C51.6364 92.1204 51.6217 92.1542 51.6007 92.184L51.0659 92.9823L51.7604 94.4831C51.7751 94.5156 51.7832 94.5506 51.7843 94.5863C51.7855 94.6219 51.7796 94.6574 51.767 94.6908C51.7544 94.7242 51.7353 94.7547 51.7109 94.7807C51.6865 94.8067 51.6572 94.8276 51.6247 94.8423C51.5879 94.8505 51.5497 94.8505 51.5129 94.8423Z" fill="black"/>
<path d="M34.9567 112.708C34.9567 112.708 6.38663 142.571 21.3861 158.025C28.347 165.21 63.407 154.944 63.407 154.944L59.5992 137.773L42.8356 136.177L34.9567 112.708Z" fill="#F7B369"/>
<path d="M113.49 122.087C109.253 129.588 102.265 135.147 94.0042 137.59C80.29 141.501 70.3675 135.299 70.3675 135.299L59.04 106.984C59.04 106.984 74.3828 111.558 86.7559 114.041C94.0441 115.502 104.318 108.094 104.318 108.094L113.49 122.087Z" fill="#F7B369"/>
<path d="M87.0513 122.239C86.8114 122.247 86.5735 122.194 86.3588 122.087C86.1442 121.98 85.9597 121.821 85.8219 121.624C84.5287 119.788 86.4206 114.208 86.5005 113.969C86.5193 113.916 86.554 113.871 86.5997 113.839C86.6455 113.806 86.7 113.789 86.7559 113.789C86.8118 113.789 86.8663 113.806 86.9121 113.839C86.9578 113.871 86.9925 113.916 87.0113 113.969C87.2508 114.576 89.4062 119.94 88.1928 121.688C88.0647 121.869 87.8928 122.015 87.6931 122.111C87.4935 122.207 87.2726 122.251 87.0513 122.239ZM86.7799 114.871C86.2211 116.755 85.4467 120.147 86.269 121.313C86.3555 121.442 86.4753 121.546 86.6157 121.614C86.7561 121.681 86.9121 121.71 87.0672 121.696C87.2038 121.707 87.3409 121.683 87.4653 121.625C87.5897 121.568 87.6973 121.48 87.7777 121.369C88.5121 120.243 87.4823 116.779 86.7799 114.871Z" fill="white"/>
<path d="M72.7627 136.193C72.7253 136.192 72.6885 136.183 72.6544 136.168C72.6204 136.152 72.5898 136.13 72.5645 136.102C72.5392 136.075 72.5196 136.042 72.5071 136.007C72.4945 135.972 72.4891 135.935 72.4913 135.897C72.9597 129.519 71.273 123.169 67.7017 117.864C67.6738 117.837 67.6523 117.804 67.6385 117.767C67.6247 117.73 67.619 117.691 67.6218 117.652C67.6246 117.613 67.6358 117.575 67.6546 117.541C67.6734 117.506 67.6995 117.477 67.731 117.453C67.7624 117.43 67.7985 117.414 67.8369 117.406C67.8752 117.398 67.9148 117.398 67.9529 117.407C67.9911 117.415 68.0269 117.432 68.058 117.456C68.089 117.48 68.1145 117.51 68.1327 117.545C71.7868 122.954 73.5159 129.435 73.0421 135.945C73.0342 136.014 73.0013 136.077 72.9498 136.122C72.8982 136.168 72.8316 136.193 72.7627 136.193Z" fill="white"/>
<path d="M94.6431 180.369C94.6116 180.377 94.5787 180.377 94.5473 180.369C94.4991 180.351 94.457 180.319 94.4259 180.278C94.3948 180.238 94.376 180.189 94.3717 180.137C94.3717 179.914 94.0364 174.653 96.0401 172.673C96.3034 172.405 96.6238 172.198 96.9775 172.07C97.3311 171.941 97.7091 171.894 98.0836 171.931C98.3601 171.916 98.6347 171.984 98.8722 172.126C99.1098 172.269 99.2994 172.479 99.4167 172.729C100.167 174.717 95.3855 179.73 94.8347 180.297C94.8097 180.322 94.7797 180.341 94.7466 180.354C94.7136 180.366 94.6783 180.371 94.6431 180.369ZM97.8362 172.45C97.5715 172.446 97.3088 172.496 97.0643 172.598C96.8199 172.699 96.599 172.85 96.4152 173.041C94.9704 174.462 94.8666 177.99 94.8826 179.427C96.4791 177.695 99.3848 174.182 98.8739 172.897C98.8739 172.793 98.7222 172.498 98.0118 172.442L97.8362 172.45Z" fill="#3A4970"/>
<path d="M76.8252 146.498L110.959 144.519L119.421 121.896L86.6359 123.803C86.2351 123.826 85.8496 123.965 85.5264 124.203C85.2032 124.441 84.9563 124.768 84.8159 125.145L76.8252 146.498Z" fill="white"/>
<path d="M79.7637 146.371L113.898 144.383L121.457 124.195C121.554 123.931 121.584 123.648 121.545 123.37C121.505 123.092 121.397 122.828 121.23 122.602C121.062 122.376 120.842 122.196 120.588 122.077C120.333 121.958 120.053 121.904 119.773 121.92L88.2333 123.748L79.7637 146.371Z" fill="#92B4EA"/>
<path d="M70.5434 148.765L113.283 146.283C113.44 146.274 113.594 146.234 113.736 146.166C113.878 146.097 114.005 146.002 114.109 145.884C114.214 145.767 114.295 145.63 114.347 145.481C114.399 145.332 114.421 145.175 114.412 145.017C114.403 144.86 114.364 144.706 114.295 144.564C114.227 144.423 114.131 144.296 114.014 144.191C113.896 144.086 113.759 144.005 113.61 143.953C113.462 143.901 113.304 143.879 113.147 143.888L70.4396 146.371C70.2855 146.379 70.1347 146.419 69.9957 146.486C69.8567 146.553 69.7324 146.647 69.6297 146.762C69.4224 146.995 69.316 147.301 69.334 147.612C69.352 147.923 69.4929 148.214 69.7257 148.422C69.9585 148.629 70.2641 148.735 70.5753 148.717L70.5434 148.765Z" fill="black"/>
<path d="M97.7165 134.221C97.7491 134.795 97.9513 135.346 98.2974 135.806C98.6435 136.265 99.1181 136.611 99.661 136.8C100.204 136.989 100.791 137.013 101.347 136.869C101.904 136.724 102.405 136.418 102.787 135.989C103.17 135.559 103.416 135.026 103.496 134.457C103.575 133.887 103.483 133.307 103.233 132.79C102.982 132.272 102.584 131.841 102.088 131.55C101.592 131.259 101.021 131.122 100.447 131.156C100.066 131.176 99.6922 131.272 99.3483 131.437C99.0043 131.602 98.6965 131.834 98.4427 132.119C98.1889 132.404 97.994 132.737 97.8694 133.097C97.7447 133.458 97.6928 133.84 97.7165 134.221Z" fill="white"/>
<path d="M16.8435 187.378C26.1459 187.378 33.6869 179.837 33.6869 170.534C33.6869 161.232 26.1459 153.691 16.8435 153.691C7.54108 153.691 0 161.232 0 170.534C0 179.837 7.54108 187.378 16.8435 187.378Z" fill="#6876AA"/>
<path d="M16.844 178.014C20.975 178.014 24.3238 174.665 24.3238 170.534C24.3238 166.403 20.975 163.054 16.844 163.054C12.7131 163.054 9.36426 166.403 9.36426 170.534C9.36426 174.665 12.7131 178.014 16.844 178.014Z" fill="#40507F"/>
<path d="M54.6257 100.869C53.9001 100.746 53.2276 100.41 52.6939 99.9033C52.6577 99.8676 52.6318 99.8228 52.6192 99.7736C52.6065 99.7243 52.6075 99.6726 52.6221 99.6239C52.6378 99.5743 52.6671 99.5301 52.7066 99.4963C52.7461 99.4624 52.7942 99.4403 52.8456 99.4323L55.8072 99.0651C55.8532 99.0586 55.9001 99.0639 55.9434 99.0807C55.9867 99.0975 56.025 99.1251 56.0546 99.1609C56.0817 99.1985 56.1001 99.2416 56.1084 99.2872C56.1166 99.3328 56.1147 99.3796 56.1025 99.4243C56.0467 99.568 55.5757 100.845 54.6577 100.869H54.6257ZM53.564 99.8873C53.8754 100.131 54.2486 100.283 54.6417 100.326C54.945 100.326 55.2165 99.9751 55.3921 99.6638L53.564 99.8873Z" fill="black"/>
<path d="M169.137 196.494C168.835 197.086 168.316 197.539 167.689 197.759C167.062 197.979 166.374 197.949 165.768 197.675C160.564 195.528 148.63 191.353 149.005 190.403C149.508 189.19 157.85 178.429 157.85 178.429C157.85 178.429 150.777 175.108 154.146 170.622C156.724 167.181 163.158 164.611 166.008 163.597C166.894 163.301 167.67 162.745 168.235 162.001C170.63 158.808 177.631 150.13 182.987 152.174C189.533 154.672 187.721 156.964 187.218 158.177C186.811 159.143 173.033 188.272 169.137 196.494Z" fill="#68B6D8"/>
<path d="M30.5732 139.984C30.5063 139.986 30.4412 139.963 30.3902 139.92C30.3393 139.876 30.3062 139.816 30.2973 139.749C30.2884 139.683 30.3043 139.616 30.342 139.56C30.3796 139.505 30.4364 139.466 30.5013 139.45C40.3679 136.688 54.2498 138.18 54.3935 138.196C54.432 138.196 54.4701 138.204 54.5053 138.22C54.5404 138.235 54.5719 138.258 54.5975 138.287C54.6231 138.316 54.6423 138.35 54.6539 138.386C54.6654 138.423 54.669 138.462 54.6645 138.5C54.6599 138.538 54.6473 138.575 54.6274 138.608C54.6075 138.641 54.5809 138.669 54.5492 138.691C54.5176 138.713 54.4816 138.728 54.4438 138.735C54.4059 138.742 54.367 138.74 54.3297 138.731C54.194 138.731 40.4158 137.238 30.645 139.976L30.5732 139.984Z" fill="white"/>
<path d="M41.5745 138.292C40.4409 138.172 34.901 137.534 34.3901 136.057C34.3425 135.873 34.3522 135.679 34.4178 135.501C34.4834 135.322 34.6018 135.168 34.7573 135.059C36.8807 133.111 41.5505 137.629 41.7421 137.829C41.7832 137.867 41.8109 137.917 41.821 137.971C41.8311 138.026 41.823 138.083 41.798 138.132C41.779 138.177 41.7481 138.215 41.7087 138.244C41.6693 138.272 41.6228 138.289 41.5745 138.292ZM36.1063 135.099C35.7498 135.085 35.4013 135.208 35.1325 135.442C34.861 135.69 34.9089 135.825 34.9249 135.873C35.1724 136.624 38.2617 137.31 40.7762 137.637C39.5549 136.592 37.5273 135.115 36.1143 135.115L36.1063 135.099Z" fill="white"/>
<path d="M51.7121 112.101C49.4128 112.176 47.1508 111.506 45.2621 110.193C45.2372 110.168 45.2175 110.139 45.204 110.107C45.1905 110.075 45.1836 110.04 45.1836 110.005C45.1836 109.971 45.1905 109.936 45.204 109.904C45.2175 109.872 45.2372 109.842 45.2621 109.818C45.3061 109.763 45.3699 109.727 45.44 109.718C45.51 109.709 45.5808 109.728 45.6373 109.77C47.9176 111.285 50.6849 111.887 53.3885 111.454C55.9509 111.143 56.2542 109.778 56.2702 109.722C56.2838 109.653 56.3239 109.591 56.3821 109.551C56.4402 109.511 56.5118 109.495 56.5815 109.506C56.6164 109.512 56.6497 109.525 56.6796 109.544C56.7094 109.563 56.7352 109.587 56.7553 109.616C56.7754 109.646 56.7895 109.678 56.7966 109.713C56.8038 109.747 56.804 109.783 56.7971 109.818C56.7971 109.898 56.4458 111.63 53.4603 111.997C52.8802 112.067 52.2964 112.102 51.7121 112.101Z" fill="white"/>
<path d="M243.903 227.339C244.249 227.339 244.591 227.271 244.911 227.138C245.231 227.006 245.521 226.812 245.766 226.567C246.01 226.323 246.204 226.032 246.337 225.713C246.469 225.393 246.537 225.051 246.537 224.705V166.567C246.537 165.868 246.26 165.198 245.766 164.704C245.272 164.21 244.601 163.932 243.903 163.932C243.204 163.932 242.534 164.21 242.04 164.704C241.546 165.198 241.269 165.868 241.269 166.567V224.705C241.269 225.051 241.337 225.393 241.469 225.713C241.601 226.032 241.796 226.323 242.04 226.567C242.285 226.812 242.575 227.006 242.895 227.138C243.214 227.271 243.557 227.339 243.903 227.339Z" fill="#40507F"/>
<path d="M207.454 227.339C207.8 227.339 208.142 227.271 208.462 227.138C208.781 227.006 209.072 226.812 209.316 226.567C209.561 226.323 209.755 226.032 209.887 225.713C210.02 225.393 210.088 225.051 210.088 224.705V166.567C210.088 165.868 209.81 165.198 209.316 164.704C208.822 164.21 208.152 163.932 207.454 163.932C206.755 163.932 206.085 164.21 205.591 164.704C205.097 165.198 204.819 165.868 204.819 166.567V224.705C204.819 225.051 204.887 225.393 205.02 225.713C205.152 226.032 205.346 226.323 205.591 226.567C205.836 226.812 206.126 227.006 206.446 227.138C206.765 227.271 207.108 227.339 207.454 227.339Z" fill="#40507F"/>
<path d="M210.471 158.456H222.717V142.443H210.471V158.456Z" fill="#F7B369"/>
<path d="M210.472 142.443C210.472 142.834 213.21 143.146 216.594 143.146C219.979 143.146 222.717 142.834 222.717 142.443C222.717 142.052 219.979 141.741 216.594 141.741C213.21 141.741 210.472 142.052 210.472 142.443Z" fill="white"/>
<path d="M205.889 151.304C205.889 148.039 207.948 145.389 210.471 145.389C212.993 145.389 215.045 148.039 215.045 151.304C215.045 154.569 212.993 157.219 210.471 157.219C207.948 157.219 205.889 154.561 205.889 151.304ZM206.974 151.304C206.974 153.962 208.571 156.133 210.471 156.133C212.371 156.133 213.967 153.962 213.967 151.304C213.967 148.646 212.371 146.466 210.471 146.466C208.571 146.466 206.942 148.638 206.942 151.304H206.974Z" fill="#F7B369"/>
<path d="M201.674 168.139H250.201C251.451 168.089 252.633 167.556 253.499 166.654C254.366 165.751 254.85 164.549 254.85 163.298C254.85 162.047 254.366 160.844 253.499 159.942C252.633 159.039 251.451 158.507 250.201 158.456H201.674C200.424 158.507 199.242 159.039 198.376 159.942C197.509 160.844 197.025 162.047 197.025 163.298C197.025 164.549 197.509 165.751 198.376 166.654C199.242 167.556 200.424 168.089 201.674 168.139Z" fill="#40507F"/>
<path d="M390.529 49.2373H272.186C269.73 49.2373 267.739 51.228 267.739 53.6836V159.303C267.739 161.758 269.73 163.749 272.186 163.749H390.529C392.985 163.749 394.975 161.758 394.975 159.303V53.6836C394.975 51.228 392.985 49.2373 390.529 49.2373Z" fill="#A79CAD"/>
<path d="M392.142 64.7556V152.94C392.14 153.625 391.866 154.281 391.381 154.764C390.897 155.247 390.24 155.519 389.555 155.519H273.2C272.86 155.52 272.524 155.454 272.211 155.325C271.897 155.196 271.612 155.006 271.371 154.766C271.131 154.527 270.94 154.242 270.81 153.929C270.68 153.616 270.613 153.28 270.613 152.94V64.7556C270.614 64.336 270.716 63.9227 270.909 63.5502C271.13 63.1351 271.46 62.7881 271.864 62.5462C272.267 62.3043 272.729 62.1768 273.2 62.1772H389.587C390.266 62.1855 390.915 62.4606 391.393 62.9431C391.871 63.4255 392.14 64.0765 392.142 64.7556Z" fill="#E8E1EF"/>
<path d="M361.759 155.519H314.933L316.17 136.783L360.322 133.886L361.759 155.519Z" fill="#F7B369"/>
<path d="M365.798 55.9905C365.798 56.5324 365.638 57.0621 365.336 57.5126C365.035 57.963 364.607 58.3139 364.106 58.5209C363.606 58.7279 363.055 58.7817 362.523 58.6754C361.992 58.5691 361.504 58.3075 361.121 57.9238C360.739 57.5401 360.479 57.0515 360.374 56.5198C360.269 55.9881 360.325 55.4374 360.533 54.9372C360.741 54.437 361.094 54.0099 361.545 53.71C361.996 53.4101 362.526 53.2509 363.068 53.2525C363.428 53.2525 363.783 53.3234 364.115 53.4611C364.447 53.5988 364.748 53.8006 365.002 54.0549C365.255 54.3093 365.456 54.6112 365.593 54.9433C365.73 55.2755 365.799 55.6313 365.798 55.9905Z" fill="#6876AA"/>
<path d="M384.159 55.9905C384.159 56.5321 383.998 57.0614 383.697 57.5117C383.396 57.962 382.969 58.3129 382.468 58.5202C381.968 58.7274 381.418 58.7816 380.887 58.676C380.355 58.5703 379.868 58.3096 379.485 57.9266C379.102 57.5437 378.841 57.0558 378.735 56.5247C378.63 55.9936 378.684 55.443 378.891 54.9427C379.098 54.4424 379.449 54.0148 379.9 53.7139C380.35 53.413 380.879 53.2525 381.421 53.2525C381.78 53.2525 382.136 53.3233 382.468 53.4609C382.801 53.5985 383.103 53.8002 383.357 54.0544C383.611 54.3087 383.813 54.6105 383.95 54.9427C384.088 55.2749 384.159 55.631 384.159 55.9905Z" fill="#6876AA"/>
<path d="M374.97 55.9905C374.97 56.5321 374.81 57.0615 374.509 57.5117C374.208 57.962 373.78 58.3129 373.28 58.5202C372.78 58.7274 372.229 58.7816 371.698 58.676C371.167 58.5703 370.679 58.3096 370.296 57.9266C369.913 57.5437 369.652 57.0558 369.547 56.5247C369.441 55.9936 369.495 55.443 369.703 54.9427C369.91 54.4424 370.261 54.0148 370.711 53.7139C371.161 53.4131 371.691 53.2525 372.232 53.2525C372.592 53.2514 372.949 53.3215 373.281 53.4588C373.614 53.596 373.916 53.7976 374.171 54.0521C374.425 54.3066 374.627 54.6088 374.764 54.9415C374.901 55.2742 374.971 55.6307 374.97 55.9905Z" fill="#6876AA"/>
<path d="M290.058 57.2039H274.252C274.079 57.2324 273.901 57.2227 273.731 57.1757C273.562 57.1286 273.405 57.0452 273.271 56.9313C273.136 56.8174 273.029 56.6757 272.955 56.516C272.881 56.3563 272.843 56.1825 272.843 56.0065C272.843 55.8306 272.881 55.6568 272.955 55.4971C273.029 55.3374 273.136 55.1957 273.271 55.0818C273.405 54.9679 273.562 54.8845 273.731 54.8374C273.901 54.7903 274.079 54.7807 274.252 54.8091H290.058C290.342 54.8557 290.6 55.0016 290.787 55.221C290.973 55.4403 291.075 55.7187 291.075 56.0065C291.075 56.2943 290.973 56.5728 290.787 56.7921C290.6 57.0114 290.342 57.1574 290.058 57.2039Z" fill="#6876AA"/>
<path d="M360.785 138.292C360.251 139.146 356.363 142.204 340.358 142.555C337.075 142.635 333.791 142.518 330.523 142.204C329.134 142.076 327.825 141.908 326.612 141.717C319.188 140.575 315.061 138.659 314.821 138.292C314.47 137.733 316.841 88.5759 318.453 87.2907C323.147 83.5309 331.01 83.938 331.01 83.938C340.653 82.7725 356.89 84.7363 360.785 88.5759C364.681 92.4156 361.312 137.43 360.785 138.292Z" fill="#92B4EA"/>
<path d="M338.856 77.0569L338.657 85.6303C338.657 85.6303 337.06 88.065 332.031 88.3604C328.295 88.5839 326.994 87.7058 326.994 87.7058L327.617 83.3792L328.223 79.1484L337.324 77.3602L338.856 77.0569Z" fill="#F48462"/>
<path d="M337.333 77.3602C337.286 77.6382 337.198 77.9074 337.07 78.1585C335.05 82.3973 329.789 83.2036 327.626 83.3552L328.233 79.1244L337.333 77.3602Z" fill="black"/>
<path d="M326.755 59.5668C326.755 59.5668 322.014 70.2157 323.658 76.2267C325.303 82.2377 330.771 81.3356 334.036 80.218C335.887 79.6259 337.543 78.5414 338.825 77.0808C339.755 77.3632 340.751 77.3446 341.67 77.0278C342.588 76.711 343.384 76.1122 343.942 75.3167C346.002 72.4828 344.74 69.2179 343.024 68.4515C341.308 67.6852 339.2 68.9385 339.2 68.9385L340.853 65.8492C340.853 65.8492 334.147 50.0036 326.755 59.5668Z" fill="#F48462"/>
<path d="M327.155 73.1214C327.086 73.1204 327.02 73.0985 326.964 73.0585C326.908 73.0186 326.866 72.9625 326.844 72.8979C326.141 70.6228 327.746 68.3079 327.817 68.2041C327.843 68.1682 327.875 68.1379 327.912 68.1151C327.95 68.0922 327.992 68.0774 328.035 68.0714C328.078 68.0654 328.123 68.0684 328.165 68.0803C328.207 68.0921 328.246 68.1125 328.28 68.1402C328.316 68.1634 328.347 68.1937 328.37 68.2292C328.394 68.2646 328.41 68.3046 328.417 68.3464C328.425 68.3883 328.423 68.4313 328.414 68.4727C328.404 68.5142 328.386 68.5531 328.36 68.5872C328.36 68.5872 326.875 70.7426 327.482 72.7143C327.505 72.7968 327.495 72.885 327.455 72.9607C327.415 73.0364 327.348 73.0939 327.267 73.1214H327.155Z" fill="black"/>
<path d="M339.686 73.9117C339.606 73.9114 339.529 73.8799 339.471 73.8239C339.44 73.7935 339.416 73.7574 339.4 73.7177C339.383 73.6779 339.375 73.6354 339.375 73.5924C339.375 73.5494 339.383 73.5068 339.4 73.4671C339.416 73.4274 339.44 73.3913 339.471 73.3609L342.369 70.2875C342.399 70.2571 342.435 70.233 342.475 70.2165C342.515 70.2001 342.557 70.1916 342.6 70.1916C342.643 70.1916 342.686 70.2001 342.725 70.2165C342.765 70.233 342.801 70.2571 342.832 70.2875C342.862 70.3173 342.886 70.3527 342.902 70.3917C342.918 70.4308 342.927 70.4727 342.927 70.5151C342.927 70.5574 342.918 70.5993 342.902 70.6384C342.886 70.6774 342.862 70.7128 342.832 70.7426L339.934 73.8159C339.902 73.8491 339.864 73.8749 339.821 73.8915C339.778 73.908 339.732 73.9149 339.686 73.9117Z" fill="black"/>
<path d="M342.761 73.0895H342.713L340.709 72.7861C340.667 72.7803 340.626 72.7661 340.59 72.7444C340.553 72.7227 340.521 72.6938 340.496 72.6596C340.471 72.6254 340.453 72.5865 340.443 72.5452C340.433 72.5038 340.431 72.4609 340.438 72.4189C340.451 72.3348 340.498 72.2593 340.566 72.2086C340.635 72.1579 340.72 72.136 340.805 72.1475L342.809 72.4508C342.886 72.4675 342.954 72.5115 343.002 72.5747C343.049 72.638 343.072 72.7162 343.066 72.795C343.06 72.8738 343.026 72.9478 342.97 73.0034C342.914 73.059 342.839 73.0924 342.761 73.0975V73.0895Z" fill="black"/>
<path d="M332 69.1381H331.952C331.868 69.1261 331.792 69.082 331.74 69.015C331.688 68.9479 331.664 68.8633 331.673 68.7788L331.928 66.7832C331.95 66.7102 331.996 66.6468 332.058 66.6033C332.12 66.5598 332.196 66.5388 332.271 66.5437C332.357 66.5556 332.435 66.6009 332.487 66.6697C332.539 66.7385 332.562 66.8252 332.551 66.9109L332.303 68.8986C332.285 68.9655 332.245 69.0248 332.191 69.0679C332.136 69.1109 332.07 69.1355 332 69.1381Z" fill="black"/>
<path d="M326.085 68.6671H326.037C325.954 68.6552 325.878 68.6108 325.827 68.5435C325.776 68.4762 325.754 68.3915 325.766 68.3079L326.061 66.3202C326.067 66.2783 326.082 66.238 326.104 66.2017C326.125 66.1653 326.154 66.1337 326.188 66.1085C326.222 66.0833 326.261 66.065 326.302 66.0548C326.343 66.0445 326.386 66.0425 326.428 66.0488C326.47 66.0551 326.51 66.0696 326.547 66.0914C326.583 66.1133 326.615 66.1421 326.64 66.1762C326.665 66.2103 326.683 66.249 326.694 66.2902C326.704 66.3313 326.706 66.3741 326.7 66.416L326.404 68.3957C326.391 68.4712 326.352 68.5396 326.294 68.5892C326.235 68.6388 326.161 68.6664 326.085 68.6671Z" fill="black"/>
<path d="M333.357 65.498C333.3 65.4977 333.244 65.482 333.195 65.4525C333.145 65.423 333.105 65.3808 333.078 65.3303C332.559 64.3964 331.258 64.6917 331.202 64.7077C331.118 64.727 331.031 64.7127 330.957 64.6679C330.884 64.6231 330.832 64.5514 330.811 64.4682C330.8 64.4268 330.798 64.3836 330.804 64.3413C330.811 64.299 330.825 64.2584 330.848 64.2219C330.87 64.1854 330.9 64.1538 330.934 64.1289C330.969 64.104 331.009 64.0864 331.05 64.0771C331.122 64.0771 332.886 63.646 333.645 65.019C333.683 65.0948 333.691 65.1822 333.667 65.2637C333.644 65.3452 333.59 65.4146 333.517 65.4581C333.467 65.4825 333.413 65.4961 333.357 65.498Z" fill="black"/>
<path d="M325.653 64.6917C325.583 64.6906 325.515 64.6652 325.462 64.6198C325.428 64.5947 325.4 64.5631 325.379 64.5271C325.357 64.491 325.343 64.451 325.337 64.4095C325.331 64.368 325.334 64.3258 325.344 64.2851C325.354 64.2445 325.373 64.2063 325.398 64.1728C325.73 63.7491 326.208 63.4645 326.739 63.3745C326.951 63.3569 327.164 63.384 327.365 63.4541C327.566 63.5243 327.75 63.6359 327.904 63.7816C327.969 63.8377 328.009 63.9172 328.015 64.0025C328.021 64.0879 327.992 64.1721 327.936 64.2367C327.88 64.3012 327.801 64.3409 327.715 64.3469C327.63 64.3528 327.546 64.3247 327.481 64.2686C327.394 64.1812 327.289 64.1133 327.173 64.0692C327.058 64.0252 326.934 64.0061 326.811 64.0131C326.456 64.0865 326.138 64.2847 325.917 64.5719C325.885 64.6103 325.844 64.641 325.799 64.6617C325.753 64.6824 325.703 64.6926 325.653 64.6917Z" fill="black"/>
<path d="M338.21 69.633C338.21 69.633 335.312 67.6773 335.488 64.7077C335.663 61.7381 336.286 60.9798 336.286 60.9798C334.195 60.8499 332.125 60.4858 330.115 59.8942C329.182 59.6326 328.302 59.2112 327.513 58.6489L326.715 59.5669C325.861 59.5669 323.913 54.3542 325.198 53.4362C326.483 52.5181 333.356 54.9129 333.356 54.9129C333.356 54.9129 340.605 53.2126 344.835 58.3615C349.066 63.5103 344.325 69.5772 344.325 69.5772C344.325 69.5772 343.111 66.9269 338.21 69.633Z" fill="black"/>
<path d="M329.876 76.6816C329.24 76.6621 328.631 76.4222 328.152 76.0031C328.11 75.9658 328.079 75.918 328.062 75.8646C328.045 75.8112 328.043 75.7543 328.056 75.6998C328.065 75.6455 328.088 75.5946 328.123 75.5524C328.158 75.5103 328.204 75.4784 328.256 75.4603L331.026 74.4225C331.108 74.3905 331.199 74.3905 331.281 74.4225C331.32 74.4404 331.355 74.4658 331.383 74.4974C331.412 74.5289 331.434 74.5659 331.449 74.6062C331.582 75.0317 331.556 75.4911 331.377 75.8993C331.286 76.0662 331.162 76.2125 331.013 76.3293C330.863 76.446 330.691 76.5307 330.507 76.5779C330.303 76.6422 330.09 76.6771 329.876 76.6816ZM329.078 75.8834C329.46 76.0769 329.901 76.1224 330.315 76.0111C330.415 75.9882 330.509 75.9453 330.591 75.8849C330.673 75.8245 330.742 75.7479 330.794 75.6599C330.858 75.5168 330.888 75.3612 330.882 75.2049L329.078 75.8834Z" fill="black"/>
<path d="M274.869 106.673L274.566 104.757C274.566 104.757 267.23 99.1689 262.711 97.3249C260.811 96.5266 258.145 97.1972 260.388 99.7197C261.155 100.605 261.77 101.611 262.208 102.697C260.069 102.003 258.017 101.063 256.094 99.8953C254.497 98.8416 252.166 94.5948 250.801 95.5128C248.63 96.9817 251.128 101.101 251.128 101.101C251.128 101.101 249.995 95.8481 247.848 97.9076C245.7 99.9672 251.552 110.265 254.329 112.724C257.107 115.182 271.78 118.056 271.78 118.056L274.869 106.673Z" fill="#F48462"/>
<path d="M259.413 104.932C255.965 104.597 252.859 101.739 252.732 101.58C252.673 101.519 252.64 101.437 252.64 101.352C252.64 101.267 252.673 101.186 252.732 101.125C252.794 101.065 252.877 101.032 252.963 101.032C253.049 101.032 253.132 101.065 253.195 101.125C253.195 101.125 256.268 103.99 259.461 104.318C259.546 104.318 259.627 104.351 259.687 104.411C259.747 104.471 259.78 104.552 259.78 104.637C259.78 104.722 259.747 104.803 259.687 104.863C259.627 104.923 259.546 104.956 259.461 104.956L259.413 104.932Z" fill="black"/>
<path d="M255.637 107.319C255.569 107.318 255.502 107.295 255.446 107.255L252.38 104.956C252.323 104.901 252.288 104.826 252.281 104.746C252.275 104.667 252.298 104.588 252.346 104.524C252.394 104.46 252.464 104.416 252.543 104.4C252.621 104.384 252.702 104.397 252.772 104.437L255.661 106.609L261.904 102.817C261.977 102.772 262.065 102.758 262.149 102.777C262.232 102.797 262.305 102.848 262.351 102.921C262.393 102.995 262.405 103.083 262.384 103.167C262.363 103.25 262.311 103.322 262.239 103.368L255.773 107.255C255.734 107.288 255.687 107.31 255.637 107.319Z" fill="black"/>
<path d="M267.979 107.2H267.884C265.564 106.435 263.472 105.101 261.801 103.32C261.773 103.288 261.752 103.251 261.738 103.211C261.725 103.17 261.72 103.128 261.722 103.086C261.725 103.044 261.737 103.002 261.756 102.964C261.775 102.927 261.801 102.893 261.833 102.865C261.865 102.837 261.902 102.816 261.942 102.803C261.982 102.789 262.025 102.784 262.067 102.787C262.109 102.79 262.15 102.801 262.188 102.82C262.226 102.839 262.26 102.865 262.288 102.897C263.887 104.58 265.874 105.846 268.075 106.585C268.116 106.597 268.153 106.617 268.186 106.643C268.219 106.67 268.246 106.702 268.266 106.74C268.286 106.777 268.299 106.817 268.303 106.859C268.307 106.901 268.303 106.944 268.291 106.984C268.268 107.048 268.225 107.103 268.169 107.141C268.114 107.18 268.047 107.2 267.979 107.2Z" fill="black"/>
<path d="M333.358 88.3205L330.524 142.204C329.135 142.076 327.826 141.908 326.612 141.717L330.604 88.983L333.358 88.3205Z" fill="#A2C5F9"/>
<path d="M327.523 84.1056L317.225 150.258C316.433 150.259 315.65 150.095 314.925 149.776C314.2 149.457 313.55 148.991 313.016 148.406C312.481 147.822 312.075 147.132 311.823 146.382C311.57 145.631 311.477 144.836 311.549 144.048C311.797 141.318 312.068 138.324 312.252 136.488C312.651 132.433 313.226 126.382 313.226 126.382C313.226 126.382 302.848 134.365 285.47 129.87C271.404 126.246 266.415 118.998 266.415 118.998L273.671 100.438C273.671 100.438 286.507 103.559 298.218 99.1689C309.929 94.7784 317.377 86.8676 320.969 85.3988C323.044 84.5301 325.273 84.0902 327.523 84.1056Z" fill="#6876AA"/>
<path d="M332.934 155.838C332.852 155.838 332.773 155.808 332.713 155.754C332.652 155.699 332.614 155.624 332.606 155.543L332.167 148.749L322.029 145.884C321.958 145.851 321.901 145.794 321.868 145.723C321.835 145.653 321.829 145.572 321.85 145.497C321.871 145.422 321.919 145.357 321.984 145.313C322.049 145.27 322.127 145.251 322.205 145.261L332.583 148.191C332.646 148.209 332.703 148.246 332.744 148.297C332.785 148.349 332.81 148.412 332.814 148.478L333.269 155.495C333.273 155.538 333.269 155.581 333.256 155.622C333.243 155.663 333.221 155.701 333.193 155.733C333.164 155.765 333.129 155.791 333.09 155.809C333.051 155.827 333.009 155.837 332.966 155.838H332.934Z" fill="#6876AA"/>
<path d="M327.481 84.4728C327.481 84.4728 324.751 93.6289 325.669 93.4453C326.587 93.2617 332.055 88.3604 332.055 88.3604C332.055 88.3604 336.047 93.4134 337.348 93.4533C338.649 93.4932 339.112 83.6346 339.112 83.6346C339.112 83.6346 337.763 86.7159 332.933 87.4104C328.104 88.1049 327.481 84.4728 327.481 84.4728Z" fill="#E6F4FF"/>
<path d="M339.097 83.6347L340.757 150.226C340.757 150.226 349.307 150.362 353.529 149.029C357.752 147.696 361.161 145.724 361.736 144.918C362.31 144.111 363.412 90.9628 360.754 88.5759C355.773 84.1056 339.456 82.9881 339.097 83.6347Z" fill="#6876AA"/>
<path d="M319.691 113.011C319.691 113.011 315.66 111.47 314.79 112.356C313.92 113.242 317.376 117.146 317.376 117.146L321.855 117.944L319.691 113.011Z" fill="#F48462"/>
<path d="M295.503 107.399C295.324 107.398 295.148 107.342 295.001 107.239C293.667 106.353 293.803 101.348 293.843 100.35C293.845 100.28 293.871 100.213 293.916 100.16C293.96 100.106 294.022 100.069 294.091 100.055C294.158 100.036 294.229 100.041 294.293 100.068C294.357 100.096 294.41 100.145 294.442 100.207C294.721 100.678 297.084 104.861 296.541 106.593C296.5 106.745 296.427 106.886 296.326 107.007C296.225 107.128 296.1 107.227 295.958 107.295C295.816 107.363 295.661 107.399 295.503 107.399ZM294.466 101.604C294.466 103.703 294.697 106.265 295.36 106.705C295.407 106.735 295.463 106.751 295.519 106.751C295.576 106.751 295.631 106.735 295.679 106.705C295.741 106.675 295.796 106.631 295.839 106.577C295.881 106.523 295.912 106.46 295.927 106.393C296.23 105.427 295.248 103.144 294.466 101.604Z" fill="#8095CE"/>
<path d="M320.297 126.206C320.22 126.204 320.146 126.174 320.088 126.123C320.029 126.073 319.991 126.003 319.978 125.927C319.874 125.256 317.447 109.395 317.447 108.477C317.447 108.431 317.457 108.386 317.476 108.345C317.496 108.303 317.524 108.266 317.559 108.237L321.223 104.964C320.018 102.57 318.661 99.7117 318.788 99.1928C318.916 98.6739 325.813 86.6999 327.186 84.3051C327.235 84.2439 327.305 84.2023 327.382 84.1881C327.459 84.1738 327.539 84.1878 327.607 84.2275C327.675 84.2672 327.726 84.33 327.751 84.4043C327.777 84.4786 327.774 84.5596 327.745 84.6324C324.496 90.2602 319.603 98.8336 319.411 99.3605C320.111 101.266 320.949 103.117 321.918 104.9C321.949 104.964 321.958 105.036 321.943 105.106C321.929 105.175 321.892 105.238 321.838 105.284L318.102 108.612C318.238 110.137 319.946 121.433 320.616 125.831C320.623 125.873 320.622 125.916 320.611 125.957C320.601 125.999 320.583 126.038 320.558 126.072C320.533 126.106 320.501 126.135 320.464 126.156C320.428 126.178 320.387 126.192 320.345 126.198L320.297 126.206Z" fill="#8095CE"/>
<path d="M315.412 115.972C315.412 115.972 321.726 101.133 322.828 101.859C323.929 102.585 317.24 118.894 317.24 118.894C317.24 118.894 311.213 132.936 309.88 132.465C308.547 131.994 315.412 115.972 315.412 115.972Z" fill="#40507F"/>
<path d="M332.933 119.892C332.933 119.892 327.002 114.304 319.69 113.011L318.293 116.404C318.293 116.404 312.186 116.819 312.45 118.695C312.713 120.571 314.725 121.944 314.789 123.38C314.852 124.817 314.182 132.712 316.441 133.886C318.7 135.059 334.107 135.993 335.719 131.203C337.332 126.414 332.933 119.892 332.933 119.892Z" fill="#F48462"/>
<path d="M342.865 122.75H342.761C342.721 122.736 342.684 122.715 342.653 122.687C342.621 122.659 342.595 122.626 342.577 122.588C342.558 122.55 342.547 122.509 342.545 122.467C342.542 122.425 342.548 122.382 342.562 122.343C344.541 116.42 346.553 109.738 346.353 109.02C345.85 108.405 342.737 104.118 342.602 103.935C342.558 103.87 342.539 103.793 342.546 103.716C342.553 103.639 342.587 103.567 342.641 103.512C343.975 102.178 346.154 99.8555 346.321 99.3286C346.321 98.5303 341.707 89.3742 338.81 83.8103C338.781 83.7355 338.781 83.6529 338.809 83.578C338.837 83.5031 338.892 83.4411 338.963 83.4037C339.033 83.3664 339.115 83.3562 339.193 83.3752C339.271 83.3943 339.339 83.4411 339.385 83.5069C342.314 89.1427 347.192 98.7219 346.936 99.5282C346.681 100.334 344.166 102.889 343.288 103.775C343.951 104.685 346.433 108.102 346.888 108.668C347.343 109.235 345.164 116.587 343.176 122.55C343.15 122.61 343.106 122.661 343.051 122.697C342.995 122.732 342.931 122.751 342.865 122.75Z" fill="#8095CE"/>
<path d="M360.786 88.5759C360.786 88.5759 384.582 108.716 379.896 129.591C376.048 146.746 331.13 135.179 331.13 135.179L331.617 116.276L355.038 112.612L360.786 88.5759Z" fill="#6876AA"/>
<path d="M362.804 113.745C360.426 113.669 358.057 113.415 355.716 112.987C355.649 112.976 355.587 112.943 355.54 112.894C355.492 112.846 355.462 112.783 355.452 112.716C355.44 112.649 355.45 112.58 355.48 112.52C355.51 112.459 355.559 112.41 355.62 112.38C355.899 112.229 362.629 108.708 365.423 111.71C365.878 112.189 366.006 112.62 365.806 112.995C365.503 113.554 364.297 113.745 362.804 113.745ZM356.841 112.516C360.777 113.131 364.872 113.362 365.239 112.684C365.239 112.612 365.239 112.436 364.952 112.149C363.052 110.113 358.733 111.678 356.841 112.516Z" fill="#8095CE"/>
<path d="M347.638 114.112C347.56 114.11 347.486 114.081 347.428 114.03C347.37 113.979 347.331 113.909 347.318 113.833C347.307 113.749 347.329 113.663 347.38 113.594C347.43 113.526 347.506 113.48 347.59 113.466C347.59 113.466 349.985 113.091 355.724 112.348C355.766 112.343 355.809 112.345 355.85 112.356C355.891 112.367 355.929 112.385 355.963 112.411C355.997 112.436 356.025 112.468 356.046 112.505C356.068 112.541 356.082 112.582 356.087 112.624C356.093 112.666 356.091 112.708 356.08 112.749C356.069 112.79 356.051 112.829 356.025 112.862C355.999 112.896 355.967 112.924 355.931 112.946C355.894 112.967 355.854 112.981 355.812 112.987C350.096 113.729 347.718 114.104 347.694 114.104L347.638 114.112Z" fill="#8095CE"/>
<path d="M359.157 139.386C352.962 139.265 346.787 138.641 340.693 137.518C340.609 137.499 340.536 137.448 340.489 137.377C340.441 137.306 340.423 137.219 340.437 137.135C340.445 137.093 340.461 137.054 340.484 137.018C340.507 136.983 340.537 136.952 340.572 136.929C340.607 136.905 340.646 136.888 340.687 136.88C340.729 136.871 340.771 136.871 340.813 136.879C340.932 136.879 352.491 139.122 361.751 138.675C361.828 138.687 361.898 138.727 361.949 138.786C362 138.845 362.027 138.921 362.027 138.999C362.027 139.077 362 139.152 361.949 139.211C361.898 139.27 361.828 139.31 361.751 139.322C360.921 139.362 360.043 139.386 359.157 139.386Z" fill="#8095CE"/>
<path d="M323.315 117.17L318.829 116.675C318.75 116.657 318.681 116.611 318.634 116.546C318.587 116.48 318.566 116.4 318.575 116.319C318.584 116.239 318.622 116.165 318.682 116.112C318.742 116.058 318.82 116.028 318.901 116.028L323.347 116.523C323.432 116.535 323.508 116.579 323.562 116.646C323.615 116.713 323.641 116.797 323.634 116.882C323.625 116.961 323.587 117.033 323.528 117.086C323.47 117.139 323.394 117.169 323.315 117.17Z" fill="black"/>
<path d="M316.904 123.947C316.864 123.955 316.824 123.955 316.784 123.947L314.501 123.021C314.421 122.989 314.356 122.927 314.322 122.847C314.288 122.768 314.286 122.679 314.317 122.598C314.352 122.528 314.41 122.472 314.481 122.44C314.553 122.408 314.633 122.401 314.709 122.423L316.992 123.341C317.072 123.373 317.136 123.435 317.171 123.514C317.205 123.593 317.207 123.683 317.175 123.764C317.149 123.815 317.111 123.859 317.063 123.891C317.016 123.923 316.961 123.942 316.904 123.947Z" fill="black"/>
<path d="M449.129 124.338H444.068V223.156H449.129V124.338Z" fill="#EA9C4E"/>
<path d="M481.899 224.665H411.3C411.3 223.607 411.508 222.56 411.913 221.584C412.318 220.607 412.911 219.719 413.659 218.972C414.407 218.225 415.295 217.632 416.273 217.228C417.25 216.825 418.297 216.617 419.354 216.618H473.852C475.986 216.618 478.033 217.466 479.542 218.975C481.051 220.484 481.899 222.531 481.899 224.665Z" fill="#F7B369"/>
<path d="M461.727 216.618H431.48C431.48 215.562 431.689 214.516 432.093 213.54C432.498 212.564 433.09 211.678 433.838 210.931C434.585 210.185 435.472 209.593 436.448 209.189C437.425 208.786 438.471 208.579 439.527 208.58H453.68C454.737 208.579 455.783 208.786 456.759 209.189C457.735 209.593 458.622 210.185 459.37 210.931C460.117 211.678 460.71 212.564 461.114 213.54C461.519 214.516 461.727 215.562 461.727 216.618Z" fill="#F7B369"/>
<path d="M470.596 169.792C470.528 169.793 470.461 169.773 470.404 169.736C470.358 169.711 470.317 169.677 470.284 169.636C470.251 169.595 470.227 169.547 470.213 169.497C470.199 169.446 470.195 169.393 470.202 169.341C470.208 169.289 470.226 169.238 470.252 169.193L488.612 136.552C488.666 136.459 488.754 136.392 488.857 136.363C488.96 136.335 489.07 136.348 489.163 136.4C489.255 136.452 489.323 136.538 489.351 136.64C489.38 136.742 489.367 136.851 489.315 136.943L470.955 169.584C470.92 169.649 470.868 169.703 470.805 169.739C470.741 169.776 470.669 169.794 470.596 169.792Z" fill="#A79CAD"/>
<path d="M507.332 169.792C507.26 169.793 507.189 169.774 507.127 169.737C507.065 169.701 507.015 169.648 506.981 169.584L488.621 136.943C488.572 136.849 488.561 136.741 488.591 136.639C488.621 136.538 488.689 136.452 488.78 136.4C488.872 136.348 488.981 136.335 489.083 136.364C489.185 136.392 489.271 136.46 489.323 136.552L507.683 169.193C507.71 169.238 507.727 169.289 507.734 169.341C507.741 169.393 507.737 169.446 507.723 169.497C507.709 169.547 507.685 169.595 507.652 169.636C507.619 169.677 507.578 169.711 507.532 169.736C507.473 169.775 507.403 169.795 507.332 169.792Z" fill="#A79CAD"/>
<path d="M385.653 146.019C385.586 146.019 385.52 146.002 385.461 145.971C385.369 145.919 385.301 145.834 385.271 145.732C385.242 145.631 385.252 145.522 385.301 145.429L403.661 111.782C403.686 111.735 403.719 111.693 403.76 111.659C403.801 111.626 403.848 111.601 403.899 111.586C403.949 111.571 404.003 111.566 404.055 111.572C404.108 111.579 404.158 111.596 404.204 111.622C404.25 111.646 404.291 111.679 404.324 111.72C404.357 111.76 404.381 111.806 404.396 111.856C404.411 111.906 404.416 111.958 404.41 112.01C404.405 112.061 404.389 112.111 404.364 112.157L386.004 145.812C385.97 145.875 385.919 145.928 385.857 145.965C385.795 146.002 385.725 146.02 385.653 146.019Z" fill="#C8BCCE"/>
<path d="M422.388 146.019C422.316 146.02 422.245 146.002 422.183 145.965C422.121 145.928 422.071 145.875 422.037 145.812L403.677 112.157C403.652 112.111 403.636 112.061 403.63 112.01C403.625 111.958 403.629 111.906 403.644 111.856C403.659 111.806 403.684 111.76 403.717 111.72C403.75 111.679 403.79 111.646 403.836 111.622C403.882 111.596 403.933 111.579 403.985 111.572C404.038 111.566 404.091 111.571 404.142 111.586C404.193 111.601 404.24 111.626 404.281 111.659C404.321 111.693 404.355 111.735 404.379 111.782L422.739 145.429C422.766 145.474 422.783 145.524 422.79 145.576C422.797 145.629 422.793 145.682 422.779 145.732C422.765 145.783 422.741 145.83 422.708 145.871C422.675 145.912 422.634 145.946 422.588 145.971C422.526 146.004 422.458 146.02 422.388 146.019Z" fill="#C8BCCE"/>
<path d="M488.597 138.388L403.669 113.49C403.446 113.44 403.235 113.345 403.05 113.211C402.866 113.076 402.71 112.905 402.594 112.708C402.478 112.511 402.404 112.293 402.376 112.066C402.348 111.839 402.367 111.609 402.431 111.389C402.496 111.17 402.605 110.966 402.752 110.791C402.899 110.616 403.08 110.472 403.284 110.37C403.488 110.267 403.712 110.208 403.94 110.196C404.168 110.183 404.397 110.217 404.611 110.297L489.531 135.195C489.927 135.342 490.253 135.634 490.443 136.012C490.633 136.39 490.671 136.826 490.552 137.231C490.432 137.637 490.163 137.982 489.798 138.197C489.434 138.412 489.002 138.48 488.589 138.388H488.597Z" fill="#F7B369"/>
<path d="M407.357 111.853C407.357 112.513 407.161 113.158 406.795 113.707C406.428 114.256 405.907 114.684 405.297 114.936C404.688 115.189 404.017 115.255 403.369 115.126C402.722 114.997 402.128 114.679 401.661 114.213C401.194 113.746 400.876 113.152 400.748 112.504C400.619 111.857 400.685 111.186 400.938 110.576C401.19 109.967 401.618 109.446 402.167 109.079C402.715 108.712 403.36 108.517 404.02 108.517C404.905 108.517 405.754 108.868 406.38 109.494C407.006 110.12 407.357 110.968 407.357 111.853Z" fill="#EA9C4E"/>
<path d="M492.299 136.935C492.299 137.595 492.104 138.24 491.737 138.789C491.371 139.338 490.849 139.765 490.24 140.018C489.63 140.27 488.959 140.336 488.312 140.208C487.665 140.079 487.07 139.761 486.603 139.294C486.137 138.828 485.819 138.233 485.69 137.586C485.561 136.939 485.627 136.268 485.88 135.658C486.133 135.048 486.56 134.527 487.109 134.161C487.658 133.794 488.303 133.598 488.963 133.598C489.848 133.598 490.696 133.95 491.322 134.576C491.948 135.201 492.299 136.05 492.299 136.935Z" fill="#EA9C4E"/>
<path d="M407.397 164.866H400.643C398.395 164.868 396.169 164.426 394.091 163.566C392.014 162.706 390.126 161.446 388.536 159.856C386.946 158.267 385.685 156.38 384.824 154.303C383.963 152.226 383.521 150 383.521 147.752C383.523 147.187 383.748 146.646 384.147 146.247C384.546 145.848 385.087 145.622 385.652 145.62H422.372C422.937 145.622 423.478 145.848 423.877 146.247C424.276 146.646 424.501 147.187 424.504 147.752C424.504 152.289 422.702 156.641 419.494 159.851C416.286 163.06 411.934 164.864 407.397 164.866Z" fill="#F7B369"/>
<path d="M492.34 188.679H485.587C483.339 188.68 481.112 188.238 479.035 187.378C476.957 186.519 475.07 185.258 473.48 183.669C471.889 182.079 470.628 180.192 469.767 178.115C468.907 176.038 468.464 173.812 468.464 171.564C468.464 170.999 468.688 170.456 469.088 170.057C469.488 169.657 470.03 169.433 470.595 169.433H507.316C507.596 169.433 507.873 169.488 508.131 169.595C508.39 169.702 508.625 169.859 508.823 170.057C509.021 170.255 509.178 170.49 509.285 170.748C509.392 171.007 509.447 171.284 509.447 171.564C509.447 176.102 507.645 180.454 504.437 183.663C501.229 186.873 496.878 188.677 492.34 188.679Z" fill="#F7B369"/>
<path d="M408.242 163.134C408.145 163.133 408.051 163.097 407.977 163.033C407.904 162.968 407.857 162.88 407.843 162.783C407.832 162.677 407.862 162.571 407.928 162.488C407.993 162.404 408.089 162.35 408.194 162.336C411.071 161.82 413.77 160.583 416.04 158.742C418.309 156.901 420.076 154.515 421.174 151.807C421.194 151.758 421.224 151.713 421.261 151.676C421.299 151.638 421.343 151.609 421.393 151.589C421.442 151.568 421.494 151.558 421.547 151.559C421.6 151.559 421.652 151.57 421.701 151.591C421.797 151.633 421.873 151.711 421.913 151.807C421.953 151.904 421.954 152.012 421.917 152.11C420.758 154.947 418.902 157.445 416.519 159.372C414.137 161.299 411.306 162.594 408.29 163.134H408.242Z" fill="#FCF8FF"/>
<path d="M492.972 187.002C492.866 187.009 492.762 186.973 492.682 186.902C492.603 186.832 492.555 186.733 492.549 186.627C492.542 186.521 492.578 186.417 492.649 186.338C492.719 186.259 492.818 186.21 492.924 186.204C495.799 185.684 498.496 184.447 500.765 182.606C503.034 180.765 504.802 178.381 505.904 175.675C505.944 175.577 506.021 175.498 506.12 175.457C506.218 175.416 506.328 175.415 506.426 175.455C506.525 175.496 506.603 175.573 506.645 175.671C506.686 175.769 506.686 175.88 506.646 175.978C505.487 178.815 503.631 181.313 501.249 183.24C498.866 185.168 496.036 186.462 493.02 187.002H492.972Z" fill="#FCF8FF"/>
<path d="M461.727 217.017H446.599C446.493 217.017 446.392 216.975 446.317 216.9C446.242 216.826 446.2 216.724 446.2 216.618C446.202 216.513 446.245 216.413 446.319 216.338C446.394 216.264 446.494 216.221 446.599 216.219H461.727C461.832 216.219 461.934 216.261 462.009 216.336C462.084 216.411 462.126 216.512 462.126 216.618C462.126 216.671 462.115 216.722 462.095 216.771C462.075 216.819 462.046 216.863 462.009 216.9C461.972 216.937 461.928 216.967 461.879 216.987C461.831 217.007 461.779 217.017 461.727 217.017Z" fill="#EA9C4E"/>
</svg>
